<svg width="228" height="70" viewBox="0 0 228 70" fill="none" xmlns="http://www.w3.org/2000/svg">
<path d="M25.9852 19.7361C26.9527 19.7361 27.7371 18.9526 27.7371 17.9861C27.7371 17.0196 26.9527 16.2361 25.9852 16.2361C25.0177 16.2361 24.2334 17.0196 24.2334 17.9861C24.2334 18.9526 25.0177 19.7361 25.9852 19.7361Z" fill="url(#paint0_linear_66_420)"/>
<path d="M15.8636 35.1458C15.961 35.1458 16.1069 35.1458 16.2043 35.0972C16.2529 35.0972 16.3016 35.0486 16.3502 35.0486C16.3989 35.0486 16.4962 35 16.5449 35C16.5936 35 16.6422 34.9514 16.6909 34.9028C16.7395 34.9028 16.7882 34.8542 16.7882 34.8542C16.8369 34.8055 16.8855 34.7569 16.9828 34.7083L17.0315 34.6597C17.0802 34.6111 17.1775 34.5139 17.2261 34.4653C17.2261 34.4653 17.2261 34.4653 17.2748 34.4166C17.3235 34.3194 17.3721 34.2708 17.4208 34.1736C17.5181 33.9792 17.5668 33.7847 17.6154 33.5903C17.9561 29.118 19.9999 25.1319 23.0655 22.2639C23.5035 21.9236 23.7954 21.3889 23.7954 20.8055C23.7954 19.8333 23.0169 19.0555 22.0436 19.0555C21.6057 19.0555 21.2164 19.2014 20.9244 19.493C17.0802 22.9444 14.5498 27.8055 14.1118 33.2986C14.1118 33.3472 14.1118 33.3472 14.1118 33.3958C14.1118 34.3194 14.8904 35.1458 15.8636 35.1458Z" fill="url(#paint1_linear_66_420)"/>
<path d="M58.7344 44.6249C58.0531 44.6249 57.4692 45.0138 57.1772 45.5485H57.1285C53.187 53.8124 44.7685 59.4999 34.9876 59.4999C21.4597 59.4999 10.4622 48.5138 10.4622 34.9999C10.4622 21.486 21.4597 10.4999 34.9876 10.4999C44.0873 10.4999 52.0677 15.4582 56.3013 22.8471C56.5933 23.4304 57.1772 23.7707 57.8585 23.7707C58.8317 23.7707 59.6103 22.9929 59.6103 22.0207C59.6103 21.6804 59.513 21.3402 59.3183 21.0971L58.7344 20.1249C58.5397 19.8332 58.3451 19.5415 58.1504 19.2013C53.0896 11.8124 44.6226 6.99988 34.9876 6.99988C19.5133 6.99988 6.95862 19.5415 6.95862 34.9999C6.95862 50.4582 19.5133 62.9999 34.9876 62.9999C45.8391 62.9999 55.2307 56.8263 59.9022 47.8332C59.9996 47.6874 60.0482 47.5415 60.1455 47.3957C60.1455 47.3471 60.1942 47.3471 60.1942 47.2985C60.1455 47.4443 60.1942 47.2985 60.2429 47.1526C60.2429 47.104 60.2915 47.0554 60.2915 47.0554C60.3402 46.9096 60.3889 46.8124 60.2915 47.0068C60.3402 46.8124 60.3889 46.6179 60.3889 46.4235C60.4862 45.4027 59.7076 44.6249 58.7344 44.6249Z" fill="url(#paint2_linear_66_420)"/>
<path d="M68.0774 46.375C68.0774 45.4028 67.2988 44.625 66.3255 44.625C65.6443 44.625 65.0603 45.0139 64.7684 45.5486L64.7197 45.6458C60.3402 57.7986 48.7101 66.4514 35.0362 66.4514C17.6154 66.4514 3.50362 52.3542 3.50362 34.9514C3.50362 17.5486 17.6641 3.5 35.0362 3.5C48.0288 3.5 59.1723 11.3264 63.9898 22.5556C64.1844 23.2847 64.8657 23.8194 65.6443 23.8194C66.6175 23.8194 67.3961 23.0417 67.3961 22.0694C67.3961 21.875 67.3474 21.6806 67.2988 21.4861C66.9581 20.5625 67.1528 21.0486 66.7635 20.1736C66.6175 19.9306 66.5202 19.6389 66.3742 19.3958C60.6808 7.875 48.8074 0 35.0362 0C15.669 0 0 15.6528 0 35C0 54.3472 15.669 70 35.0362 70C49.4887 70 61.8974 61.25 67.2501 48.7569C67.6881 47.7361 67.6394 48.0278 67.98 46.9583C68.0287 46.7639 68.0774 46.5694 68.0774 46.375Z" fill="url(#paint3_linear_66_420)"/>
<path d="M42.52 36.98H44.6V38.78C44.6 39.6867 44.98 40.14 45.74 40.14C46.5 40.14 46.88 39.6867 46.88 38.78V35.76H44.86V33.76H46.88V31.22C46.88 30.3 46.5 29.84 45.74 29.84C44.98 29.84 44.6 30.3 44.6 31.22V32.54H42.56V31.36C42.56 30.2267 42.8333 29.36 43.38 28.76C43.9267 28.1467 44.7333 27.84 45.8 27.84C46.8667 27.84 47.68 28.1467 48.24 28.76C48.8 29.36 49.08 30.2267 49.08 31.36V38.64C49.08 39.7733 48.8 40.6467 48.24 41.26C47.68 41.86 46.8667 42.16 45.8 42.16C44.7333 42.16 43.92 41.86 43.36 41.26C42.8 40.6467 42.52 39.7733 42.52 38.64V36.98ZM55.7348 42L53.5948 36.42L52.9148 37.7V42H50.7148V28H52.9148V34.1L55.7948 28H57.9948L54.9348 34.24L57.9948 42H55.7348ZM61.2161 31.22V38.78C61.2161 39.7 61.5961 40.16 62.3561 40.16C63.1161 40.16 63.4961 39.7 63.4961 38.78V31.22C63.4961 30.3 63.1161 29.84 62.3561 29.84C61.5961 29.84 61.2161 30.3 61.2161 31.22ZM59.0161 38.64V31.36C59.0161 30.24 59.3028 29.3733 59.8761 28.76C60.4494 28.1467 61.2761 27.84 62.3561 27.84C63.4361 27.84 64.2628 28.1467 64.8361 28.76C65.4094 29.3733 65.6961 30.24 65.6961 31.36V38.64C65.6961 39.76 65.4094 40.6267 64.8361 41.24C64.2628 41.8533 63.4361 42.16 62.3561 42.16C61.2761 42.16 60.4494 41.8533 59.8761 41.24C59.3028 40.6267 59.0161 39.76 59.0161 38.64ZM70.3658 28L71.9858 37.94L73.4858 28H76.5458V42H74.4658V31.96L72.9458 42H70.8658L69.2258 32.1V42H67.3058V28H70.3658ZM80.3661 31.22V38.78C80.3661 39.7 80.7461 40.16 81.5061 40.16C82.2661 40.16 82.6461 39.7 82.6461 38.78V31.22C82.6461 30.3 82.2661 29.84 81.5061 29.84C80.7461 29.84 80.3661 30.3 80.3661 31.22ZM78.1661 38.64V31.36C78.1661 30.24 78.4528 29.3733 79.0261 28.76C79.5994 28.1467 80.4261 27.84 81.5061 27.84C82.5861 27.84 83.4128 28.1467 83.9861 28.76C84.5594 29.3733 84.8461 30.24 84.8461 31.36V38.64C84.8461 39.76 84.5594 40.6267 83.9861 41.24C83.4128 41.8533 82.5861 42.16 81.5061 42.16C80.4261 42.16 79.5994 41.8533 79.0261 41.24C78.4528 40.6267 78.1661 39.76 78.1661 38.64ZM88.6758 36V42H86.4758V28H88.6758V34H91.1758V28H93.4158V42H91.1758V36H88.6758ZM99.3109 35.58L97.4709 42H95.2109V28H97.1709V36.86L97.9709 33.78L99.7709 28H102.191V42H100.211V32.14L99.3109 35.58ZM103.306 30V28H110.106V30H107.806V42H105.606V30H103.306ZM113.295 31.22V38.78C113.295 39.7 113.675 40.16 114.435 40.16C115.195 40.16 115.575 39.7 115.575 38.78V31.22C115.575 30.3 115.195 29.84 114.435 29.84C113.675 29.84 113.295 30.3 113.295 31.22ZM111.095 38.64V31.36C111.095 30.24 111.382 29.3733 111.955 28.76C112.528 28.1467 113.355 27.84 114.435 27.84C115.515 27.84 116.342 28.1467 116.915 28.76C117.488 29.3733 117.775 30.24 117.775 31.36V38.64C117.775 39.76 117.488 40.6267 116.915 41.24C116.342 41.8533 115.515 42.16 114.435 42.16C113.355 42.16 112.528 41.8533 111.955 41.24C111.382 40.6267 111.095 39.76 111.095 38.64ZM122.645 28C124.831 28 125.925 29.1533 125.925 31.46V33.28C125.925 35.5867 124.831 36.74 122.645 36.74H121.605V42H119.405V28H122.645ZM122.645 30H121.605V34.74H122.645C123.005 34.74 123.271 34.64 123.445 34.44C123.631 34.24 123.725 33.9 123.725 33.42V31.32C123.725 30.84 123.631 30.5 123.445 30.3C123.271 30.1 123.005 30 122.645 30ZM131.244 35.58L129.404 42H127.144V28H129.104V36.86L129.904 33.78L131.704 28H134.124V42H132.144V32.14L131.244 35.58ZM138.079 36V42H135.879V28H138.079V34H140.579V28H142.819V42H140.579V36H138.079ZM146.834 42H144.634V28H150.434V30H146.834V42Z" fill="#212121"/>
<defs>
<linearGradient id="paint0_linear_66_420" x1="-0.269308" y1="49.1386" x2="42.7466" y2="-2.03109" gradientUnits="userSpaceOnUse">
<stop stop-color="#00C095"/>
<stop offset="1" stop-color="#00FEE4"/>
</linearGradient>
<linearGradient id="paint1_linear_66_420" x1="-0.118591" y1="49.5948" x2="42.8974" y2="-1.5745" gradientUnits="userSpaceOnUse">
<stop stop-color="#00C095"/>
<stop offset="1" stop-color="#00FEE4"/>
</linearGradient>
<linearGradient id="paint2_linear_66_420" x1="13.2743" y1="60.8535" x2="56.2903" y2="9.68418" gradientUnits="userSpaceOnUse">
<stop stop-color="#00BF96"/>
<stop offset="1" stop-color="#00FEE4"/>
</linearGradient>
<linearGradient id="paint3_linear_66_420" x1="13.2752" y1="60.8544" x2="56.2912" y2="9.68507" gradientUnits="userSpaceOnUse">
<stop stop-color="#00BF96"/>
<stop offset="1" stop-color="#00FEE4"/>
</linearGradient>
</defs>
</svg>
