<svg width="300" height="300" viewBox="0 0 300 300" fill="none" xmlns="http://www.w3.org/2000/svg">
<g clip-path="url(#clip0_68_1491)">
<rect width="300" height="300" fill="white"/>
<path d="M48.4778 250.515L56.0416 239.232L48.4933 251.729L48.5091 252.999C47.9569 253.003 47.4101 252.994 46.8686 252.971L47.2438 236.65L47.2335 236.524L47.2473 236.5L47.2832 234.958L39 222.894L47.2735 233.804L47.3028 234.13L47.5862 221.798L40.4317 209.29L47.6066 219.632L47.5317 194.085L47.5318 194L47.5343 194.084L48.0092 214.218L54.5297 206.039L48.0306 215.953L48.1729 226.983L54.173 216.218L48.1949 228.604L48.2741 234.737L57 219.742L48.3007 236.877L48.4778 250.515Z" fill="#3F3D56"/>
<path d="M48.8253 57.4794C49.1842 51.2076 51.7856 45.2657 56.1657 40.713C60.5457 36.1602 66.4197 33.2927 72.7403 32.6215C79.0609 31.9503 85.4173 33.5192 90.6762 37.0484C95.9352 40.5776 99.7547 45.8377 101.454 51.8909C101.779 51.8794 102.104 51.8665 102.431 51.8665C108.227 51.8675 113.866 53.7227 118.505 57.1545C123.144 60.5863 126.535 65.4102 128.168 70.9045C132.008 69.2372 136.3 68.8755 140.37 69.876C144.441 70.8765 148.06 73.1827 150.663 76.4336H66.99C64.5489 76.4404 62.1316 75.9604 59.8827 75.0223C57.6339 74.0843 55.5997 72.7075 53.9019 70.9743C52.2042 69.2411 50.8778 67.1872 50.0023 64.9356C49.1267 62.684 48.7199 60.2809 48.8063 57.8703C48.8116 57.7402 48.818 57.6099 48.8253 57.4794Z" fill="#F2F2F2"/>
<path d="M287.884 83.1021C287.521 76.6773 284.892 70.5905 280.466 65.9267C276.04 61.263 270.104 58.3254 263.717 57.6379C257.33 56.9504 250.907 58.5575 245.592 62.1728C240.278 65.7881 236.418 71.1765 234.701 77.3773C234.373 77.3655 234.045 77.3523 233.713 77.3523C227.857 77.3534 222.159 79.2538 217.471 82.7693C212.782 86.2848 209.357 91.2264 207.705 96.8547C203.825 95.1467 199.488 94.7761 195.375 95.801C191.262 96.8259 187.604 99.1884 184.975 102.519H269.528C271.995 102.526 274.437 102.034 276.71 101.073C278.983 100.112 281.038 98.7016 282.754 96.9261C284.469 95.1507 285.81 93.0467 286.694 90.7402C287.579 88.4336 287.99 85.9719 287.903 83.5025C287.898 83.3692 287.891 83.2358 287.884 83.1021Z" fill="#F2F2F2"/>
<path d="M149.444 272.077C232.041 272.077 299 266.887 299 260.484C299 254.081 232.041 248.89 149.444 248.89C66.8462 248.89 -0.112305 254.081 -0.112305 260.484C-0.112305 266.887 66.8462 272.077 149.444 272.077Z" fill="#F03A1F"/>
<path d="M65.3604 268.675V268.584H64.4467V268.493H63.533V268.401H63.0761V268.31H62.6193V268.218H62.1624V268.127H61.797V268.036H61.3401V267.944H60.8832V267.853H60.5178V267.762H60.2437V267.67H59.9695V267.579H59.7868V267.487H59.5127V267.396H59.2386V267.305H58.9645V267.213H58.6904V267.122H58.4162V267.031H58.1421V266.939H57.9594V266.848H57.7767V266.757H57.5939V266.665H57.4112V266.574H57.2284V266.482H57.0457V266.391H56.8629V266.3H56.6802V266.208H56.5888V266.117H56.4061V266.026H56.2234V265.934H56.0406V265.843H55.8579V265.751H55.7665V265.66H55.5838V265.569H55.4924V265.477H55.3096V265.386H55.2183V265.295H55.1269V265.203H54.9442V265.112H54.8528V265.02H54.6701V264.929H54.5787V264.838H54.3959V264.746H54.3046V264.655H54.1218V264.564H54.0305V264.472H53.9391V264.381H53.8477V264.29H53.7563V264.198H53.665V264.107H53.5736V264.015H53.4822V263.924H53.3909V263.833H53.2995V263.741H53.2081V263.65H53.0254V263.559H52.934V263.467H52.8426V263.376H52.7513V263.284H52.6599V263.193H52.5685V263.102H52.4772V263.01H52.3858V262.919H52.2944V262.736H52.203V262.645H52.1117V262.553H52.0203V262.462H51.9289V262.371H51.8376V262.188H51.7462V262.097H51.6548V262.005H51.5635V261.914H51.4721V261.823H51.3807V261.64H51.2893V261.548H51.198V261.457H51.1066V261.274H51.0152V261.183H50.9239V261H50.8325V260.817H50.7411V260.726H50.6497V260.543H50.5584V260.452H50.467V260.269H50.3756V260.178H50.2843V259.995H50.1929V259.904H50.1015V259.721H50.0102V259.538H49.9188V259.264H49.8274V259.081H49.736V258.899H49.6447V258.716H49.5533V258.533H49.4619V258.35H49.3706V258.168H49.2792V257.985H49.1878V257.711H49.0964V257.437H49.0051V257.163H48.9137V256.888H48.8223V256.614H48.731V256.432H48.6396V256.066H48.5482V255.609H48.4569V255.244H48.3655V254.878H48.2741V254.421H48.1827V253.782H48.0914V253.051H48V250.493H48.0914V249.579H48.1827V249.213H48.2741V248.757H48.3655V248.391H48.4569V248.117H48.5482V247.843H48.6396V247.569H48.731V247.386H48.8223V247.203H48.9137V247.02H49.0051V246.838H49.0964V246.564H49.1878V246.381H49.2792V246.107H49.3706V245.833H49.4619V245.467H49.5533V245.102H49.6447V244.645H49.736V243H49.6447V242.635H49.5533V242.361H49.4619V242.086H49.3706V241.904H49.2792V241.721H49.1878V241.538H49.0964V241.447H49.0051V241.264H48.9137V241.173H48.8223V241.081H48.731V240.99H48.6396V240.899H48.5482V240.807H48.4569V240.716H48.3655V240.625H48.2741V240.442H49.4619V240.533H50.467V240.625H50.9239V240.716H51.3807V240.807H51.7462V240.899H52.0203V240.99H52.2944V241.081H52.4772V241.173H52.7513V241.264H52.934V241.355H53.1168V241.447H53.2995V241.538H53.4822V241.63H53.5736V241.721H53.7563V241.812H53.8477V241.904H54.0305V241.995H54.1218V242.086H54.3046V242.178H54.3959V242.269H54.4873V242.361H54.5787V242.452H54.6701V242.543H54.7614V242.635H54.8528V242.726H54.9442V242.817H55.0355V242.909H55.1269V243H55.2183V243.092H55.3096V243.274H55.401V243.366H55.4924V243.457H55.5838V243.548H55.6751V243.731H55.7665V243.823H55.8579V244.005H55.9492V244.188H56.0406V244.279H56.132V244.462H56.2234V244.645H56.3147V244.828H56.4061V245.01H56.4975V245.193H56.5888V245.467H56.6802V245.65H56.7716V245.924H56.8629V246.198H56.9543V246.564H57.0457V246.838H57.1371V247.203H57.2284V247.66H57.3198V248.208H57.4112V248.939H57.5025V251.406H57.6853V251.315H57.7767V251.224H57.868V251.041H57.9594V250.949H58.0508V250.858H58.1421V250.767H58.2335V250.675H58.3249V250.584H58.4162V250.493H58.5076V250.401H58.599V250.218H58.6904V250.036H58.7817V249.944H58.8731V249.762H58.9645V249.579H59.0558V249.487H59.1472V249.305H59.2386V249.122H59.3299V248.848H59.4213V248.482H59.5127V248.208H59.6041V247.843H59.6954V246.29H59.6041V245.741H59.5127V245.193H59.4213V244.919H59.3299V244.645H59.2386V244.371H59.1472V244.097H59.0558V243.823H58.9645V243.64H58.8731V243.366H58.7817V243.183H58.6904V243H58.599V242.817H58.5076V242.543H58.4162V242.361H58.3249V242.178H58.2335V241.995H58.1421V241.812H58.0508V241.63H57.9594V241.538H57.868V241.355H57.7767V241.173H57.6853V240.99H57.5939V240.807H57.5025V240.625H57.4112V240.533H57.3198V240.35H57.2284V240.168H57.1371V240.076H57.0457V239.894H56.9543V239.711H56.8629V239.528H56.7716V239.437H56.6802V239.254H56.5888V239.071H56.4975V238.98H56.4061V238.797H56.3147V238.706H56.2234V238.523H56.132V238.34H56.0406V238.249H55.9492V238.066H55.8579V237.975H55.7665V237.792H55.6751V237.609H55.5838V237.518H55.4924V237.335H55.401V237.244H55.3096V237.061H55.2183V236.878H55.1269V236.787H55.0355V236.604H54.9442V236.513H54.8528V236.33H54.7614V236.239H54.6701V236.056H54.5787V235.873H54.4873V235.782H54.3959V235.599H54.3046V235.508H54.2132V235.325H54.1218V235.142H54.0305V235.051H53.9391V234.868H53.8477V234.685H53.7563V234.594H53.665V234.411H53.5736V234.32H53.4822V234.137H53.3909V233.954H53.2995V233.863H53.2081V233.68H53.1168V233.498H53.0254V233.315H52.934V233.224H52.8426V233.041H52.7513V232.858H52.6599V232.767H52.5685V232.584H52.4772V232.401H52.3858V232.31H52.2944V232.127H52.203V231.944H52.1117V231.762H52.0203V231.579H51.9289V231.396H51.8376V231.305H51.7462V231.122H51.6548V230.939H51.5635V230.757H51.4721V230.574H51.3807V230.391H51.2893V230.208H51.198V230.026H51.1066V229.843H51.0152V229.66H50.9239V229.477H50.8325V229.295H50.7411V229.112H50.6497V228.838H50.5584V228.655H50.467V228.472H50.3756V228.29H50.2843V228.107H50.1929V227.833H50.1015V227.65H50.0102V227.376H49.9188V227.193H49.8274V226.919H49.736V226.736H49.6447V226.462H49.5533V226.188H49.4619V225.914H49.3706V225.64H49.2792V225.183H49.1878V224.817H49.0964V224.361H49.0051V223.081H48.9137V221.894H49.0051V221.254H49.0964V220.523H49.1878V220.066H49.2792V219.792H49.3706V219.518H49.4619V219.244H49.5533V218.97H49.6447V218.696H49.736V218.421H49.8274V218.239H49.9188V218.056H50.0102V217.873H50.1015V217.691H50.1929V217.508H50.2843V217.325H50.3756V217.142H50.467V216.96H50.5584V216.777H50.6497V216.594H50.7411V216.503H50.8325V216.32H50.9239V216.229H51.0152V216.046H51.1066V215.863H51.198V215.772H51.2893V215.589H51.3807V215.498H51.4721V215.315H51.5635V215.224H51.6548V215.041H51.7462V214.949H51.8376V214.858H51.9289V214.767H52.0203V214.675H52.1117V214.493H52.203V214.401H52.2944V214.31H52.3858V214.218H52.4772V214.036H52.5685V213.944H52.6599V213.853H52.7513V213.762H52.8426V213.67H52.934V213.487H53.0254V213.396H53.1168V213.305H53.2081V213.213H53.2995V213.122H53.3909V213.031H53.4822V212.939H53.5736V212.848H53.665V212.757H53.7563V212.665H53.8477V212.574H53.9391V212.482H54.0305V212.391H54.1218V212.3H54.2132V212.208H54.3046V212.117H54.3959V212.026H54.4873V211.934H54.5787V211.843H54.6701V211.751H54.7614V211.66H54.9442V211.569H55.0355V211.477H55.1269V211.386H55.2183V211.295H55.3096V211.203H55.401V211.112H55.4924V211.02H55.5838V210.929H55.7665V210.838H55.8579V210.746H55.9492V210.655H56.0406V210.564H56.2234V210.472H56.3147V210.381H56.4061V210.29H56.4975V210.198H56.5888V210.107H56.7716V210.015H56.8629V209.924H56.9543V209.833H57.1371V209.741H57.2284V209.65H57.3198V209.559H57.5025V209.467H57.5939V209.376H57.7767V209.284H57.868V209.193H57.9594V209.102H58.1421V209.01H58.2335V208.919H58.4162V208.828H58.5076V208.736H58.6904V208.645H58.7817V208.553H58.9645V208.462H59.0558V208.371H59.2386V208.279H59.3299V208.188H59.5127V208.097H59.6041V208.005H59.7868V207.914H59.8782V207.823H60.0609V207.731H60.2437V207.64H60.335V207.548H60.5178V207.457H60.7005V207.366H60.8832V207.274H60.9746V207.183H61.1574V207.092H61.3401V207H61.6142V207.092H61.5228V207.183H61.4315V207.274H61.2487V207.366H61.1574V207.457H61.066V207.548H60.9746V207.64H60.8832V207.731H60.7919V207.823H60.7005V207.914H60.6091V208.005H60.5178V208.097H60.4264V208.188H60.335V208.279H60.2437V208.371H60.1523V208.462H60.0609V208.553H59.9695V208.645H59.8782V208.736H59.7868V208.828H59.6954V208.919H59.6041V209.102H59.5127V209.193H59.4213V209.284H59.3299V209.376H59.2386V209.467H59.1472V209.559H59.0558V209.741H58.9645V209.833H58.8731V209.924H58.7817V210.015H58.6904V210.198H58.599V210.29H58.5076V210.381H58.4162V210.564H58.3249V210.655H58.2335V210.746H58.1421V210.929H58.0508V211.02H57.9594V211.203H57.868V211.295H57.7767V211.477H57.6853V211.569H57.5939V211.751H57.5025V211.934H57.4112V212.026H57.3198V212.208H57.2284V212.391H57.1371V212.574H57.0457V212.757H56.9543V212.848H56.8629V213.031H56.7716V213.213H56.6802V213.396H56.5888V213.67H56.4975V213.853H56.4061V214.036H56.3147V214.31H56.2234V214.493H56.132V214.767H56.0406V215.041H55.9492V215.315H55.8579V215.589H55.7665V215.863H55.6751V216.046H55.5838V216.32H55.4924V216.594H55.401V216.96H55.3096V217.234H55.2183V217.508H55.1269V218.147H55.0355V218.787H54.9442V220.888H55.0355V221.345H55.1269V221.711H55.2183V222.168H55.3096V222.533H55.401V222.807H55.4924V222.99H55.5838V223.173H55.6751V223.447H55.7665V223.63H55.8579V223.812H55.9492V224.086H56.0406V224.269H56.132V224.361H56.2234V224.543H56.3147V224.726H56.4061V224.817H56.4975V225H56.5888V225.183H56.6802V225.274H56.7716V225.457H56.8629V225.548H56.9543V225.731H57.0457V225.823H57.1371V225.914H57.2284V226.005H57.3198V226.188H57.4112V226.279H57.5025V226.371H57.5939V226.462H57.6853V226.645H57.7767V226.736H57.868V226.828H57.9594V226.919H58.0508V227.01H58.1421V227.102H58.2335V227.193H58.3249V227.284H58.4162V227.376H58.5076V227.467H58.599V227.559H58.6904V227.741H58.7817V227.833H58.8731V227.924H58.9645V228.015H59.1472V228.107H59.2386V228.198H59.3299V228.29H59.4213V228.381H59.5127V228.472H59.6041V228.564H59.6954V228.655H59.7868V228.746H59.9695V228.838H60.0609V228.929H60.1523V229.02H60.2437V229.112H60.4264V229.203H60.5178V229.295H60.6091V229.386H60.7005V229.477H60.8832V229.569H60.9746V229.66H61.066V229.751H61.2487V229.843H61.3401V229.934H61.4315V230.026H61.6142V230.117H61.7056V230.208H61.8883V230.3H61.9797V230.391H62.1624V230.482H62.2538V230.574H62.4365V230.665H62.5279V230.757H62.7107V230.848H62.8934V230.939H62.9848V231.031H63.1675V231.122H63.2589V231.213H63.4416V231.305H63.6244V231.396H63.8071V231.487H63.9898V231.579H64.0812V231.67H64.264V231.762H64.4467V231.853H64.6294V231.944H64.8122V232.036H64.9949V232.127H65.1777V232.218H65.3604V232.31H65.4518V232.127H65.3604V231.579H65.269V230.3H65.1777V229.569H65.269V228.929H65.3604V228.29H65.4518V228.015H65.5431V227.741H65.6345V227.376H65.7259V227.102H65.8173V226.919H65.9086V226.645H66V226.462H66.0914V226.279H66.1827V226.097H66.2741V225.823H66.3655V225.731H66.4569V225.548H66.5482V225.366H66.6396V225.183H66.731V225.092H66.8223V224.909H66.9137V224.726H67.0051V224.635H67.0964V224.543H67.1878V224.361H67.2792V224.269H67.3706V224.086H67.4619V223.995H67.5533V223.812H67.6447V223.721H67.736V223.63H67.8274V223.538H67.9188V223.355H68.0102V223.264H68.1015V223.173H68.1929V223.081H68.2843V222.99H68.3756V222.807H68.467V222.716H68.5584V222.625H68.6497V222.533H68.7411V222.442H68.8325V222.35H68.9239V222.259H69.0152V222.168H69.1066V222.076H69.198V221.985H69.2893V221.894H69.3807V221.802H69.4721V221.711H69.5635V221.619H69.6548V221.528H69.7462V221.437H69.8376V221.345H69.9289V221.254H70.0203V221.163H70.1117V221.071H70.203V220.98H70.2944V220.888H70.4772V220.797H70.5685V220.706H70.6599V220.614H70.7513V220.523H70.8426V220.432H70.934V220.34H71.1168V220.249H71.2081V220.158H71.2995V220.066H71.3909V219.975H71.5736V219.883H71.665V219.792H71.7563V219.701H71.9391V219.609H72.0305V219.518H72.1218V219.427H72.3046V219.335H72.3959V219.244H72.5787V219.152H72.6701V219.061H72.8528V218.97H73.0355V219.061H72.9442V219.244H72.8528V219.335H72.7614V219.427H72.6701V219.609H72.5787V219.701H72.4873V219.883H72.3959V219.975H72.3046V220.158H72.2132V220.34H72.1218V220.523H72.0305V220.614H71.9391V220.797H71.8477V220.98H71.7563V221.163H71.665V221.345H71.5736V221.528H71.4822V221.711H71.3909V221.985H71.2995V222.168H71.2081V222.442H71.1168V222.716H71.0254V222.899H70.934V223.264H70.8426V223.538H70.7513V223.904H70.6599V224.269H70.5685V224.726H70.4772V225.183H70.3858V225.914H70.2944V227.01H70.203V228.746H70.2944V230.026H70.3858V230.757H70.4772V231.396H70.5685V231.944H70.6599V232.401H70.7513V232.858H70.8426V233.224H70.934V233.68H71.0254V234.046H71.1168V234.32H71.2081V234.685H71.2995V235.051H71.3909V235.325H71.4822V235.599H71.5736V235.873H71.665V236.147H71.7563V236.421H71.8477V236.696H71.9391V236.97H72.0305V237.244H72.1218V237.518H72.2132V237.701H72.3046V237.975H72.3959V238.158H72.4873V238.432H72.5787V238.614H72.6701V238.888H72.7614V239.071H72.8528V239.345H72.9442V239.528H73.0355V239.711H73.1269V239.894H73.2183V240.168H73.3096V240.35H73.401V240.533H73.4924V240.716H73.5838V240.899H73.6751V241.081H73.7665V241.264H73.8579V241.447H73.9492V241.63H74.0406V241.812H74.132V241.995H74.2234V242.178H74.3147V242.361H74.4061V242.543H74.4975V242.726H74.5888V242.909H74.6802V243.092H74.7716V243.274H74.8629V243.366H74.9543V243.548H75.0457V243.731H75.1371V243.914H75.2284V244.005H75.3198V244.188H75.4112V244.371H75.5025V244.462H75.5939V244.645H75.6853V244.828H75.9594V244.736H76.0508V244.645H76.2335V244.553H76.3249V244.462H76.4162V244.371H76.5076V244.188H76.599V244.097H76.6904V244.005H76.7817V243.823H76.8731V243.64H76.9645V243.457H77.0558V243.092H77.1472V242.726H77.2386V242.178H77.33V240.076H77.2386V239.345H77.1472V238.706H77.0558V238.158H76.9645V237.792H76.8731V237.335H76.7817V236.97H76.6904V236.604H76.599V236.239H76.5076V235.873H76.4162V235.599H76.3249V235.234H76.2335V234.96H76.1421V234.685H76.0508V234.411H75.9594V234.046H76.0508V234.137H76.1421V234.229H76.2335V234.411H76.3249V234.503H76.4162V234.594H76.5076V234.685H76.599V234.868H76.6904V234.96H76.7817V235.051H76.8731V235.234H76.9645V235.325H77.0558V235.416H77.1472V235.599H77.2386V235.691H77.33V235.782H77.4213V235.965H77.5127V236.056H77.6041V236.147H77.6954V236.33H77.7868V236.421H77.8782V236.604H77.9695V236.696H78.0609V236.878H78.1523V236.97H78.2437V237.061H78.335V237.244H78.4264V237.335H78.5178V237.518H78.6091V237.609H78.7005V237.792H78.7919V237.883H78.8833V238.066H78.9746V238.158H79.066V238.34H79.1574V238.432H79.2487V238.614H79.3401V238.706H79.4315V238.888H79.5228V238.98H79.6142V239.163H79.7056V239.254H79.797V239.437H79.8883V239.528H79.9797V239.711H80.0711V239.802H80.1624V239.985H80.2538V240.076H80.3452V240.259H80.4365V240.35H80.5279V240.533H80.6193V240.625H80.7107V240.807H80.802V240.99H80.8934V241.081H80.9848V241.264H81.0761V241.355H81.1675V241.538H81.2589V241.63H81.3503V241.812H81.4416V241.904H81.533V242.086H81.6244V242.269H81.7157V242.361H81.8071V242.543H81.8985V242.635H81.9898V242.817H82.0812V243H82.1726V243.183H82.264V243.274H82.3553V243.457H82.4467V243.731H82.5381V243.914H82.6294V244.097H82.7208V244.279H82.8122V244.553H82.9036V244.736H82.9949V245.01H83.0863V245.284H83.1777V245.559H83.269V245.924H83.3604V246.198H83.4518V246.564H83.5431V247.02H83.6345V247.477H83.7259V248.026H83.8173V248.665H83.9086V249.579H84V253.051H83.9086V253.965H83.8173V254.604H83.7259V255.152H83.6345V255.609H83.5431V256.066H83.4518V256.432H83.3604V256.797H83.269V257.163H83.1777V257.437H83.0863V257.711H82.9949V257.985H82.9036V258.259H82.8122V258.533H82.7208V258.807H82.6294V258.99H82.5381V259.264H82.4467V259.447H82.3553V259.63H82.264V259.812H82.1726V260.086H82.0812V260.269H81.9898V260.452H81.8985V260.635H81.8071V260.817H81.7157V260.909H81.6244V261.092H81.533V261.274H81.4416V261.457H81.3503V261.548H81.2589V261.731H81.1675V261.823H81.0761V262.005H80.9848V262.097H80.8934V262.279H80.802V262.371H80.7107V262.553H80.6193V262.645H80.5279V262.736H80.4365V262.919H80.3452V263.01H80.2538V263.102H80.1624V263.284H80.0711V263.376H79.9797V263.467H79.8883V263.559H79.797V263.65H79.7056V263.741H79.6142V263.833H79.5228V264.015H79.4315V264.107H79.3401V264.198H79.2487V264.29H79.1574V264.381H79.066V264.472H78.9746V264.564H78.8833V264.655H78.7919V264.746H78.6091V264.838H78.5178V264.929H78.4264V265.02H78.335V265.112H78.2437V265.203H78.1523V265.295H77.9695V265.386H77.8782V265.477H77.7868V265.569H77.6954V265.66H77.5127V265.751H77.4213V265.843H77.33V265.934H77.1472V266.026H77.0558V266.117H76.8731V266.208H76.7817V266.3H76.599V266.391H76.4162V266.482H76.3249V266.574H76.1421V266.665H75.9594V266.757H75.7767V266.848H75.5939V266.939H75.4112V267.031H75.3198V267.122H75.0457V267.213H74.8629V267.305H74.6802V267.396H74.4061V267.487H74.2234V267.579H74.0406V267.67H73.6751V267.762H73.401V267.853H73.1269V267.944H72.8528V268.036H72.5787V268.127H72.1218V268.218H71.7563V268.31H71.3909V268.401H70.8426V268.493H70.203V268.584H69.2893V268.675" fill="#F03A1F"/>
<path d="M253.169 143.763C253.169 143.763 253.839 152.804 253.839 153.139C253.839 153.473 249.151 176.577 249.151 176.577C249.151 176.577 242.454 189.301 249.151 188.966C255.848 188.631 253.839 176.912 253.839 176.912L260.87 157.492L257.857 143.763L253.169 143.763Z" fill="#A0616A"/>
<path d="M123.685 259.876V167.407H255.742V259.876H123.685Z" fill="#F2F2F2" stroke="#3F3D56"/>
<path d="M167.795 202.569H134.386V260.891H167.795V202.569Z" fill="#3F3D56"/>
<path d="M149.565 206.068H140.565V214.457H149.565V206.068Z" fill="#F2F2F2"/>
<path d="M161.615 206.068H152.615V214.457H161.615V206.068Z" fill="#F2F2F2"/>
<path d="M149.565 217.508H140.565V226.203H149.565V217.508Z" fill="#F2F2F2"/>
<path d="M161.615 217.508H152.615V226.203H161.615V217.508Z" fill="#F2F2F2"/>
<path d="M163.546 237.78C164.719 237.78 165.67 236.829 165.67 235.656C165.67 234.483 164.719 233.532 163.546 233.532C162.373 233.532 161.422 234.483 161.422 235.656C161.422 236.829 162.373 237.78 163.546 237.78Z" fill="#F2F2F2"/>
<path d="M240.735 200.097H183.903V248.35H240.735V200.097Z" fill="#F2F2F2"/>
<path d="M45.9863 119.877L52 115.067C47.3282 114.552 45.4086 117.1 44.623 119.117C40.9732 117.601 37 119.587 37 119.587L49.0324 123.955C48.4254 122.334 47.3687 120.919 45.9863 119.877Z" fill="#3F3D56"/>
<path d="M273.986 24.8772L280 20.0674C275.328 19.5519 273.409 22.0998 272.623 24.1165C268.973 22.601 265 24.5872 265 24.5872L277.032 28.9554C276.425 27.334 275.369 25.9193 273.986 24.8772Z" fill="#3F3D56"/>
<path d="M163.986 77.8772L170 73.0674C165.328 72.5519 163.409 75.0999 162.623 77.1165C158.973 75.601 155 77.5872 155 77.5872L167.032 81.9554C166.425 80.334 165.369 78.9193 163.986 77.8772Z" fill="#3F3D56"/>
<path d="M76.9557 246.031L92.0833 223.464L76.9866 248.459L77.0182 250.998C76.3898 252.5 75.5499 248.504 74.467 248.459L74.4876 218.301L74.467 218.049L74.4947 218L74.5665 214.916L58 190.787L74.547 212.607L74.6057 213.259L75.1724 188.597L60.8634 163.581L75.2131 184.264L75.0633 133.17L75.0637 133L75.0686 133.167L76.0184 173.436L89.0593 157.079L76.0611 176.905L76.3457 198.965L88.3461 177.436L76.3898 202.208L76.5483 214.475L94 184.484L76.6013 218.754L76.9557 246.031Z" fill="#3F3D56"/>
<path d="M31.9954 21.1785L34 19.0301C32.4427 18.7999 31.8029 19.9379 31.541 20.8387C30.7055 20.4672 29.7951 20.5425 29 21.0489L33.0108 23C32.8085 22.2758 32.4562 21.6439 31.9954 21.1785Z" fill="#3F3D56"/>
<rect x="175" y="197.013" width="60" height="49" fill="#F2F2F2"/>
<path d="M249.574 152.117V152.056H248.964V151.995H248.355V151.934H248.051V151.873H247.746V151.812H247.442V151.751H247.198V151.69H246.893V151.629H246.589V151.568H246.345V151.508H246.162V151.447H245.98V151.386H245.858V151.325H245.675V151.264H245.492V151.203H245.31V151.142H245.127V151.081H244.944V151.02H244.761V150.959H244.64V150.898H244.518V150.838H244.396V150.777H244.274V150.716H244.152V150.655H244.03V150.594H243.909V150.533H243.787V150.472H243.726V150.411H243.604V150.35H243.482V150.289H243.36V150.228H243.239V150.167H243.178V150.107H243.056V150.046H242.995V149.985H242.873V149.924H242.812V149.863H242.751V149.802H242.629V149.741H242.569V149.68H242.447V149.619H242.386V149.558H242.264V149.497H242.203V149.436H242.081V149.376H242.02V149.315H241.959V149.254H241.898V149.193H241.838V149.132H241.777V149.071H241.716V149.01H241.655V148.949H241.594V148.888H241.533V148.827H241.472V148.766H241.35V148.706H241.289V148.645H241.228V148.584H241.168V148.523H241.107V148.462H241.046V148.401H240.985V148.34H240.924V148.279H240.863V148.157H240.802V148.096H240.741V148.035H240.68V147.975H240.619V147.914H240.558V147.792H240.497V147.731H240.437V147.67H240.376V147.609H240.315V147.548H240.254V147.426H240.193V147.365H240.132V147.305H240.071V147.183H240.01V147.122H239.949V147H239.888V146.878H239.827V146.817H239.766V146.695H239.706V146.634H239.645V146.513H239.584V146.452H239.523V146.33H239.462V146.269H239.401V146.147H239.34V146.025H239.279V145.843H239.218V145.721H239.157V145.599H239.096V145.477H239.036V145.355H238.975V145.233H238.914V145.112H238.853V144.99H238.792V144.807H238.731V144.624H238.67V144.442H238.609V144.259H238.548V144.076H238.487V143.954H238.426V143.711H238.365V143.406H238.305V143.162H238.244V142.919H238.183V142.614H238.122V142.188H238.061V141.7H238V139.995H238.061V139.386H238.122V139.142H238.183V138.838H238.244V138.594H238.305V138.411H238.365V138.228H238.426V138.046H238.487V137.924H238.548V137.802H238.609V137.68H238.67V137.558H238.731V137.376H238.792V137.254H238.853V137.071H238.914V136.888H238.975V136.645H239.036V136.401H239.096V136.096H239.157V135H239.096V134.756H239.036V134.574H238.975V134.391H238.914V134.269H238.853V134.147H238.792V134.025H238.731V133.964H238.67V133.843H238.609V133.782H238.548V133.721H238.487V133.66H238.426V133.599H238.365V133.538H238.305V133.477H238.244V133.416H238.183V133.294H238.975V133.355H239.645V133.416H239.949V133.477H240.254V133.538H240.497V133.599H240.68V133.66H240.863V133.721H240.985V133.782H241.168V133.843H241.289V133.904H241.411V133.964H241.533V134.025H241.655V134.086H241.716V134.147H241.838V134.208H241.898V134.269H242.02V134.33H242.081V134.391H242.203V134.452H242.264V134.513H242.325V134.574H242.386V134.634H242.447V134.695H242.508V134.756H242.569V134.817H242.629V134.878H242.69V134.939H242.751V135H242.812V135.061H242.873V135.183H242.934V135.244H242.995V135.305H243.056V135.365H243.117V135.487H243.178V135.548H243.239V135.67H243.299V135.792H243.36V135.853H243.421V135.975H243.482V136.096H243.543V136.218H243.604V136.34H243.665V136.462H243.726V136.645H243.787V136.766H243.848V136.949H243.909V137.132H243.97V137.376H244.03V137.558H244.091V137.802H244.152V138.107H244.213V138.472H244.274V138.959H244.335V140.604H244.457V140.543H244.518V140.482H244.579V140.36H244.64V140.299H244.701V140.239H244.761V140.178H244.822V140.117H244.883V140.056H244.944V139.995H245.005V139.934H245.066V139.812H245.127V139.69H245.188V139.629H245.249V139.508H245.31V139.386H245.371V139.325H245.431V139.203H245.492V139.081H245.553V138.898H245.614V138.655H245.675V138.472H245.736V138.228H245.797V137.193H245.736V136.827H245.675V136.462H245.614V136.279H245.553V136.096H245.492V135.914H245.431V135.731H245.371V135.548H245.31V135.426H245.249V135.244H245.188V135.122H245.127V135H245.066V134.878H245.005V134.695H244.944V134.574H244.883V134.452H244.822V134.33H244.761V134.208H244.701V134.086H244.64V134.025H244.579V133.904H244.518V133.782H244.457V133.66H244.396V133.538H244.335V133.416H244.274V133.355H244.213V133.233H244.152V133.112H244.091V133.051H244.03V132.929H243.97V132.807H243.909V132.685H243.848V132.624H243.787V132.502H243.726V132.381H243.665V132.32H243.604V132.198H243.543V132.137H243.482V132.015H243.421V131.893H243.36V131.832H243.299V131.711H243.239V131.65H243.178V131.528H243.117V131.406H243.056V131.345H242.995V131.223H242.934V131.162H242.873V131.041H242.812V130.919H242.751V130.858H242.69V130.736H242.629V130.675H242.569V130.553H242.508V130.492H242.447V130.371H242.386V130.249H242.325V130.188H242.264V130.066H242.203V130.005H242.142V129.883H242.081V129.761H242.02V129.7H241.959V129.579H241.898V129.457H241.838V129.396H241.777V129.274H241.716V129.213H241.655V129.091H241.594V128.969H241.533V128.909H241.472V128.787H241.411V128.665H241.35V128.543H241.289V128.482H241.228V128.36H241.168V128.239H241.107V128.178H241.046V128.056H240.985V127.934H240.924V127.873H240.863V127.751H240.802V127.629H240.741V127.508H240.68V127.386H240.619V127.264H240.558V127.203H240.497V127.081H240.437V126.959H240.376V126.838H240.315V126.716H240.254V126.594H240.193V126.472H240.132V126.35H240.071V126.228H240.01V126.107H239.949V125.985H239.888V125.863H239.827V125.741H239.766V125.558H239.706V125.436H239.645V125.315H239.584V125.193H239.523V125.071H239.462V124.888H239.401V124.766H239.34V124.584H239.279V124.462H239.218V124.279H239.157V124.157H239.096V123.975H239.036V123.792H238.975V123.609H238.914V123.426H238.853V123.122H238.792V122.878H238.731V122.574H238.67V121.721H238.609V120.929H238.67V120.502H238.731V120.015H238.792V119.711H238.853V119.528H238.914V119.345H238.975V119.162H239.036V118.98H239.096V118.797H239.157V118.614H239.218V118.492H239.279V118.371H239.34V118.249H239.401V118.127H239.462V118.005H239.523V117.883H239.584V117.761H239.645V117.64H239.706V117.518H239.766V117.396H239.827V117.335H239.888V117.213H239.949V117.152H240.01V117.03H240.071V116.909H240.132V116.848H240.193V116.726H240.254V116.665H240.315V116.543H240.376V116.482H240.437V116.36H240.497V116.299H240.558V116.239H240.619V116.178H240.68V116.117H240.741V115.995H240.802V115.934H240.863V115.873H240.924V115.812H240.985V115.69H241.046V115.629H241.107V115.568H241.168V115.508H241.228V115.447H241.289V115.325H241.35V115.264H241.411V115.203H241.472V115.142H241.533V115.081H241.594V115.02H241.655V114.959H241.716V114.898H241.777V114.838H241.838V114.777H241.898V114.716H241.959V114.655H242.02V114.594H242.081V114.533H242.142V114.472H242.203V114.411H242.264V114.35H242.325V114.289H242.386V114.228H242.447V114.167H242.508V114.107H242.629V114.046H242.69V113.985H242.751V113.924H242.812V113.863H242.873V113.802H242.934V113.741H242.995V113.68H243.056V113.619H243.178V113.558H243.239V113.497H243.299V113.436H243.36V113.376H243.482V113.315H243.543V113.254H243.604V113.193H243.665V113.132H243.726V113.071H243.848V113.01H243.909V112.949H243.97V112.888H244.091V112.827H244.152V112.766H244.213V112.706H244.335V112.645H244.396V112.584H244.518V112.523H244.579V112.462H244.64V112.401H244.761V112.34H244.822V112.279H244.944V112.218H245.005V112.157H245.127V112.096H245.188V112.035H245.31V111.975H245.371V111.914H245.492V111.853H245.553V111.792H245.675V111.731H245.736V111.67H245.858V111.609H245.919V111.548H246.041V111.487H246.162V111.426H246.223V111.365H246.345V111.305H246.467V111.244H246.589V111.183H246.65V111.122H246.772V111.061H246.893V111H247.076V111.061H247.015V111.122H246.954V111.183H246.832V111.244H246.772V111.305H246.711V111.365H246.65V111.426H246.589V111.487H246.528V111.548H246.467V111.609H246.406V111.67H246.345V111.731H246.284V111.792H246.223V111.853H246.162V111.914H246.102V111.975H246.041V112.035H245.98V112.096H245.919V112.157H245.858V112.218H245.797V112.279H245.736V112.401H245.675V112.462H245.614V112.523H245.553V112.584H245.492V112.645H245.431V112.706H245.371V112.827H245.31V112.888H245.249V112.949H245.188V113.01H245.127V113.132H245.066V113.193H245.005V113.254H244.944V113.376H244.883V113.436H244.822V113.497H244.761V113.619H244.701V113.68H244.64V113.802H244.579V113.863H244.518V113.985H244.457V114.046H244.396V114.167H244.335V114.289H244.274V114.35H244.213V114.472H244.152V114.594H244.091V114.716H244.03V114.838H243.97V114.898H243.909V115.02H243.848V115.142H243.787V115.264H243.726V115.447H243.665V115.568H243.604V115.69H243.543V115.873H243.482V115.995H243.421V116.178H243.36V116.36H243.299V116.543H243.239V116.726H243.178V116.909H243.117V117.03H243.056V117.213H242.995V117.396H242.934V117.64H242.873V117.822H242.812V118.005H242.751V118.431H242.69V118.858H242.629V120.259H242.69V120.563H242.751V120.807H242.812V121.112H242.873V121.355H242.934V121.538H242.995V121.66H243.056V121.782H243.117V121.964H243.178V122.086H243.239V122.208H243.299V122.391H243.36V122.513H243.421V122.574H243.482V122.695H243.543V122.817H243.604V122.878H243.665V123H243.726V123.122H243.787V123.183H243.848V123.305H243.909V123.365H243.97V123.487H244.03V123.548H244.091V123.609H244.152V123.67H244.213V123.792H244.274V123.853H244.335V123.914H244.396V123.975H244.457V124.096H244.518V124.157H244.579V124.218H244.64V124.279H244.701V124.34H244.761V124.401H244.822V124.462H244.883V124.523H244.944V124.584H245.005V124.645H245.066V124.706H245.127V124.827H245.188V124.888H245.249V124.949H245.31V125.01H245.431V125.071H245.492V125.132H245.553V125.193H245.614V125.254H245.675V125.315H245.736V125.376H245.797V125.436H245.858V125.497H245.98V125.558H246.041V125.619H246.102V125.68H246.162V125.741H246.284V125.802H246.345V125.863H246.406V125.924H246.467V125.985H246.589V126.046H246.65V126.107H246.711V126.167H246.832V126.228H246.893V126.289H246.954V126.35H247.076V126.411H247.137V126.472H247.259V126.533H247.32V126.594H247.442V126.655H247.503V126.716H247.624V126.777H247.685V126.838H247.807V126.898H247.929V126.959H247.99V127.02H248.112V127.081H248.173V127.142H248.294V127.203H248.416V127.264H248.538V127.325H248.66V127.386H248.721V127.447H248.843V127.508H248.964V127.568H249.086V127.629H249.208V127.69H249.33V127.751H249.452V127.812H249.574V127.873H249.635V127.751H249.574V127.386H249.513V126.533H249.452V126.046H249.513V125.619H249.574V125.193H249.635V125.01H249.695V124.827H249.756V124.584H249.817V124.401H249.878V124.279H249.939V124.096H250V123.975H250.061V123.853H250.122V123.731H250.183V123.548H250.244V123.487H250.305V123.365H250.365V123.244H250.426V123.122H250.487V123.061H250.548V122.939H250.609V122.817H250.67V122.756H250.731V122.695H250.792V122.574H250.853V122.513H250.914V122.391H250.975V122.33H251.036V122.208H251.096V122.147H251.157V122.086H251.218V122.025H251.279V121.904H251.34V121.843H251.401V121.782H251.462V121.721H251.523V121.66H251.584V121.538H251.645V121.477H251.706V121.416H251.766V121.355H251.827V121.294H251.888V121.233H251.949V121.173H252.01V121.112H252.071V121.051H252.132V120.99H252.193V120.929H252.254V120.868H252.315V120.807H252.376V120.746H252.437V120.685H252.497V120.624H252.558V120.563H252.619V120.502H252.68V120.442H252.741V120.381H252.802V120.32H252.863V120.259H252.985V120.198H253.046V120.137H253.107V120.076H253.168V120.015H253.228V119.954H253.289V119.893H253.411V119.832H253.472V119.772H253.533V119.711H253.594V119.65H253.716V119.589H253.777V119.528H253.838V119.467H253.959V119.406H254.02V119.345H254.081V119.284H254.203V119.223H254.264V119.162H254.386V119.101H254.447V119.041H254.569V118.98H254.69V119.041H254.629V119.162H254.569V119.223H254.508V119.284H254.447V119.406H254.386V119.467H254.325V119.589H254.264V119.65H254.203V119.772H254.142V119.893H254.081V120.015H254.02V120.076H253.959V120.198H253.898V120.32H253.838V120.442H253.777V120.563H253.716V120.685H253.655V120.807H253.594V120.99H253.533V121.112H253.472V121.294H253.411V121.477H253.35V121.599H253.289V121.843H253.228V122.025H253.168V122.269H253.107V122.513H253.046V122.817H252.985V123.122H252.924V123.609H252.863V124.34H252.802V125.497H252.863V126.35H252.924V126.838H252.985V127.264H253.046V127.629H253.107V127.934H253.168V128.239H253.228V128.482H253.289V128.787H253.35V129.03H253.411V129.213H253.472V129.457H253.533V129.7H253.594V129.883H253.655V130.066H253.716V130.249H253.777V130.431H253.838V130.614H253.898V130.797H253.959V130.98H254.02V131.162H254.081V131.345H254.142V131.467H254.203V131.65H254.264V131.772H254.325V131.954H254.386V132.076H254.447V132.259H254.508V132.381H254.569V132.563H254.629V132.685H254.69V132.807H254.751V132.929H254.812V133.112H254.873V133.233H254.934V133.355H254.995V133.477H255.056V133.599H255.117V133.721H255.178V133.843H255.239V133.964H255.299V134.086H255.36V134.208H255.421V134.33H255.482V134.452H255.543V134.574H255.604V134.695H255.665V134.817H255.726V134.939H255.787V135.061H255.848V135.183H255.909V135.244H255.97V135.365H256.03V135.487H256.091V135.609H256.152V135.67H256.213V135.792H256.274V135.914H256.335V135.975H256.396V136.096H256.457V136.218H256.64V136.157H256.701V136.096H256.822V136.035H256.883V135.975H256.944V135.914H257.005V135.792H257.066V135.731H257.127V135.67H257.188V135.548H257.249V135.426H257.31V135.305H257.371V135.061H257.431V134.817H257.492V134.452H257.553V133.051H257.492V132.563H257.431V132.137H257.371V131.772H257.31V131.528H257.249V131.223H257.188V130.98H257.127V130.736H257.066V130.492H257.005V130.249H256.944V130.066H256.883V129.822H256.822V129.64H256.761V129.457H256.701V129.274H256.64V129.03H256.701V129.091H256.761V129.152H256.822V129.274H256.883V129.335H256.944V129.396H257.005V129.457H257.066V129.579H257.127V129.64H257.188V129.7H257.249V129.822H257.31V129.883H257.371V129.944H257.431V130.066H257.492V130.127H257.553V130.188H257.614V130.31H257.675V130.371H257.736V130.431H257.797V130.553H257.858V130.614H257.919V130.736H257.98V130.797H258.041V130.919H258.102V130.98H258.162V131.041H258.223V131.162H258.284V131.223H258.345V131.345H258.406V131.406H258.467V131.528H258.528V131.589H258.589V131.711H258.65V131.772H258.711V131.893H258.772V131.954H258.832V132.076H258.893V132.137H258.954V132.259H259.015V132.32H259.076V132.442H259.137V132.502H259.198V132.624H259.259V132.685H259.32V132.807H259.381V132.868H259.442V132.99H259.503V133.051H259.563V133.173H259.624V133.233H259.685V133.355H259.746V133.416H259.807V133.538H259.868V133.66H259.929V133.721H259.99V133.843H260.051V133.904H260.112V134.025H260.173V134.086H260.234V134.208H260.294V134.269H260.355V134.391H260.416V134.513H260.477V134.574H260.538V134.695H260.599V134.756H260.66V134.878H260.721V135H260.782V135.122H260.843V135.183H260.904V135.305H260.964V135.487H261.025V135.609H261.086V135.731H261.147V135.853H261.208V136.035H261.269V136.157H261.33V136.34H261.391V136.523H261.452V136.706H261.513V136.949H261.574V137.132H261.635V137.376H261.695V137.68H261.756V137.985H261.817V138.35H261.878V138.777H261.939V139.386H262V141.7H261.939V142.31H261.878V142.736H261.817V143.101H261.756V143.406H261.695V143.711H261.635V143.954H261.574V144.198H261.513V144.442H261.452V144.624H261.391V144.807H261.33V144.99H261.269V145.173H261.208V145.355H261.147V145.538H261.086V145.66H261.025V145.843H260.964V145.964H260.904V146.086H260.843V146.208H260.782V146.391H260.721V146.513H260.66V146.634H260.599V146.756H260.538V146.878H260.477V146.939H260.416V147.061H260.355V147.183H260.294V147.305H260.234V147.365H260.173V147.487H260.112V147.548H260.051V147.67H259.99V147.731H259.929V147.853H259.868V147.914H259.807V148.035H259.746V148.096H259.685V148.157H259.624V148.279H259.563V148.34H259.503V148.401H259.442V148.523H259.381V148.584H259.32V148.645H259.259V148.706H259.198V148.766H259.137V148.827H259.076V148.888H259.015V149.01H258.954V149.071H258.893V149.132H258.832V149.193H258.772V149.254H258.711V149.315H258.65V149.376H258.589V149.436H258.528V149.497H258.406V149.558H258.345V149.619H258.284V149.68H258.223V149.741H258.162V149.802H258.102V149.863H257.98V149.924H257.919V149.985H257.858V150.046H257.797V150.107H257.675V150.167H257.614V150.228H257.553V150.289H257.431V150.35H257.371V150.411H257.249V150.472H257.188V150.533H257.066V150.594H256.944V150.655H256.883V150.716H256.761V150.777H256.64V150.838H256.518V150.898H256.396V150.959H256.274V151.02H256.213V151.081H256.03V151.142H255.909V151.203H255.787V151.264H255.604V151.325H255.482V151.386H255.36V151.447H255.117V151.508H254.934V151.568H254.751V151.629H254.569V151.69H254.386V151.751H254.081V151.812H253.838V151.873H253.594V151.934H253.228V151.995H252.802V152.056H252.193V152.117" fill="#F03A1F"/>
<rect x="181.5" y="199.5" width="63" height="52" stroke="#3F3D56" stroke-width="3"/>
<path d="M269.116 184.504H108.249L118.975 162.079L121.375 157.058L124.515 150.492L126.916 145.471L129.699 139.654H256.442L258.085 145.471L259.504 150.492L261.36 157.058L262.78 162.079L269.116 184.504Z" fill="#1A3D8A"/>
<path d="M257.742 150.188H122.753L125.153 145.167H256.322L257.742 150.188Z" fill="#F2F2F2"/>
<path d="M262.454 161.827H118.649L121.05 156.806H261.035L262.454 161.827Z" fill="#F2F2F2"/>
<path d="M111.074 190.881C111.074 190.881 121.31 198.025 101.422 212.007C89.292 220.534 90.7193 248.11 115.551 262.575C115.551 262.575 131.184 261.224 124.833 272C124.833 272 142.265 256.377 141.767 239.504C141.392 226.78 123.299 225.989 134.025 213.032C134.025 213.032 118.185 220.676 130.403 233.628C130.403 233.628 115.937 225.714 130.288 209.569C146.1 191.78 122.873 186 122.873 186C122.873 186 138.997 192.152 123.797 202.032C114.421 207.812 112.502 216.015 116.338 222.82C116.338 222.82 108.598 218.812 115.551 204.848C120.387 195.135 111.074 190.881 111.074 190.881Z" fill="#F03A1F"/>
</g>
<defs>
<clipPath id="clip0_68_1491">
<rect width="300" height="300" fill="white"/>
</clipPath>
</defs>
</svg>
