<svg width="441" height="486" viewBox="0 0 441 486" fill="none" xmlns="http://www.w3.org/2000/svg">
<path d="M367.068 289.216C367.068 388.565 284.899 469.099 183.534 469.099C82.1689 469.099 0 388.565 0 289.216C0 189.867 82.1689 109.333 183.534 109.333C284.899 109.333 367.068 189.867 367.068 289.216Z" fill="url(#paint0_radial_66_277)"/>
<path d="M367.068 289.216C367.068 388.565 284.899 469.099 183.534 469.099C82.1689 469.099 0 388.565 0 289.216C0 189.867 82.1689 109.333 183.534 109.333C284.899 109.333 367.068 189.867 367.068 289.216Z" fill="url(#paint1_radial_66_277)"/>
<path d="M359.251 338.593C356.818 338.678 353.691 339.785 353.605 340.551C353.605 341.402 350.217 342.849 349.088 343.275C347.959 343.701 345.874 347.021 345.353 348.127C344.919 349.234 342.139 348.894 341.184 349.319C340.228 349.745 338.144 351.362 338.057 352.384C338.057 353.321 337.449 353.235 336.841 352.129C336.841 352.129 336.841 352.129 335.538 353.491C333.974 355.193 333.974 355.193 333.974 355.193C333.106 358.003 330.066 361.493 329.023 361.749C327.981 362.004 327.807 366.856 327.807 368.815C327.807 370.773 328.589 373.156 329.545 374.178C329.545 374.178 329.545 374.178 329.718 375.71C330.066 378.775 330.066 378.775 330.066 378.775C329.545 381.159 331.369 383.287 331.89 383.713C332.411 384.138 336.928 382.946 338.665 382.521C339.36 382.35 340.315 381.925 341.184 381.499C349.349 368.133 355.689 353.746 360.119 338.422C359.945 338.593 359.598 338.593 359.251 338.593ZM55.6772 343.19C55.4166 343.701 58.7173 347.021 60.0202 348.127C61.323 349.234 64.0157 354.683 64.5368 356.47C65.058 358.258 64.7974 361.153 64.6237 361.834C64.45 362.515 65.2317 364.047 65.4054 364.643C65.4923 365.239 64.2763 370.602 64.7106 372.731C65.1449 374.859 62.1916 381.499 62.1916 384.819C62.2785 388.139 63.7551 392.396 64.45 392.141C65.058 391.8 65.3186 395.12 64.2763 395.546C63.234 395.972 62.0179 398.611 62.6259 398.696C63.234 398.866 62.6259 401.42 62.7128 402.442C62.8865 403.463 63.7551 410.359 63.9288 412.061C64.1025 413.764 66.6215 417.936 67.1426 419.383C67.6638 420.83 68.1849 423.469 68.3587 423.895C68.5324 424.32 68.7929 424.746 68.8798 424.746C68.9667 424.746 70.9644 425.512 71.4856 425.938C72.0936 426.364 76.0023 426.108 77.3052 425.853C78.608 425.597 77.392 424.406 76.8709 423.81C76.2628 423.214 75.7417 420.149 75.1337 419.808C74.4388 419.553 74.1782 415.637 74.7862 414.786C75.3943 413.934 77.7395 412.572 78 411.806C78.2606 411.125 78.3475 407.72 77.6526 407.209C77.0446 406.783 77.8263 402.612 77.392 400.569C76.9577 398.526 81.0401 396.653 81.2138 395.035C81.4744 393.418 85.9042 391.715 86.8597 390.864C87.8151 390.012 88.6837 385.415 88.2494 384.394C87.7283 383.372 89.8998 382.606 90.8552 382.606C91.8107 382.606 92.853 381.925 93.2004 381.925C93.5479 381.925 94.677 379.882 95.285 379.371C95.8931 378.86 97.1091 374.008 98.2383 373.241C99.3674 372.475 100.236 369.496 100.236 368.644C100.236 367.793 101.886 365.239 102.494 364.473C103.016 363.707 107.185 361.834 107.88 361.578C108.575 361.238 109.704 354.768 110.051 352.469C110.312 350.171 111.615 347.021 111.701 346.255C111.788 345.488 113.091 344.807 113.352 344.552C113.612 344.297 114.568 341.317 115.263 340.636C115.871 339.955 118.216 337.145 118.216 336.464C118.303 335.869 118.65 334.251 118.998 332.889C118.998 332.889 118.998 332.889 118.998 331.271C118.998 328.717 118.998 328.717 118.998 328.717C118.303 326.759 116.044 324.291 115.523 324.887C114.915 325.397 112.396 323.184 111.093 322.673C109.791 322.247 106.577 321.822 105.708 321.822C104.926 321.822 102.06 319.523 100.757 319.098C99.4543 318.757 96.2405 318.076 95.6325 317.735C95.0245 317.395 94.2427 312.628 91.6369 311.095C89.0312 309.563 84.4276 305.902 83.9065 304.625C83.3853 303.348 78.3475 300.539 76.784 299.687C75.2205 298.836 72.8753 298.666 72.6148 298.921C72.2673 299.177 70.3564 296.367 69.401 295.516C68.3587 294.75 65.4054 294.069 65.2317 294.75C65.058 295.516 63.0602 295.09 62.6259 294.494C62.1916 293.899 60.6282 294.75 59.8464 295.005C59.1516 295.261 56.6326 299.006 55.5035 299.858C54.3743 300.709 52.9846 299.006 52.2028 298.666C51.4211 298.325 48.5547 299.262 47.773 299.773C46.9913 300.283 45.1672 295.771 45.6015 293.728C46.0358 291.685 43.6906 287.514 41.8666 287.429C40.1294 287.343 39.5214 283.002 39.8688 281.384C40.2162 279.767 36.655 278.83 35.6995 278.66C34.7441 278.575 32.5726 280.788 32.1383 281.895C31.7909 283.002 23.6261 280.448 24.5816 275.68C25.537 270.913 29.3588 265.975 30.3143 265.379C31.2697 264.783 36.4813 264.528 37.6973 265.124C38.8265 265.805 39.8688 265.124 40.1294 264.783C40.3031 264.528 44.5592 264.869 45.8621 265.379C47.165 265.89 48.989 270.743 50.2919 271.339C51.5948 271.935 52.116 268.189 52.2897 267.337C52.5503 266.401 51.6817 264.102 51.3342 263.506C50.9868 262.825 53.4188 257.036 55.4166 256.015C57.4144 254.993 59.499 251.758 59.3253 251.162C59.1516 250.566 60.8887 250.141 61.4099 249.885C61.9311 249.63 61.323 244.948 62.1048 243.926C62.8865 242.905 66.6215 240.776 67.8375 240.265C69.0535 239.755 69.9221 236.775 69.4878 236.264C69.0535 235.754 72.5279 232.774 74.3519 232.263C76.176 231.752 77.7395 233.285 77.3052 233.54C77.6526 233.37 80.1715 232.093 81.2138 231.412C82.4299 230.646 81.2138 228.347 80.4321 227.751C79.6504 227.155 80.0847 224.516 81.0401 224.346C81.9956 224.09 82.8642 221.877 82.6036 221.451C82.343 220.941 86.5991 221.877 88.2494 220.685C89.8129 219.493 88.6837 223.495 87.5546 225.112C86.4254 226.73 88.4232 228.262 89.2049 227.921C89.9866 227.581 90.7683 228.773 90.9421 229.198C91.1158 229.624 92.7661 228.688 93.8084 229.198C94.8507 229.624 95.5456 227.751 95.6325 226.9C95.7193 226.048 93.0267 224.176 92.6793 223.154C92.245 222.132 92.0712 216.003 92.0712 214.726C91.9844 213.449 90.3341 211.406 89.726 211.831C89.2049 212.172 88.0757 208.596 87.2071 207.83C86.3385 207.064 86.0779 205.361 86.1648 204.766C86.1648 204.17 83.1247 201.02 82.4299 199.572C81.735 198.125 80.6927 198.381 80.6058 199.062C80.519 199.743 78.4343 199.828 77.5657 199.743C76.6972 199.658 76.0023 196.337 76.0023 195.146C76.0023 193.869 72.0936 193.698 71.3987 192.677C70.7907 191.655 68.1849 192.166 67.7506 191.485C67.3163 190.804 65.058 190.123 64.6237 190.378C64.1894 190.634 64.3631 199.573 63.9288 202.041C63.4945 204.425 61.4099 206.553 60.6282 206.553C59.8464 206.468 60.3676 208.256 60.8887 208.086C61.4099 207.915 59.4121 210.725 59.1516 212.598C58.891 214.471 56.9801 212.513 56.7195 210.895C56.3721 209.192 54.548 206.979 54.2006 207.575C53.8531 208.171 52.5503 206.894 52.0291 207.234C51.5079 207.575 47.9467 205.276 46.557 204.51C45.1672 203.744 44.3855 199.487 43.5169 199.147C42.6483 198.721 43.3432 198.296 43.3432 197.614C43.3432 196.933 46.1227 194.465 46.9044 193.528C47.773 192.507 50.8131 188.676 51.9422 187.824C53.1583 186.973 54.1137 184.76 53.8531 184.334C53.6794 183.908 58.9778 182.291 60.4545 181.78C61.9311 181.269 63.1471 177.353 63.3208 176.161C63.4945 175.055 62.3654 172.841 61.7573 172.586C61.0625 172.33 63.7551 172.245 64.7106 172.671C65.5792 173.097 68.3587 171.905 69.4878 172.415C70.5301 173.011 72.7885 174.288 74.3519 175.225C74.3519 175.225 74.3519 175.225 74.0045 178.119C73.3096 183.057 73.3096 183.057 73.3096 183.057C69.0535 184.76 67.8375 187.739 69.3141 187.654C70.7907 187.569 77.5657 190.549 79.4766 191.826C81.3876 193.188 81.9956 189.867 82.5167 188.761C83.1247 187.654 82.8642 184.504 82.4299 183.908C81.9956 183.312 84.6013 183.483 85.3831 184.164C86.1648 184.845 87.0334 183.397 87.5546 183.227C88.1626 182.972 88.4231 180.248 88.7706 179.737C89.0312 179.141 87.4677 178.63 87.4677 177.949C87.3808 177.268 84.3408 175.991 83.3853 175.48C82.4299 175.055 82.1693 172.926 82.6904 172.586C83.2116 172.245 82.343 169.606 81.8218 168.755C81.3875 167.903 78.1738 167.222 77.1314 167.222C76.0891 167.222 74.96 164.839 74.3519 164.498C73.7439 164.158 69.6615 163.732 68.7061 163.987C67.6638 164.243 65.8397 161.178 64.1894 162.115C62.4522 163.051 60.715 161.008 59.9333 160.582C59.1516 160.156 55.156 164.328 55.2429 167.308C55.3298 170.287 56.8064 173.097 57.4144 173.182C58.0224 173.267 57.2407 175.906 56.5458 176.672C55.8509 177.438 54.2006 175.906 54.8086 175.225C55.4166 174.544 53.0714 171.479 52.2897 170.202C51.6817 169.266 49.6839 168.499 48.2073 167.903C47.3387 168.755 46.557 169.691 45.7752 170.543C46.1227 171.649 46.4701 173.011 46.1227 174.033C45.5146 175.821 44.038 176.076 43.9512 175.31C43.9512 174.969 43.1694 174.714 42.214 174.629C19.8043 200.509 4.95135 232.944 0.782104 268.529C1.6507 269.551 2.69301 270.743 2.95359 271.509C3.47474 273.126 6.25424 274.148 6.7754 274.488C7.29655 274.829 7.47027 271.424 7.12284 270.572C6.7754 269.721 7.81771 269.21 7.81771 269.806C7.81771 270.487 10.4235 273.382 11.3789 274.488C12.2475 275.51 13.203 282.406 13.9847 283.938C14.8533 285.385 22.9312 288.45 25.537 289.046C28.1428 289.557 31.4434 292.451 31.9646 293.303C32.4858 294.154 35.9601 294.58 36.655 294.835C37.4367 295.176 39.1739 297.474 39.9557 297.985C40.6505 298.496 41.2585 299.858 41.2585 300.198C41.2585 300.539 45.8621 302.241 46.9044 303.433C48.0336 304.625 49.8576 304.285 50.2051 303.774C50.5525 303.263 51.4211 306.158 51.9422 307.179C52.3765 308.201 52.5503 310.669 52.2028 311.01C51.8554 311.351 51.1605 315.863 50.3788 316.799C49.597 317.735 47.9467 324.291 48.2941 325.568C48.6416 326.845 50.8131 329.569 51.6817 329.909C52.6371 330.335 52.2028 331.697 51.5079 331.782C50.8131 331.867 51.0737 338.167 52.8108 339.018C54.4612 339.955 55.9378 342.679 55.6772 343.19ZM77.3052 233.455C77.2183 233.455 77.2183 233.455 77.3052 233.455V233.455ZM64.7106 157.432C66.882 157.092 70.5301 156.496 70.7907 155.9C70.9644 155.389 70.9644 153.942 70.617 153.431C70.9644 153.431 71.3987 153.431 71.6593 153.431C72.5279 153.431 73.9176 148.919 74.7862 147.897C75.6548 146.876 80.6927 145.344 81.9087 144.577C83.1247 143.896 85.7305 141.427 86.7728 141.087C87.8151 140.746 89.2917 138.448 89.0312 138.022C88.7706 137.597 92.4187 135.383 93.8084 134.872C95.1982 134.276 95.8931 132.744 95.3719 132.659C95.0245 132.574 87.3808 136.575 80.3452 140.491C72.3542 145.854 64.7974 151.814 57.675 158.284C59.8464 158.028 63.3208 157.603 64.7106 157.432ZM197.692 381.755C200.037 380.392 204.033 374.603 205.336 373.412C206.639 372.22 207.594 367.793 207.855 366.856C208.115 365.92 210.113 364.303 210.895 364.132C211.59 363.962 214.022 354.172 216.106 352.044C218.191 349.915 220.623 339.614 220.362 335.954C220.102 332.293 221.752 325.227 222.186 323.524C222.708 321.822 225.313 318.842 226.095 318.246C226.877 317.65 231.915 310.329 233.565 307.69C235.215 305.051 236.692 299.262 236.431 297.9C236.084 296.538 232.61 295.601 231.915 296.282C231.22 296.963 227.919 297.474 226.877 297.474C225.835 297.474 223.403 291.941 221.839 290.749C220.362 289.642 218.973 283.257 218.104 282.065C217.236 280.873 214.803 277.809 214.022 277.128C213.24 276.447 213.153 273.041 212.979 272.105C212.806 271.168 214.456 272.701 214.717 274.063C214.977 275.425 218.886 280.873 220.102 282.661C221.318 284.534 224.532 290.323 225.313 292.111C226.095 293.899 233.218 293.047 235.476 291.94C237.734 290.834 240.601 289.046 240.774 288.45C240.861 287.854 244.509 286.152 245.552 285.385C246.594 284.619 247.463 280.448 248.157 279.767C248.852 279.086 247.636 275.084 246.855 273.893C246.073 272.701 242.425 271.764 241.73 272.19C240.948 272.616 239.385 269.551 238.863 268.359C238.342 267.167 235.476 265.805 235.215 265.039C234.955 264.273 235.997 262.996 236.431 262.74C236.866 262.485 242.077 266.06 243.554 267.763C245.031 269.551 246.768 272.786 247.028 273.382C247.289 273.978 251.371 274.233 252.327 273.552C253.195 272.871 254.324 273.041 254.672 273.893C254.672 273.893 254.672 273.893 255.975 273.637C260.491 272.956 260.491 272.956 260.491 272.956C262.576 275.17 263.184 277.128 263.184 277.638C263.184 278.064 264.487 279.937 265.356 280.107C266.224 280.277 266.832 283.172 267.093 283.853C267.353 284.534 269.872 288.876 270.393 290.664C270.915 292.451 273.086 296.027 273.607 296.963C274.128 297.9 274.563 300.624 274.563 301.39C274.563 302.156 276.213 303.604 277.255 303.518C278.298 303.433 280.295 297.134 280.817 294.835C281.251 292.536 282.901 290.578 283.422 290.578C283.857 290.578 284.291 289.301 284.291 288.791C284.291 288.28 286.897 288.365 287.157 287.684C287.418 287.003 288.113 282.917 289.068 282.235C290.024 281.64 293.237 279.511 294.453 279.086C295.583 278.66 298.536 281.214 299.231 282.321C299.926 283.512 300.447 286.407 300.186 286.918C299.926 287.429 301.75 289.982 303.313 289.897C304.877 289.812 305.398 291.855 305.398 292.536C305.485 293.217 307.569 295.346 307.917 296.197C308.351 297.134 308.177 299.602 307.917 300.198C307.656 300.794 307.83 304.029 308.09 304.966C308.351 305.902 313.215 310.669 315.039 312.117C316.863 313.564 317.732 309.137 316.776 307.775C315.821 306.413 312.694 303.178 311.999 302.241C311.217 301.305 311.13 297.474 311.391 296.367C311.652 295.261 314.171 296.963 315.213 297.729C316.255 298.496 317.558 300.198 317.645 300.794C317.645 301.39 324.159 297.815 324.333 293.984C324.594 290.153 326.678 285.811 326.939 284.789C327.113 283.768 326.331 282.406 325.723 282.321C325.202 282.235 326.678 279.341 328.502 279.426C330.326 279.511 334.669 274.744 335.712 272.786C336.754 270.913 338.839 269.381 339.099 269.125C339.36 268.87 340.836 264.443 341.097 262.57C341.358 260.697 340.055 257.803 339.881 256.866C339.707 255.93 338.144 253.716 337.709 253.035C337.275 252.354 336.928 249.715 337.188 249.289C337.449 248.779 339.099 248.268 339.186 247.842C339.36 247.417 341.271 245.459 341.097 244.607C340.923 243.756 342.226 245.714 343.095 246.395C343.963 247.076 344.919 251.673 345.961 252.184C347.003 252.695 351.259 247.331 350.738 243.841C350.217 240.351 351.954 235.924 352.997 235.498C353.778 235.243 355.776 232.433 357.166 230.39C347.698 203.659 332.064 179.822 311.912 160.412C311.652 160.412 311.478 160.412 311.217 160.412C309.654 160.071 309.654 160.071 309.654 160.071C307.048 159.561 305.485 156.751 305.919 156.155C306.093 155.985 306.006 155.474 305.919 154.963C304.442 153.686 302.966 152.409 301.402 151.133C300.186 151.133 298.883 151.133 298.102 151.133C296.538 151.047 293.064 149.941 292.456 149.345C291.848 148.749 289.763 149.856 289.676 150.962C289.503 152.069 285.941 152.58 285.594 153.431C285.246 154.282 283.335 154.368 282.988 153.857C282.641 153.346 279.253 155.049 277.603 155.219C275.952 155.474 272.826 156.751 272.131 157.092C271.349 157.432 269.612 159.135 269.351 159.816C269.091 160.497 266.919 161.689 266.224 161.944C265.529 162.2 265.703 165.264 266.572 165.69C267.44 166.116 264.921 165.35 263.792 164.754C262.663 164.243 261.447 166.031 261.099 166.712C260.752 167.308 259.71 166.286 259.797 165.435C259.797 164.498 257.017 163.817 256.67 164.498C256.322 165.264 254.324 164.243 253.543 163.817C252.761 163.391 249.287 166.967 247.984 168.244C246.681 169.521 240.601 170.457 239.385 170.032C238.255 169.521 237.126 172.671 238.082 172.926C239.037 173.097 235.563 172.756 233.652 172.926C231.741 173.097 226.182 175.31 224.879 176.246C223.576 177.183 222.447 175.991 222.447 175.31C222.447 174.544 220.362 173.863 219.668 173.692C219.06 173.522 217.844 177.779 216.714 178.545C215.585 179.396 214.282 175.225 211.677 174.544C209.071 173.863 205.075 171.394 203.859 171.138C202.73 170.798 200.385 168.499 199.777 167.818C199.082 167.137 195.781 166.541 194.739 166.541C193.697 166.541 190.222 168.499 189.354 169.18C188.398 169.947 187.008 169.776 186.574 170.032C186.14 170.287 182.231 174.033 180.755 175.225C179.278 176.417 176.585 181.439 175.804 182.631C174.935 183.823 173.719 184.079 173.198 184.079C172.677 184.079 172.242 185.441 172.242 185.951C172.242 186.462 167.813 188.676 167.291 190.719C166.857 192.677 167.726 197.189 167.726 198.806C167.726 200.424 169.376 203.574 170.592 203.659C171.808 203.744 171.2 206.383 170.853 207.149C170.505 207.915 171.634 208.682 171.634 209.363C171.634 210.044 168.507 210.895 167.552 211.236C166.597 211.576 165.033 213.704 164.859 214.471C164.686 215.152 161.732 215.662 160.777 216.599C161.038 215.918 161.385 214.981 161.646 214.471C162.254 213.449 161.385 211.576 160.951 211.236C160.516 210.81 160.256 205.617 159.474 204.51C158.692 203.403 156.868 201.445 156.347 201.105C155.913 200.764 156.695 199.317 156.955 198.806C157.216 198.21 154.436 197.87 153.741 198.296C152.96 198.721 152.612 203.914 152.265 205.361C151.917 206.809 153.654 208.937 154.089 209.022C154.523 209.107 154.436 211.661 153.481 211.746C152.525 211.831 151.657 215.577 152.091 216.429C152.612 217.28 151.396 218.983 150.788 219.323C150.18 219.664 154.523 219.493 156.434 219.408C158.432 219.323 159.908 220.26 159.735 220.345C159.561 220.515 156 221.026 155.305 221.877C154.697 222.728 152.265 224.261 151.83 224.942C151.396 225.538 152.612 226.985 153.654 226.9C154.697 226.815 155.826 230.39 156.608 230.986C157.389 231.667 157.129 233.455 156.781 233.966C156.434 234.477 151.657 233.625 149.833 234.051C148.009 234.477 145.663 238.307 145.577 239.67C145.403 241.117 145.837 245.203 146.098 246.31C146.358 247.417 150.093 248.183 150.875 248.694C151.657 249.204 155.305 248.694 156.087 249.034C156.781 249.375 159.3 245.373 159.822 243.586C160.256 241.713 164.164 238.393 165.033 237.116C165.815 235.839 170.071 236.009 171.026 235.328C172.069 234.647 171.461 238.478 171.982 240.521C172.503 242.564 176.499 242.309 175.89 240.351C175.282 238.393 176.325 237.541 176.412 238.307C176.585 238.989 180.407 240.521 181.189 241.628C181.884 242.734 181.71 245.033 180.841 245.033C179.973 245.033 179.973 247.587 180.841 247.842C181.71 248.098 182.926 244.948 183.968 244.522C184.924 244.011 185.706 242.053 185.271 241.883C184.837 241.713 186.14 239.925 186.661 240.521C187.182 241.117 184.576 236.69 182.926 235.072C181.276 233.455 182.405 234.136 185.532 236.69C185.532 236.69 185.532 236.69 187.617 239.584C188.051 240.095 188.572 241.713 188.919 242.309C189.441 243.16 189.441 243.16 189.441 243.16C189.875 244.182 190.222 246.991 190.222 247.757C190.222 248.523 191.873 249.971 192.915 249.885C193.957 249.8 194.652 250.396 194.478 250.396C194.305 250.396 195.173 252.354 196.129 252.439C197.084 252.439 197.518 249.971 196.563 249.885C195.521 249.8 195.694 246.14 195.608 244.607C195.521 242.99 196.302 241.713 196.65 241.713C196.997 241.713 196.563 244.948 196.65 245.714C196.65 246.48 197.084 247.927 197.518 249.034C197.518 249.034 197.518 249.034 198.561 249.8C200.906 251.588 200.906 251.588 200.906 251.588C204.207 250.652 208.723 251.333 208.55 252.014C208.376 252.695 210.982 252.865 211.155 251.758C211.329 250.652 211.416 251.758 211.416 252.524C211.416 253.291 209.244 256.185 208.897 257.547C208.55 258.909 200.819 257.973 197.518 257.718C194.218 257.462 189.354 258.569 188.919 259.505C188.572 260.442 183.36 257.292 181.015 256.27C178.67 255.249 176.759 251.758 176.325 251.333C175.804 250.907 176.759 249.715 176.499 249.034C176.238 248.353 170.853 248.183 169.289 248.779C167.726 249.375 159.648 250.226 157.65 250.992C155.739 251.843 152.873 250.907 151.917 250.822C151.049 250.652 148.877 253.291 147.835 253.716C146.706 254.142 145.316 257.888 144.795 261.889C144.795 261.889 144.795 261.889 143.318 264.698C142.363 266.486 142.363 266.486 142.363 266.486C139.67 268.444 136.717 275.17 135.848 276.447C134.98 277.809 134.285 287.343 134.285 290.578C134.285 293.813 137.151 300.624 137.933 302.497C138.715 304.37 143.666 308.541 145.403 309.563C147.053 310.499 152.438 310.669 154.263 310.669C156 310.669 157.997 309.052 158.692 307.009C158.692 307.009 158.692 307.009 161.298 307.264C162.514 307.349 162.514 307.349 162.514 307.349C162.601 308.797 166.423 309.903 167.378 310.414C168.334 310.925 170.853 310.499 171.548 310.329C172.329 310.159 173.111 316.714 172.59 318.672C172.069 320.545 173.893 327.27 174.501 329.313C175.022 331.357 177.367 336.89 177.628 338.848C177.888 340.806 176.238 347.446 175.977 349.745C175.717 352.044 178.931 358.514 179.799 360.727C180.668 362.94 181.276 367.708 181.276 368.815C181.276 369.921 184.75 376.647 185.532 379.371C186.574 382.436 195.347 383.117 197.692 381.755ZM349.349 299.858C349.609 300.369 351.781 298.666 353.083 298.411C354.386 298.24 355.255 294.75 354.213 294.494C353.17 294.239 351.867 291.515 351.086 291.174C350.304 290.834 348.914 292.366 348.914 293.388C349.001 294.409 346.482 294.835 346.048 295.771C345.614 296.623 345.614 297.304 346.135 297.219C346.656 297.134 349.088 299.432 349.349 299.858ZM346.569 318.842C347.264 318.587 346.482 315.181 345.092 314.841C343.703 314.586 339.881 319.353 340.663 322.162C341.358 324.886 342.226 324.716 342.574 324.205C343.008 323.61 345.266 324.546 345.874 324.801C346.569 324.972 346.569 324.376 345.874 323.354C345.266 322.247 345.961 319.098 346.569 318.842ZM339.099 315.437C339.273 314.245 339.533 310.329 339.707 309.563C339.881 308.797 337.536 306.583 336.406 306.158C335.277 305.732 331.542 313.649 328.937 315.011C326.244 316.373 325.288 321.226 325.983 322.333C326.678 323.439 332.237 324.035 333.193 324.887C334.148 325.738 335.277 324.716 335.798 324.631C336.406 324.461 336.233 324.12 335.972 323.95C335.712 323.78 337.883 321.566 338.231 320.119C338.578 318.842 338.925 316.714 339.099 315.437ZM323.986 328.632C321.901 327.866 319.469 329.058 319.295 329.824C319.122 330.59 327.286 331.867 330.066 332.633C332.758 333.4 334.496 333.57 333.888 333.144C333.193 332.633 326.07 329.398 323.986 328.632ZM340.663 276.191C341.358 275.34 339.707 271.083 338.925 272.02C338.144 272.956 338.752 275.425 338.925 276.276C339.273 277.128 339.968 277.042 340.663 276.191ZM345.614 285.215C346.048 284.108 345.006 282.917 343.268 282.576C341.444 282.235 341.705 287.428 342.574 288.11C343.268 288.791 345.179 286.322 345.614 285.215ZM354.908 317.735C357.079 319.183 361.769 318.502 361.943 315.692C359.859 314.33 354.734 314.586 354.908 317.735ZM353.778 253.376C352.91 253.972 352.389 255.504 352.736 256.185C352.649 256.185 352.475 256.185 352.389 256.185C351.694 256.185 351.607 258.909 352.389 259.42C353.084 259.846 354.908 257.292 355.863 256.611C356.818 256.015 358.642 255.589 358.99 255.845C359.251 256.015 360.901 255.589 362.638 254.738C362.985 254.568 363.333 254.142 363.68 253.546C363.246 251.503 362.812 249.545 362.291 247.587C361.422 248.268 360.38 248.949 359.945 249.289C358.816 250.141 354.908 252.61 353.778 253.376ZM305.137 308.711C304.703 308.456 304.79 308.456 305.137 308.711V308.711ZM318.34 320.8C317.558 319.098 315.039 316.203 312.694 314.415C312.694 314.415 312.694 314.415 311.825 312.968C310.87 311.351 310.87 311.351 310.87 311.351C310.001 309.648 307.396 308.286 307.135 307.775C306.874 307.264 306.093 309.307 305.137 308.711C305.571 309.052 306.614 309.733 308.004 310.669C310.436 312.372 315.213 324.12 316.342 324.972C317.384 325.823 319.122 322.503 318.34 320.8ZM280.382 301.816C279.687 303.178 283.943 305.987 284.204 305.306C284.552 304.625 283.683 301.39 282.901 300.709C282.206 300.028 281.077 300.539 280.382 301.816ZM224.879 364.558C225.053 365.92 227.919 367.027 228.788 366.856C229.656 366.601 232.002 362.43 232.262 361.238C232.61 360.046 232.87 357.407 232.87 356.811C232.87 356.215 233.218 354.768 233.565 354.598C233.913 354.427 234.434 352.98 234.694 351.448C235.042 349.83 232.957 342.424 232.87 341.147C232.783 339.87 231.307 341.828 230.959 343.105C230.525 344.382 226.79 347.106 225.921 348.213C225.053 349.319 224.184 353.15 224.532 353.746C224.879 354.427 224.184 356.981 223.837 357.662C223.489 358.343 224.705 363.196 224.879 364.558ZM89.2917 415.807C90.1603 415.807 90.9421 415.807 91.8107 415.807C92.245 413.083 89.118 413.594 89.2917 415.807ZM156.695 136.915C155.652 137.001 152.873 136.49 152.438 135.979C152.004 135.468 147.835 135.043 146.706 135.553C145.49 136.064 146.358 132.744 148.009 132.404C149.659 132.063 148.269 129.764 146.532 129.764C144.795 129.764 140.452 129.083 139.41 129.339C138.367 129.594 136.369 128.658 135.675 128.573C134.98 128.487 129.768 130.105 127.249 130.02C124.817 129.935 118.737 130.19 117.434 130.531C116.131 130.871 115.176 133.425 115.35 134.276C115.523 135.213 109.53 135.128 107.619 135.213C105.708 135.213 95.5456 137.341 92.9398 138.788C90.3341 140.236 88.2494 143.896 89.118 143.896C89.9866 143.981 87.6414 146.025 86.2517 146.535C84.8619 147.046 81.4744 147.216 80.6058 147.983C79.8241 148.749 81.4744 149.26 81.735 149.856C82.0824 150.366 82.951 149.43 83.9065 149.941C84.7751 150.451 87.7283 150.707 88.51 150.962C89.2917 151.303 85.9911 151.899 84.4276 151.984C82.8642 152.069 83.2116 155.049 84.5145 155.474C85.8174 155.9 89.0312 156.326 89.3786 155.815C89.726 155.304 93.2004 156.411 94.8507 156.581C96.4142 156.751 97.6302 160.667 98.1514 161.519C98.6726 162.37 98.7594 165.35 98.5857 166.201C98.4988 167.052 101.365 168.585 101.886 168.074C102.408 167.563 102.234 169.436 101.105 169.351C99.9754 169.266 100.67 172.586 102.147 173.011C103.537 173.522 102.581 175.48 101.799 176.161C100.931 176.757 101.452 178.715 100.583 179.396C99.7149 180.077 103.624 186.632 103.624 190.038C103.624 193.443 105.795 196.167 106.577 196.167C107.445 196.167 110.225 196.848 110.572 197.529C110.92 198.21 112.309 197.019 112.831 196.508C113.352 195.997 114.481 194.294 115.35 192.932C116.218 191.485 118.129 184.76 118.39 183.993C118.65 183.227 121.864 183.738 122.646 183.312C123.341 182.972 125.512 181.269 126.12 180.844C126.728 180.333 131.332 178.46 132.635 177.523C133.851 176.672 136.022 172.756 136.978 171.99C137.933 171.138 136.456 171.394 135.24 170.628C134.024 169.862 134.545 168.84 134.893 168.499C135.24 168.159 138.975 169.095 140.278 169.606C141.581 170.117 144.013 168.329 143.058 167.648C142.102 166.967 142.623 166.967 143.058 167.308C143.492 167.563 144.013 165.094 143.492 164.583C142.971 164.073 147.227 161.008 146.532 158.198C145.75 155.304 147.661 152.324 148.877 152.324C150.006 152.324 149.659 149.089 148.356 148.749C146.966 148.408 148.269 148.153 148.79 147.727C149.312 147.302 149.92 144.407 149.659 143.811C149.312 143.215 151.744 142.619 152.178 141.938C152.612 141.257 155.392 139.98 156.347 139.81C157.216 139.299 157.737 136.83 156.695 136.915ZM180.581 139.299C179.278 138.874 176.585 140.321 176.933 141.087C177.28 141.938 174.761 140.065 173.024 140.917C171.287 141.853 170.766 144.833 171.634 145.173C172.416 145.599 173.024 147.983 173.024 148.408C173.024 148.919 176.412 148.579 177.28 147.812C178.149 147.131 177.975 150.196 177.193 151.047C176.325 151.899 177.454 153.601 178.409 153.686C179.365 153.857 180.668 155.985 181.623 155.985C182.579 155.985 184.229 152.324 184.576 150.962C184.924 149.6 188.138 150.707 189.614 151.133C191.091 151.558 191.612 146.11 190.049 145.258C188.485 144.492 186.487 144.833 185.792 144.237C185.098 143.641 184.055 143.045 183.274 142.96C182.579 142.96 181.884 139.725 180.581 139.299ZM193.436 141.853C196.042 142.194 198.908 140.151 199.603 139.555C200.211 138.959 192.394 137.426 189.441 137.341C186.487 137.256 184.055 137.682 184.142 138.192C184.142 138.788 190.83 141.513 193.436 141.853ZM146.098 210.64C145.403 210.384 145.055 212.853 145.229 213.79C145.403 214.726 147.748 214.641 148.79 214.471C149.833 214.3 150.614 213.534 150.528 212.683C150.441 211.831 149.051 208.086 148.443 208.086C147.922 208.171 146.793 210.895 146.098 210.64ZM153.828 181.439C153.307 180.503 149.225 180.588 148.269 180.588C147.314 180.503 144.274 179.567 143.666 178.885C143.145 178.29 142.623 181.354 141.755 181.78C140.799 182.206 142.189 182.802 142.623 182.461C142.971 182.12 142.623 184.079 142.189 184.674C141.755 185.355 144.882 185.781 145.229 186.803C145.577 187.824 146.879 188.42 148.096 188.25C149.312 188.08 151.744 186.803 152.612 186.718C153.394 186.547 154.349 182.376 153.828 181.439ZM239.298 158.539C240.688 157.177 246.42 155.304 247.115 153.857C247.723 152.409 246.681 151.303 246.16 151.303C245.552 151.303 244.857 151.984 244.77 152.239C244.596 152.495 237.995 154.027 235.997 154.963C233.913 155.9 231.567 157.432 230.786 158.284C229.917 159.135 228.527 165.52 228.006 166.286C227.485 166.967 230.178 169.606 231.394 170.372C232.61 171.053 234.26 170.713 234.694 170.543C235.129 170.372 234.086 165.945 233.478 164.328C232.696 162.796 237.908 159.986 239.298 158.539ZM232.175 141.853C234.347 143.981 235.563 140.917 237.908 141.172C237.908 136.916 232.002 138.363 232.175 141.853ZM274.476 142.619C274.389 143.386 280.469 144.067 282.293 143.726C284.03 143.386 281.946 140.746 279.34 140.832C276.647 141.087 274.476 141.853 274.476 142.619ZM54.4612 186.803C53.8531 187.399 54.3743 190.293 55.5903 190.378C56.8064 190.463 58.7173 185.951 60.1939 186.888C61.6705 187.824 62.7128 188.165 62.4522 187.654C62.1916 187.143 57.9355 185.355 57.4144 185.015C56.8932 184.76 55.0692 186.292 54.4612 186.803ZM70.009 285.726C70.009 286.237 72.7016 286.152 73.1359 285.385C73.5702 284.619 73.3096 283.938 72.6148 283.938C71.833 283.853 70.009 285.215 70.009 285.726ZM58.1961 281.469C59.499 281.214 58.891 283.257 59.1516 283.938C59.499 284.619 62.5391 285.215 63.1471 285.726C63.7551 286.237 65.3186 284.789 66.5346 284.96C67.7506 285.13 66.1003 280.873 64.1025 280.958C62.1048 281.129 60.4545 279.171 60.0202 278.915C59.499 278.745 57.1538 277.298 56.4589 276.787C55.764 276.276 50.6394 275.765 48.8153 275.765C47.0781 275.765 45.0804 277.553 44.8198 278.064C44.5592 278.66 47.5993 279 48.4679 278.575C49.3365 278.149 53.5057 279.086 54.2874 280.022C55.156 281.044 56.8932 281.64 58.1961 281.469ZM52.6371 285.726C52.6371 286.237 55.3298 285.896 55.9378 285.896C56.6326 285.896 56.5458 285.47 55.8509 284.96C55.2429 284.449 52.6371 285.215 52.6371 285.726ZM54.548 272.19C53.8531 271.935 53.332 272.956 53.332 273.467C53.332 273.978 53.6794 274.403 54.2006 274.403C54.6349 274.488 55.2429 272.53 54.548 272.19ZM60.107 272.616C59.8464 272.105 58.7173 271.679 58.3698 271.679C58.0224 271.679 57.7618 272.53 57.8487 273.637C57.9355 274.744 60.3676 273.126 60.107 272.616ZM64.1894 278.745C65.2317 278.234 65.4054 276.957 64.7974 277.042C64.1894 277.128 62.9734 275.255 62.2785 274.914C61.5836 274.659 60.9756 276.021 60.9756 276.702C60.9756 277.298 61.4099 277.723 61.8442 277.638C62.2785 277.468 63.0602 279.256 64.1894 278.745ZM362.899 319.864C362.377 320.119 359.685 320.46 359.337 319.949C358.99 319.438 358.469 321.056 357.861 321.311C357.253 321.566 357.6 322.928 358.469 322.503C359.077 322.247 361.596 323.61 363.68 324.887C364.115 322.843 364.462 320.8 364.81 318.757C364.028 319.183 363.246 319.693 362.899 319.864Z" fill="url(#paint2_radial_66_277)"/>
<mask id="mask0_66_277" style="mask-type:alpha" maskUnits="userSpaceOnUse" x="5" y="34" width="431" height="397">
<path d="M435.669 181.043L113.5 34.0271L5.84981 283.361L328.018 430.377L435.669 181.043Z" fill="url(#paint3_radial_66_277)"/>
</mask>
<g mask="url(#mask0_66_277)">
</g>
<path d="M230.09 114.526C227.05 113.334 223.923 112.398 220.71 111.717C192.22 105.502 161.906 119.804 135.848 147.983C110.138 175.736 88.5966 217.025 77.2181 265.294C77.2181 265.379 77.2181 265.465 77.1312 265.465C65.7526 313.734 66.7081 359.961 77.3918 395.716C87.2069 428.407 105.187 452.414 129.594 461.353C105.882 452.073 88.3361 428.322 78.6947 396.227C68.011 360.557 67.0555 314.33 78.4341 265.975C78.4341 265.89 78.4341 265.805 78.521 265.805C89.8995 217.535 111.527 176.246 137.151 148.493C163.209 120.315 193.61 106.013 222.013 112.227C224.705 112.738 227.398 113.504 230.09 114.526Z" fill="url(#paint4_linear_66_277)"/>
<path d="M5.21185 337.571C5.29871 340.721 5.64615 343.956 6.34102 347.106C11.9 375.114 37.3498 396.567 74.0044 408.656C110.138 420.574 157.216 423.384 206.725 414.36C206.812 414.36 206.899 414.36 206.899 414.36C256.409 405.251 299.144 386.011 328.155 362.174C354.734 340.38 369.847 314.671 368.457 289.301C369.239 314.245 354.126 339.444 328.068 360.897C299.057 384.734 256.409 403.974 206.812 413.083C206.725 413.083 206.639 413.083 206.639 413.083C157.129 422.107 109.964 419.297 73.9176 407.379C37.2629 395.29 11.8132 373.837 6.25417 345.829C5.64615 343.019 5.29871 340.295 5.21185 337.571Z" fill="url(#paint5_linear_66_277)"/>
<g opacity="0.5">
<g opacity="0.5">
<path opacity="0.5" d="M280.294 402.867C272.477 402.867 266.05 396.567 266.05 388.905C266.05 381.244 272.477 374.944 280.294 374.944C288.112 374.944 294.539 381.244 294.539 388.905C294.539 396.567 288.199 402.867 280.294 402.867ZM280.294 375.029C272.477 375.029 266.136 381.244 266.136 388.905C266.136 396.567 272.477 402.782 280.294 402.782C288.112 402.782 294.452 396.567 294.452 388.905C294.452 381.244 288.112 375.029 280.294 375.029Z" fill="white"/>
</g>
<g opacity="0.5">
<path opacity="0.5" d="M280.294 397.249C275.603 397.249 271.782 393.503 271.782 388.906C271.782 384.309 275.603 380.563 280.294 380.563C284.984 380.563 288.806 384.309 288.806 388.906C288.893 393.503 285.071 397.249 280.294 397.249ZM280.294 380.648C275.69 380.648 271.868 384.309 271.868 388.906C271.868 393.418 275.603 397.164 280.294 397.164C284.897 397.164 288.719 393.503 288.719 388.906C288.719 384.309 284.984 380.648 280.294 380.648Z" fill="white"/>
</g>
</g>
<path d="M291.152 149.855C277.168 110.61 255.627 87.6242 230.524 85.0702C212.023 83.1122 193.87 90.2633 176.324 109.418C177.019 109.418 177.714 109.333 178.409 109.333C195.346 91.2848 212.718 84.7297 230.351 86.5175C254.845 88.9863 275.952 111.716 289.675 150.366C303.747 189.952 308.35 241.202 302.617 294.665C296.798 348.127 281.424 397.333 259.188 433.174C237.473 468.163 212.023 486.126 187.529 483.572C176.15 482.38 165.38 476.761 155.825 467.141C154.87 467.056 154.088 466.886 153.393 466.801C163.643 477.527 175.108 483.827 187.442 485.104C189.006 485.274 190.569 485.36 192.132 485.36C215.758 485.36 239.905 467.312 260.578 434.025C282.9 398.014 298.448 348.553 304.268 294.92C309.914 241.117 305.31 189.612 291.152 149.855Z" fill="url(#paint6_linear_66_277)"/>
<path d="M330.152 120.485C311.043 101.756 276.907 99.7983 234.085 114.952C233.477 115.207 232.869 115.377 232.261 115.633C233.13 115.888 233.999 116.144 234.867 116.399C276.994 101.501 310.435 103.374 329.023 121.592C347.611 139.81 349.521 172.671 334.234 214.045C318.6 256.441 287.07 302.242 245.29 343.19C203.511 384.053 156.781 415.041 113.525 430.365C71.3111 445.348 37.7834 443.475 19.1955 425.257C2.86598 409.252 -0.521532 381.329 9.46729 346.425C9.20671 345.744 8.85927 344.552 8.5987 343.701C-2.43244 380.222 0.868217 409.508 18.0664 426.364C28.6632 436.75 43.8636 441.943 62.6252 441.943C77.6518 441.943 95.0237 438.623 114.133 431.812C157.562 416.403 204.553 385.33 246.506 344.297L246.593 344.212C288.459 303.178 320.163 257.122 335.885 214.556C351.259 172.671 349.261 139.214 330.152 120.485Z" fill="url(#paint7_linear_66_277)"/>
<defs>
<radialGradient id="paint0_radial_66_277" cx="0" cy="0" r="1" gradientUnits="userSpaceOnUse" gradientTransform="translate(188.841 263.45) rotate(-1.37827) scale(208.532 204.39)">
<stop stop-color="#1A3D8A"/>
<stop offset="0.203125" stop-color="#3567D2"/>
<stop offset="0.232336" stop-color="#4479EB"/>
<stop offset="0.520833" stop-color="#2C55B1"/>
<stop offset="0.671875" stop-color="#264EA8"/>
<stop offset="0.723958" stop-color="#254DA6"/>
<stop offset="0.859375" stop-color="#1A3D8A"/>
<stop offset="0.998389" stop-color="#3567D2"/>
</radialGradient>
<radialGradient id="paint1_radial_66_277" cx="0" cy="0" r="1" gradientUnits="userSpaceOnUse" gradientTransform="translate(240.464 191.705) rotate(80.6374) scale(63.8037 65.0726)">
<stop stop-color="white"/>
<stop offset="1" stop-color="white" stop-opacity="0"/>
</radialGradient>
<radialGradient id="paint2_radial_66_277" cx="0" cy="0" r="1" gradientUnits="userSpaceOnUse" gradientTransform="translate(178.7 246.633) scale(215.253 210.972)">
<stop stop-color="#17CDA6"/>
<stop offset="0.494792" stop-color="#46DEBD"/>
<stop offset="0.9999" stop-color="#54FBD7"/>
<stop offset="1" stop-color="white"/>
</radialGradient>
<radialGradient id="paint3_radial_66_277" cx="0" cy="0" r="1" gradientUnits="userSpaceOnUse" gradientTransform="translate(244.203 151.72) rotate(24.5287) scale(254.474 230.329)">
<stop/>
<stop offset="0.1042" stop-color="#272727"/>
<stop offset="0.2914" stop-color="#686868"/>
<stop offset="0.47" stop-color="#9E9E9E"/>
<stop offset="0.6349" stop-color="#C8C8C8"/>
<stop offset="0.7833" stop-color="#E6E6E6"/>
<stop offset="0.91" stop-color="#F8F8F8"/>
<stop offset="1" stop-color="white"/>
</radialGradient>
<linearGradient id="paint4_linear_66_277" x1="149.536" y1="110.281" x2="149.536" y2="461.353" gradientUnits="userSpaceOnUse">
<stop stop-color="white"/>
<stop offset="1" stop-color="white" stop-opacity="0.3"/>
</linearGradient>
<linearGradient id="paint5_linear_66_277" x1="369" y1="300.5" x2="-36.5" y2="313" gradientUnits="userSpaceOnUse">
<stop stop-color="white"/>
<stop offset="1" stop-color="white" stop-opacity="0.3"/>
</linearGradient>
<linearGradient id="paint6_linear_66_277" x1="230.004" y1="84.7581" x2="230.004" y2="485.36" gradientUnits="userSpaceOnUse">
<stop stop-color="white"/>
<stop offset="1" stop-color="white" stop-opacity="0.3"/>
</linearGradient>
<linearGradient id="paint7_linear_66_277" x1="316.5" y1="127.5" x2="-56.5" y2="354.5" gradientUnits="userSpaceOnUse">
<stop stop-color="white"/>
<stop offset="0.100297" stop-color="white" stop-opacity="0.936108"/>
<stop offset="1" stop-color="white" stop-opacity="0.3"/>
</linearGradient>
</defs>
</svg>
