<svg width="490" height="437" viewBox="0 0 490 437" fill="none" xmlns="http://www.w3.org/2000/svg">
<g opacity="0.1" filter="url(#filter0_b_2155_2)">
<path d="M77.5882 301.409L182.79 351.897L119.934 428.557L0.291549 363.838L77.5882 301.409Z" fill="#F1F3F8"/>
</g>
<g opacity="0.1" filter="url(#filter1_b_2155_2)">
<path d="M242.366 198.135L182.701 352.305L119.937 428.557L242.366 198.135Z" fill="#C4C4C4"/>
<path d="M242.366 198.135L182.701 352.305L119.937 428.557L242.366 198.135Z" fill="url(#paint0_linear_2155_2)"/>
</g>
<g opacity="0.1" filter="url(#filter2_b_2155_2)">
<path d="M240.804 200.585L77.6044 302.473L0.582934 364.004L240.804 200.585Z" fill="#F1F3F8"/>
</g>
<g opacity="0.2" filter="url(#filter3_b_2155_2)">
<path d="M241.341 200.159L120.457 429.345L1.02331 364.248L241.341 200.159Z" fill="url(#paint1_linear_2155_2)"/>
</g>
<path d="M322.918 102.108C322.804 101.826 322.804 101.826 322.918 102.108C322.804 101.826 322.804 101.826 322.804 101.826C322.689 101.544 322.984 101.417 322.87 101.135C323.05 100.726 323.05 100.726 323.345 100.599C323.525 100.189 323.82 100.062 324.229 100.216L375.875 105.358C376.169 105.23 376.284 105.512 376.513 106.075C376.856 106.92 376.61 108.02 376.135 108.557C375.66 109.094 375.366 109.221 375.251 108.94C375.251 108.94 375.366 109.221 375.66 109.094L324.015 103.952C323.72 104.079 323.605 103.798 323.376 103.234C322.738 102.517 322.624 102.235 322.918 102.108ZM374.613 108.222C374.613 108.222 374.499 107.941 374.384 107.659C374.499 107.941 374.613 108.222 374.613 108.222Z" fill="url(#paint2_linear_2155_2)"/>
<path d="M271.918 91.1078C271.804 90.8261 271.804 90.8261 271.918 91.1078C271.804 90.8261 271.804 90.8261 271.804 90.8261C271.689 90.5445 271.984 90.4169 271.87 90.1353C272.05 89.7261 272.05 89.7261 272.345 89.5986C272.525 89.1894 272.82 89.0618 273.229 89.216L324.875 94.3578C325.169 94.2303 325.284 94.512 325.513 95.0753C325.856 95.9203 325.61 97.0204 325.135 97.5571C324.66 98.0938 324.366 98.2213 324.251 97.9397C324.251 97.9397 324.366 98.2213 324.66 98.0938L273.015 92.952C272.72 93.0795 272.605 92.7978 272.376 92.2345C271.738 91.517 271.624 91.2353 271.918 91.1078ZM323.613 97.2222C323.613 97.2222 323.499 96.9405 323.384 96.6589C323.499 96.9405 323.613 97.2222 323.613 97.2222Z" fill="url(#paint3_linear_2155_2)"/>
<path d="M350.002 82.4586L352.294 79.4112C352.646 78.9424 353.238 78.6513 354.308 78.7156L352.016 81.7629C351.185 81.8763 350.354 81.9897 350.002 82.4586Z" fill="#4074E4"/>
<path d="M352.648 80.506L354.844 77.5196L453.73 88.9412L452.182 92.0012L352.648 80.506Z" fill="#4074E4"/>
<path d="M455.811 95.0618L458.009 92.0742L475.188 134.396L472.99 137.383L455.811 95.0618Z" fill="#4074E4"/>
<path d="M451.441 91.6535L453.638 88.6661C455.473 89.008 457.464 90.5551 458.285 92.2759L456.088 95.2633C455.489 93.7144 453.276 91.9955 451.441 91.6535Z" fill="#4074E4"/>
<path d="M349.657 83.0537C348.842 81.342 349.855 79.9641 351.682 80.2978L451.102 91.6813C452.93 92.0151 454.911 93.5491 455.726 95.2608L472.56 136.756C473.375 138.468 472.363 139.846 470.535 139.512L371.115 128.129C369.288 127.795 367.306 126.261 366.491 124.549L349.657 83.0537Z" fill="#1C4296"/>
<path d="M452.999 94.2425C453.66 94.7537 454.152 95.4945 454.423 96.0649L471.254 137.551C471.526 138.121 471.357 138.351 471.357 138.351C471.357 138.351 470.968 138.41 470.579 138.469L371.352 126.87C370.743 126.758 369.914 126.477 369.253 125.966C368.593 125.454 368.101 124.714 367.83 124.143L350.998 82.6576C350.727 82.0871 350.895 81.8575 350.895 81.8575C350.895 81.8575 351.284 81.7983 351.673 81.739L451.069 93.1089C451.678 93.2201 452.339 93.7313 452.999 94.2425Z" fill="#1C4296"/>
<path d="M401.767 121.637L403.864 127.228C404.405 128.368 405.725 129.389 406.724 129.44L412.547 129.976C413.766 130.197 414.443 129.277 413.902 128.137L411.805 122.546C411.264 121.405 409.944 120.384 408.945 120.333L403.122 119.798C401.733 119.807 401.225 120.496 401.767 121.637ZM390.069 120.166L392.167 125.757C392.708 126.898 394.028 127.919 395.027 127.97L401.07 128.675C402.289 128.896 402.966 127.977 402.425 126.837L400.328 121.245C399.787 120.105 398.466 119.084 397.468 119.033L391.255 118.557C390.256 118.506 389.748 119.196 390.069 120.166ZM378.423 119.095L380.52 124.687C381.061 125.827 382.381 126.848 383.38 126.899L389.203 127.435C390.422 127.656 391.1 126.736 390.558 125.596L388.461 120.005C387.92 118.864 386.6 117.843 385.601 117.792L379.778 117.257C378.559 117.036 378.051 117.725 378.423 119.095ZM366.726 117.625L368.823 123.216C369.364 124.357 370.684 125.378 371.683 125.429L377.506 125.964C378.725 126.185 379.403 125.266 378.861 124.125L376.764 118.534C376.223 117.394 374.903 116.372 373.904 116.322L368.081 115.786C366.862 115.565 366.185 116.485 366.726 117.625ZM456.952 126.436L462.775 126.972C463.994 127.193 465.314 128.214 465.635 129.184L467.733 134.776C468.274 135.916 467.596 136.835 466.378 136.614L460.554 136.079C459.336 135.858 458.016 134.837 457.694 133.866L455.597 128.275C455.225 126.905 455.733 126.215 456.952 126.436ZM444.069 126.575L446.166 132.166C446.708 133.306 448.028 134.328 449.027 134.379L455.07 135.084C456.289 135.305 456.966 134.386 456.425 133.245L454.328 127.654C453.786 126.514 452.466 125.492 451.468 125.442L445.644 124.906C444.256 124.915 443.748 125.604 444.069 126.575ZM432.423 125.504L434.52 131.096C435.061 132.236 436.381 133.257 437.38 133.308L443.203 133.843C444.422 134.064 445.1 133.145 444.558 132.005L442.461 126.413C441.92 125.273 440.6 124.252 439.601 124.201L433.778 123.666C432.559 123.444 431.882 124.364 432.423 125.504ZM420.726 124.034L422.823 129.625C423.364 130.765 424.684 131.787 425.683 131.837L431.506 132.373C432.725 132.594 433.402 131.674 432.861 130.534L430.764 124.943C430.223 123.802 428.903 122.781 427.904 122.73L422.081 122.195C420.862 121.974 420.184 122.893 420.726 124.034ZM452.809 115.654L458.462 116.419C459.681 116.64 461.001 117.661 461.323 118.631L463.42 124.223C463.961 125.363 463.283 126.282 462.065 126.061L456.241 125.526C455.023 125.305 453.703 124.284 453.381 123.313L451.284 117.722C450.912 116.352 451.59 115.433 452.809 115.654ZM439.756 116.022L441.854 121.613C442.395 122.754 443.715 123.775 444.714 123.826L450.537 124.361C451.756 124.582 452.433 123.663 451.892 122.522L449.795 116.931C449.253 115.79 447.933 114.769 446.935 114.718L441.111 114.183C439.723 114.192 439.215 114.881 439.756 116.022ZM428.059 114.551L430.156 120.143C430.698 121.283 432.018 122.304 433.017 122.355L438.84 122.89C440.059 123.111 440.736 122.192 440.195 121.052L438.098 115.46C437.556 114.32 436.236 113.299 435.238 113.248L429.414 112.713C428.246 112.891 427.738 113.581 428.059 114.551ZM416.362 113.081L418.679 118.842C419.221 119.983 420.541 121.004 421.539 121.055L427.363 121.59C428.581 121.811 429.259 120.892 428.718 119.751L426.621 114.16C426.079 113.02 424.759 111.998 423.76 111.947L417.937 111.412C416.549 111.421 416.041 112.11 416.362 113.081ZM447.09 106.539L449.187 112.131C449.728 113.271 451.048 114.292 452.047 114.343L457.87 114.878C459.089 115.099 459.767 114.18 459.225 113.04L457.128 107.448C456.587 106.308 455.267 105.287 454.268 105.236L448.445 104.701C447.277 104.88 446.769 105.569 447.09 106.539ZM435.443 105.469L437.541 111.06C438.082 112.201 439.402 113.222 440.401 113.273L446.444 113.978C447.663 114.199 448.34 113.28 447.799 112.139L445.702 106.548C445.161 105.408 443.84 104.386 442.842 104.336L437.018 103.8C435.58 103.409 434.902 104.328 435.443 105.469ZM423.746 103.998L425.843 109.59C426.385 110.73 427.705 111.751 428.704 111.802L434.527 112.337C435.746 112.558 436.423 111.639 435.882 110.499L433.785 104.907C433.243 103.767 431.923 102.746 430.925 102.695L425.101 102.16C423.883 101.938 423.205 102.858 423.746 103.998ZM412.049 102.528L414.146 108.119C414.688 109.259 416.008 110.281 417.006 110.331L422.83 110.867C424.048 111.088 424.726 110.169 424.185 109.028L422.088 103.437C421.546 102.296 420.226 101.275 419.227 101.224L413.404 100.689C412.016 100.698 411.508 101.387 412.049 102.528ZM442.777 95.9863L444.874 101.578C445.415 102.718 446.736 103.739 447.734 103.79L453.558 104.325C454.776 104.546 455.454 103.627 454.912 102.487L452.815 96.8953C452.274 95.7549 450.954 94.7338 449.955 94.6829L444.132 94.1477C442.744 94.1564 442.236 94.8459 442.777 95.9863ZM431.08 94.5157L433.177 100.107C433.718 101.248 435.038 102.269 436.037 102.32L441.86 102.855C443.079 103.076 443.757 102.157 443.215 101.016L441.118 95.4248C440.577 94.2844 439.257 93.2633 438.258 93.2124L432.435 92.6771C431.267 92.856 430.759 93.5455 431.08 94.5157ZM419.603 93.2154L421.7 98.8068C422.241 99.9472 423.561 100.968 424.56 101.019L430.383 101.554C431.602 101.776 432.28 100.856 431.738 99.7158L429.641 94.1244C429.1 92.984 427.78 91.9629 426.781 91.912L420.958 91.3768C419.57 91.3855 419.061 92.075 419.603 93.2154ZM407.736 91.9746L409.833 97.5661C410.375 98.7064 411.695 99.7275 412.694 99.7785L418.517 100.314C419.736 100.535 420.413 99.6155 419.872 98.4751L417.775 92.8837C417.233 91.7433 415.913 90.7222 414.914 90.6713L409.091 90.136C407.872 89.9149 407.195 90.8342 407.736 91.9746ZM397.454 111.084L399.72 116.445C400.261 117.586 401.581 118.607 402.58 118.658L408.403 119.193C409.622 119.414 410.3 118.495 409.758 117.354L407.661 111.763C407.12 110.622 405.8 109.601 404.801 109.55L398.978 109.015C397.59 109.024 396.912 109.943 397.454 111.084ZM385.757 109.613L387.854 115.204C388.395 116.345 389.715 117.366 390.714 117.417L396.537 117.952C397.756 118.173 398.433 117.254 397.892 116.113L395.795 110.522C395.254 109.382 393.933 108.361 392.935 108.31L387.111 107.774C385.893 107.553 385.215 108.473 385.757 109.613ZM374.059 108.142L376.156 113.734C376.698 114.874 378.018 115.895 379.017 115.946L384.84 116.482C386.059 116.703 386.736 115.783 386.195 114.643L384.148 109.452C383.607 108.311 382.287 107.29 381.288 107.239L375.465 106.704C374.246 106.483 373.738 107.172 374.059 108.142ZM362.362 106.672L364.679 112.434C365.221 113.574 366.541 114.595 367.539 114.646L373.363 115.181C374.582 115.402 375.259 114.483 374.718 113.343L372.621 107.751C372.079 106.611 370.759 105.59 369.76 105.539L363.937 105.003C362.549 105.012 362.041 105.702 362.362 106.672ZM393.09 100.131L395.187 105.722C395.728 106.862 397.049 107.883 398.047 107.934L403.871 108.47C405.089 108.691 405.767 107.771 405.226 106.631L403.128 101.04C402.587 99.8992 401.267 98.8781 400.268 98.8272L394.445 98.2919C393.277 98.4709 392.769 99.1603 393.09 100.131ZM381.444 99.06L383.541 104.651C384.082 105.792 385.402 106.813 386.401 106.864L392.444 107.569C393.663 107.79 394.34 106.871 393.799 105.731L391.702 100.139C391.161 98.9989 389.841 97.9778 388.842 97.9269L383.019 97.3916C381.58 97.0003 380.902 97.9196 381.444 99.06ZM369.746 97.5895L371.844 103.181C372.385 104.321 373.705 105.342 374.704 105.393L380.527 105.929C381.746 106.15 382.423 105.23 381.882 104.09L379.785 98.4986C379.243 97.3582 377.923 96.337 376.925 96.2861L371.101 95.7509C369.883 95.5298 369.205 96.4491 369.746 97.5895ZM358.049 96.1189L360.146 101.71C360.688 102.851 362.008 103.872 363.007 103.923L368.83 104.458C370.049 104.679 370.726 103.76 370.185 102.619L368.088 97.028C367.546 95.8876 366.226 94.8665 365.228 94.8156L359.404 94.2803C358.236 94.4592 357.728 95.1487 358.049 96.1189ZM388.777 89.5776L390.874 95.169C391.416 96.3094 392.736 97.3305 393.734 97.3814L399.558 97.9166C400.776 98.1377 401.454 97.2184 400.913 96.078L398.815 90.4866C398.274 89.3462 396.954 88.3251 395.955 88.2742L390.132 87.739C388.913 87.5179 388.236 88.4372 388.777 89.5776ZM377.08 88.107L379.177 93.6984C379.718 94.8388 381.038 95.8599 382.037 95.9108L387.86 96.4461C389.079 96.6672 389.757 95.7479 389.215 94.6075L387.118 89.0161C386.577 87.8757 385.257 86.8546 384.258 86.8037L378.435 86.2684C377.267 86.4473 376.759 87.1368 377.08 88.107ZM365.603 86.8067L367.7 92.3981C368.241 93.5385 369.561 94.5596 370.56 94.6105L376.383 95.1457C377.602 95.3668 378.28 94.4475 377.738 93.3071L375.641 87.7157C375.1 86.5753 373.78 85.5542 372.781 85.5033L366.958 84.9681C365.57 84.9768 365.062 85.6663 365.603 86.8067ZM353.736 85.5659L355.833 91.1574C356.375 92.2977 357.695 93.3188 358.694 93.3698L364.517 93.905C365.736 94.1261 366.413 93.2068 365.872 92.0664L363.775 86.475C363.233 85.3346 361.913 84.3135 360.915 84.2626L355.091 83.7273C353.873 83.5062 353.195 84.4255 353.736 85.5659Z" fill="url(#paint4_linear_2155_2)"/>
<path d="M401.705 86.5831C401.095 86.4726 400.316 86.5918 399.487 86.3111L418.295 132.975L421.901 133.239L403.313 86.7446C402.534 86.8639 402.314 86.6937 401.705 86.5831Z" fill="#1C4296"/>
<path opacity="0.8" d="M376.174 113.721L374.937 110.233C375.786 109.083 376.635 107.932 377.653 106.552L381.267 106.818C382.488 107.041 383.811 108.065 384.132 109.037L386.233 114.639C386.775 115.782 386.096 116.702 384.875 116.48L379.04 115.939C377.818 115.716 376.496 114.693 376.174 113.721ZM380.555 105.906C381.776 106.128 382.455 105.208 381.913 104.065L380.828 101.78C379.979 102.93 378.961 104.31 378.112 105.461L380.555 105.906ZM397.295 110.912L399.566 116.284C401.263 113.983 402.791 111.913 404.489 109.612L398.823 108.841C397.432 108.849 396.753 109.769 397.295 110.912ZM388.447 97.556L384.393 96.9481C383.544 98.0985 382.865 99.0188 382.016 100.169L383.694 103.998C384.236 105.141 385.559 106.165 386.56 106.216L392.276 107.388C393.497 107.61 394.176 106.69 393.634 105.547L391.533 99.9449C390.991 98.8022 389.668 97.7784 388.447 97.556ZM397.954 116.121L395.854 110.519C395.311 109.376 393.989 108.352 392.988 108.3L387.153 107.76C385.931 107.537 385.252 108.458 385.794 109.6L387.895 115.203C388.437 116.345 389.76 117.369 390.761 117.421L396.596 117.962C397.818 118.184 398.497 117.264 397.954 116.121ZM405.135 106.859L403.034 101.256C402.492 100.114 401.169 99.0899 400.168 99.0381L394.333 98.4974C393.112 98.275 392.433 99.1953 392.975 100.338L395.076 105.94C395.618 107.083 396.94 108.107 397.941 108.159L403.777 108.699C405.168 108.692 405.677 108.001 405.135 106.859ZM378.224 118.922L380.325 124.524C380.867 125.667 382.19 126.691 383.19 126.743L389.026 127.284C390.247 127.506 390.926 126.586 390.384 125.443L388.283 119.841C387.741 118.698 386.418 117.674 385.417 117.622L379.582 117.082C378.361 116.859 377.851 117.549 378.224 118.922ZM442.715 95.825L444.816 101.427C445.358 102.57 446.681 103.594 447.681 103.646L453.127 104.246C453.636 103.556 454.145 102.865 454.654 102.175L452.604 96.9736C452.062 95.8309 450.739 94.807 449.739 94.7552L443.903 94.2145C442.682 93.9921 442.173 94.6823 442.715 95.825ZM445.424 106.236C444.882 105.093 443.559 104.069 442.558 104.018L436.723 103.477C435.502 103.254 434.823 104.175 435.365 105.317L437.466 110.92C438.008 112.063 439.331 113.086 440.331 113.138L446.387 113.85C446.727 113.389 447.236 112.699 447.575 112.239L445.424 106.236ZM432.994 130.593L430.894 124.991C430.351 123.848 429.029 122.824 428.028 122.772L422.193 122.232C422.193 122.232 422.193 122.232 421.972 122.061L420.784 123.672C420.784 123.672 420.784 123.672 421.004 123.842L423.105 129.445C423.647 130.587 424.97 131.611 425.971 131.663L431.806 132.204C432.637 132.485 433.316 131.565 432.994 130.593ZM366.669 90.458L367.482 92.1721C367.753 92.7434 368.465 93.656 369.297 93.9379C370.994 91.6372 372.861 89.1063 374.559 86.8056C373.898 86.2937 373.236 85.7818 372.405 85.4999L370.404 85.3964C369.215 87.0069 368.027 88.6174 366.669 90.458ZM441.043 114.051C439.822 113.828 439.143 114.749 439.685 115.891L441.464 120.522C442.822 118.681 444.18 116.84 445.708 114.77L441.043 114.051ZM427.964 114.409L430.065 120.012C430.607 121.154 431.93 122.178 432.931 122.23L438.766 122.771C438.986 122.941 439.156 122.711 439.377 122.882C439.716 122.422 439.886 122.192 440.225 121.731C440.225 121.731 440.175 121.331 439.954 121.16L437.853 115.558C437.311 114.415 435.989 113.391 434.988 113.339L429.152 112.799C428.762 112.858 428.542 112.687 428.372 112.918L427.693 113.838C427.913 114.009 427.744 114.239 427.964 114.409ZM367.429 96.4687C366.938 95.7267 365.835 94.8735 365.055 94.9924L363.613 94.5993C362.255 96.4399 360.897 98.2805 359.539 100.121L359.912 101.494C360.234 102.466 361.115 103.148 361.946 103.43C364.034 101.07 365.732 98.7694 367.429 96.4687ZM429.391 111.537L434.836 112.137C436.057 112.36 436.736 111.439 436.194 110.297L434.144 105.095L429.391 111.537ZM458.765 125.238L462.208 125.735C463.43 125.957 464.109 125.037 463.566 123.894L462.16 120.637C460.972 122.247 459.953 123.628 458.765 125.238ZM414.795 90.4794L408.96 89.9387C407.739 89.7163 407.06 90.6366 407.602 91.7793L409.703 97.3816C410.194 98.1236 411.076 98.8062 412.128 99.2587C413.825 96.9579 415.692 94.4271 417.39 92.1264C416.678 91.2138 415.626 90.7613 414.795 90.4794ZM447.035 106.399L448.764 110.628C450.122 108.788 451.31 107.177 452.668 105.337L448.444 104.959C447.223 104.737 446.714 105.427 447.035 106.399ZM436.181 102.334L441.846 103.105C443.068 103.327 443.747 102.407 443.204 101.264L440.934 95.8921L436.181 102.334ZM364.513 93.8497C365.734 94.0721 366.413 93.1518 365.871 92.0091L365.65 91.8384C365.311 92.2986 364.802 92.9888 364.513 93.8497ZM387.905 96.4132C389.126 96.6357 389.805 95.7154 389.263 94.5727L388.127 91.8865C387.109 93.267 386.09 94.6474 385.072 96.0279L387.905 96.4132ZM389.146 90.5061L390.874 94.7356C391.416 95.8784 392.739 96.9022 393.74 96.954L399.575 97.4947C400.796 97.7171 401.476 96.7968 400.933 95.6541L398.833 90.0518C398.29 88.909 396.968 87.8852 395.967 87.8334L391.523 87.2851C390.504 88.6655 389.825 89.5858 389.146 90.5061ZM428.453 119.849L426.674 115.218L422.431 120.97L427.265 121.459C428.486 121.682 428.996 120.991 428.453 119.849ZM397.359 119.275L397.139 119.104L391.083 118.393C389.862 118.171 389.182 119.091 389.725 120.234L391.825 125.836L392.046 126.007C393.964 123.877 395.661 121.576 397.359 119.275ZM374.342 113.387L373.698 111.443C372.85 112.593 372.001 113.744 371.152 114.894L373.154 114.997C374.375 115.22 374.884 114.53 374.342 113.387ZM371.639 125.031L377.474 125.571C378.695 125.794 379.374 124.873 378.832 123.731L376.732 118.128C376.189 116.986 374.867 115.962 373.866 115.91L370.643 115.584C369.624 116.965 368.606 118.345 367.757 119.495L368.943 122.582C369.146 124.185 370.468 125.209 371.639 125.031ZM467.938 134.869L465.837 129.267C465.295 128.124 463.972 127.1 462.971 127.048L458.137 126.559C457.458 127.48 456.779 128.4 456.1 129.32L457.878 133.95C458.421 135.093 459.743 136.117 460.744 136.169L466.58 136.71C467.971 136.702 468.48 136.012 467.938 134.869ZM438.748 124.203L433.693 123.543C432.472 123.321 431.793 124.241 432.335 125.384L434.335 130.185C435.862 128.114 437.39 126.043 438.748 124.203ZM456.216 133.387L455.03 130.3C454.012 131.68 452.824 133.291 451.805 134.671L455.028 134.997C456.249 135.22 456.759 134.529 456.216 133.387Z" fill="url(#paint5_linear_2155_2)"/>
<path d="M472.578 136.79L474.923 134.05C475.286 135.051 475.172 135.697 474.82 136.166L472.333 139.135C472.685 138.667 472.702 137.613 472.578 136.79Z" fill="#4074E4"/>
<path d="M352.561 80.6422L354.621 77.8665C353.607 77.7133 352.42 77.7366 352.074 78.2099L349.833 81.1781C350.179 80.7048 351.77 80.6979 352.561 80.6422Z" fill="#4074E4"/>
<path d="M178.075 61.4317L180.201 58.2733C180.528 57.7874 181.129 57.486 182.277 57.5535L180.152 60.7119C179.277 60.8289 178.402 60.9458 178.075 61.4317Z" fill="#4074E4"/>
<path d="M180.727 59.236L182.749 56.1492L289.166 68.1458L287.842 71.31L180.727 59.236Z" fill="#4074E4"/>
<path d="M291.972 74.3035L293.996 71.215L316.737 115.051L314.714 118.139L291.972 74.3035Z" fill="#4074E4"/>
<path d="M287.04 70.7765L289.062 67.6886C291.051 68.0464 293.334 69.6519 294.39 71.4349L292.368 74.5228C291.566 72.9182 289.029 71.1343 287.04 70.7765Z" fill="#4074E4"/>
<path d="M177.731 61.8766C176.684 60.1039 177.616 58.6797 179.596 59.0283L286.566 70.9832C288.545 71.3318 290.815 72.9228 291.863 74.6955L314.146 117.666C315.193 119.438 314.261 120.862 312.282 120.514L205.312 108.559C203.332 108.21 201.062 106.619 200.015 104.847L177.731 61.8766Z" fill="#1C4296"/>
<path d="M288.853 73.6374C289.609 74.1676 290.21 74.9351 290.559 75.5258L312.838 118.485C313.187 119.076 313.032 119.313 313.032 119.313C313.032 119.313 312.624 119.374 312.217 119.434L205.431 107.256C204.771 107.14 203.859 106.848 203.103 106.317C202.346 105.787 201.745 105.02 201.396 104.429L179.117 61.47C178.768 60.8792 178.923 60.6419 178.923 60.6419C178.923 60.6419 179.331 60.5813 179.738 60.5207L286.68 72.4611C287.34 72.5772 288.096 73.1073 288.853 73.6374Z" fill="#1C4296"/>
<path d="M237.23 101.901L240.048 107.691C240.744 108.872 242.255 109.931 243.323 109.985L249.575 110.547C250.895 110.777 251.519 109.827 250.824 108.646L248.006 102.856C247.31 101.675 245.798 100.616 244.73 100.562L238.478 100C237.002 100.007 236.534 100.72 237.23 101.901ZM224.63 100.362L227.448 106.152C228.144 107.333 229.656 108.392 230.724 108.446L237.228 109.185C238.547 109.415 239.172 108.465 238.476 107.284L235.658 101.494C234.962 100.313 233.451 99.2542 232.383 99.2001L225.723 98.699C224.655 98.6449 224.187 99.3578 224.63 100.362ZM212.127 99.2379L214.945 105.028C215.64 106.209 217.152 107.268 218.22 107.322L224.472 107.884C225.792 108.114 226.416 107.164 225.721 105.983L222.902 100.193C222.207 99.012 220.695 97.9533 219.627 97.8992L213.375 97.3369C212.055 97.1064 211.587 97.8192 212.127 99.2379ZM199.527 97.6993L202.345 103.489C203.041 104.67 204.553 105.729 205.621 105.783L211.872 106.345C213.192 106.576 213.817 105.625 213.121 104.444L210.303 98.6545C209.607 97.4734 208.095 96.4147 207.028 96.3606L200.776 95.7984C199.456 95.5678 198.831 96.5183 199.527 97.6993ZM296.448 106.947L302.7 107.509C304.02 107.74 305.532 108.798 305.975 109.803L308.794 115.593C309.489 116.774 308.865 117.725 307.545 117.494L301.293 116.932C299.973 116.701 298.462 115.642 298.018 114.638L295.2 108.848C294.66 107.429 295.128 106.716 296.448 106.947ZM282.756 107.072L285.574 112.862C286.27 114.043 287.782 115.101 288.85 115.156L295.354 115.894C296.673 116.125 297.298 115.174 296.602 113.993L293.784 108.203C293.088 107.022 291.577 105.964 290.509 105.909L284.257 105.347C282.781 105.354 282.313 106.067 282.756 107.072ZM270.253 105.947L273.071 111.737C273.766 112.918 275.278 113.977 276.346 114.031L282.598 114.593C283.918 114.824 284.542 113.873 283.847 112.692L281.028 106.902C280.333 105.721 278.821 104.663 277.753 104.609L271.501 104.046C270.181 103.816 269.557 104.766 270.253 105.947ZM257.653 104.409L260.471 110.199C261.167 111.38 262.679 112.438 263.747 112.493L269.998 113.055C271.318 113.285 271.943 112.335 271.247 111.154L268.429 105.364C267.733 104.183 266.221 103.124 265.153 103.07L258.902 102.508C257.582 102.277 256.957 103.228 257.653 104.409ZM290.908 95.7812L297.004 96.5811C298.323 96.8116 299.835 97.8703 300.279 98.8749L303.097 104.665C303.793 105.846 303.168 106.796 301.848 106.566L295.597 106.004C294.277 105.773 292.765 104.714 292.321 103.71L289.503 97.9198C288.964 96.5011 289.588 95.5507 290.908 95.7812ZM277.06 96.1436L279.878 101.934C280.573 103.115 282.085 104.173 283.153 104.227L289.405 104.79C290.725 105.02 291.349 104.07 290.654 102.889L287.835 97.0987C287.14 95.9177 285.628 94.859 284.56 94.8049L278.308 94.2426C276.832 94.2497 276.364 94.9626 277.06 96.1436ZM264.46 94.6051L267.278 100.395C267.974 101.576 269.486 102.635 270.554 102.689L276.805 103.251C278.125 103.482 278.75 102.531 278.054 101.35L275.236 95.5602C274.54 94.3791 273.029 93.3204 271.961 93.2663L265.709 92.7041C264.485 92.8876 264.016 93.6005 264.46 94.6051ZM251.861 93.0665L254.931 99.0329C255.626 100.214 257.138 101.273 258.206 101.327L264.458 101.889C265.778 102.12 266.402 101.169 265.706 99.988L262.888 94.1981C262.193 93.017 260.681 91.9583 259.613 91.9042L253.361 91.342C251.885 91.3491 251.417 92.0619 251.861 93.0665ZM283.867 86.34L286.685 92.1299C287.381 93.3109 288.892 94.3696 289.96 94.4237L296.212 94.986C297.532 95.2165 298.156 94.266 297.461 93.085L294.642 87.2951C293.947 86.114 292.435 85.0553 291.367 85.0012L285.115 84.439C283.891 84.6225 283.423 85.3354 283.867 86.34ZM271.363 85.2155L274.181 91.0054C274.877 92.1864 276.389 93.2451 277.457 93.2992L283.96 94.0379C285.28 94.2685 285.905 93.318 285.209 92.1369L282.391 86.347C281.695 85.166 280.183 84.1073 279.115 84.0532L272.864 83.4909C271.292 83.0839 270.667 84.0344 271.363 85.2155ZM258.763 83.6769L261.582 89.4668C262.277 90.6479 263.789 91.7066 264.857 91.7607L271.109 92.3229C272.429 92.5535 273.053 91.603 272.357 90.4219L269.539 84.632C268.844 83.451 267.332 82.3923 266.264 82.3382L260.012 81.7759C258.692 81.5454 258.068 82.4959 258.763 83.6769ZM246.164 82.1384L248.982 87.9283C249.678 89.1093 251.189 90.168 252.257 90.2221L258.509 90.7844C259.829 91.0149 260.454 90.0644 259.758 88.8834L256.94 83.0935C256.244 81.9124 254.732 80.8537 253.664 80.7996L247.413 80.2374C245.937 80.2445 245.468 80.9573 246.164 82.1384ZM278.17 75.4118L280.988 81.2017C281.684 82.3828 283.196 83.4415 284.264 83.4956L290.515 84.0578C291.835 84.2884 292.46 83.3379 291.764 82.1568L288.946 76.3669C288.25 75.1859 286.738 74.1272 285.67 74.0731L279.419 73.5108C277.943 73.5179 277.474 74.2308 278.17 75.4118ZM265.571 73.8733L268.389 79.6632C269.084 80.8442 270.596 81.9029 271.664 81.957L277.916 82.5193C279.236 82.7498 279.86 81.7993 279.164 80.6183L276.346 74.8284C275.651 73.6473 274.139 72.5886 273.071 72.5345L266.819 71.9723C265.595 72.1558 265.127 72.8687 265.571 73.8733ZM253.223 72.5112L256.041 78.3011C256.737 79.4821 258.248 80.5408 259.316 80.5949L265.568 81.1571C266.888 81.3877 267.512 80.4372 266.817 79.2562L263.999 73.4663C263.303 72.2852 261.791 71.2265 260.723 71.1724L254.472 70.6102C252.996 70.6172 252.527 71.3301 253.223 72.5112ZM240.467 71.2102L243.286 77.0001C243.981 78.1812 245.493 79.2399 246.561 79.294L252.813 79.8562C254.133 80.0868 254.757 79.1363 254.061 77.9552L251.243 72.1653C250.547 70.9843 249.036 69.9256 247.968 69.8715L241.716 69.3092C240.396 69.0787 239.772 70.0292 240.467 71.2102ZM231.533 90.9728L234.507 96.5251C235.203 97.7061 236.715 98.7648 237.783 98.8189L244.035 99.3812C245.355 99.6117 245.979 98.6612 245.283 97.4802L242.465 91.6903C241.769 90.5092 240.258 89.4505 239.19 89.3964L232.938 88.8342C231.462 88.8413 230.838 89.7917 231.533 90.9728ZM218.934 89.4342L221.752 95.2242C222.448 96.4052 223.959 97.4639 225.027 97.518L231.279 98.0802C232.599 98.3108 233.223 97.3603 232.528 96.1793L229.709 90.3893C229.014 89.2083 227.502 88.1496 226.434 88.0955L220.182 87.5333C218.862 87.3027 218.238 88.2532 218.934 89.4342ZM206.334 87.8957L209.152 93.6856C209.848 94.8666 211.36 95.9253 212.428 95.9794L218.679 96.5417C219.999 96.7722 220.624 95.8217 219.928 94.6407L217.206 89.2649C216.51 88.0838 214.998 87.0251 213.93 86.971L207.679 86.4088C206.359 86.1782 205.89 86.8911 206.334 87.8957ZM193.735 86.3571L196.805 92.3235C197.5 93.5045 199.012 94.5632 200.08 94.6173L206.332 95.1796C207.652 95.4101 208.276 94.4596 207.58 93.2786L204.762 87.4887C204.067 86.3076 202.555 85.2489 201.487 85.1948L195.235 84.6326C193.759 84.6397 193.291 85.3525 193.735 86.3571ZM225.741 79.6306L228.559 85.4205C229.255 86.6015 230.766 87.6602 231.834 87.7143L238.086 88.2766C239.406 88.5071 240.03 87.5566 239.335 86.3756L236.516 80.5857C235.821 79.4046 234.309 78.3459 233.241 78.2918L226.989 77.7296C225.765 77.9131 225.297 78.626 225.741 79.6306ZM213.237 78.5061L216.055 84.296C216.751 85.477 218.263 86.5357 219.331 86.5898L225.834 87.3285C227.154 87.5591 227.779 86.6086 227.083 85.4276L224.265 79.6376C223.569 78.4566 222.057 77.3979 220.989 77.3438L214.738 76.7816C213.166 76.3746 212.541 77.325 213.237 78.5061ZM200.638 76.9675L203.456 82.7574C204.151 83.9385 205.663 84.9972 206.731 85.0513L212.983 85.6135C214.303 85.8441 214.927 84.8936 214.231 83.7125L211.413 77.9226C210.718 76.7416 209.206 75.6829 208.138 75.6288L201.886 75.0666C200.566 74.836 199.942 75.7865 200.638 76.9675ZM188.038 75.429L190.856 81.2189C191.552 82.3999 193.063 83.4586 194.131 83.5127L200.383 84.075C201.703 84.3055 202.328 83.355 201.632 82.174L198.814 76.3841C198.118 75.203 196.606 74.1443 195.538 74.0902L189.287 73.528C188.063 73.7115 187.594 74.4244 188.038 75.429ZM220.044 68.7024L222.862 74.4923C223.558 75.6734 225.07 76.7321 226.138 76.7862L232.389 77.3484C233.709 77.579 234.334 76.6285 233.638 75.4474L230.82 69.6575C230.124 68.4765 228.613 67.4178 227.545 67.3637L221.293 66.8014C219.973 66.5709 219.348 67.5214 220.044 68.7024ZM207.445 67.1639L210.263 72.9538C210.958 74.1348 212.47 75.1935 213.538 75.2476L219.79 75.8099C221.11 76.0404 221.734 75.0899 221.038 73.9089L218.22 68.119C217.525 66.9379 216.013 65.8792 214.945 65.8251L208.693 65.2629C207.469 65.4464 207.001 66.1593 207.445 67.1639ZM195.097 65.8018L197.915 71.5917C198.611 72.7727 200.122 73.8314 201.19 73.8855L207.442 74.4477C208.762 74.6783 209.387 73.7278 208.691 72.5468L205.873 66.7569C205.177 65.5758 203.665 64.5171 202.597 64.463L196.346 63.9008C194.87 63.9079 194.401 64.6207 195.097 65.8018ZM182.341 64.5008L185.16 70.2907C185.855 71.4718 187.367 72.5305 188.435 72.5846L194.687 73.1468C196.007 73.3774 196.631 72.4269 195.935 71.2458L193.117 65.4559C192.421 64.2749 190.91 63.2162 189.842 63.1621L183.59 62.5998C182.27 62.3693 181.646 63.3198 182.341 64.5008Z" fill="url(#paint6_linear_2155_2)"/>
<path d="M233.485 65.6217C232.825 65.5064 232.009 65.6288 231.097 65.337L256.007 113.66L259.871 113.938L235.213 65.7911C234.397 65.9134 234.145 65.737 233.485 65.6217Z" fill="#1C4296"/>
<path opacity="0.8" d="M209.153 93.6591L207.471 90.0472C208.254 88.8576 209.036 87.668 209.975 86.2405L213.848 86.5215C215.171 86.7535 216.686 87.8152 217.13 88.8219L219.954 94.6242C220.651 95.8078 220.025 96.7595 218.702 96.5275L212.436 95.9595C211.113 95.7275 209.598 94.6658 209.153 93.6591ZM212.994 85.5758C214.317 85.8078 214.943 84.8561 214.246 83.6724L212.852 81.3051C212.07 82.4947 211.131 83.9222 210.348 85.1118L212.994 85.5758ZM231.334 90.7818L234.314 96.3461C235.879 93.9669 237.287 91.8256 238.852 89.4464L232.742 88.6405C231.263 88.6464 230.637 89.5981 231.334 90.7818ZM220.516 76.9437L216.138 76.3088C215.356 77.4984 214.73 78.4501 213.947 79.6397L216.135 83.6055C216.832 84.7892 218.347 85.8509 219.417 85.9059L225.623 87.1267C226.946 87.3587 227.572 86.407 226.875 85.2234L224.051 79.4211C223.354 78.2374 221.839 77.1757 220.516 76.9437ZM232.582 96.1751L229.759 90.3728C229.062 89.1892 227.547 88.1275 226.476 88.0725L220.21 87.5044C218.887 87.2724 218.261 88.2241 218.958 89.4078L221.782 95.2101C222.479 96.3937 223.994 97.4554 225.064 97.5104L231.33 98.0785C232.653 98.3104 233.279 97.3588 232.582 96.1751ZM239.25 86.5973L236.427 80.7951C235.73 79.6114 234.215 78.5497 233.144 78.4947L226.878 77.9266C225.555 77.6947 224.929 78.6463 225.626 79.83L228.45 85.6323C229.147 86.8159 230.662 87.8777 231.732 87.9327L237.999 88.5007C239.478 88.4948 239.947 87.781 239.25 86.5973ZM211.881 99.0465L214.705 104.849C215.402 106.032 216.917 107.094 217.987 107.149L224.253 107.717C225.576 107.949 226.202 106.998 225.505 105.814L222.681 100.012C221.984 98.8279 220.469 97.7662 219.399 97.7112L213.133 97.1432C211.81 96.9112 211.34 97.6249 211.881 99.0465ZM278.082 75.2292L280.905 81.0315C281.602 82.2152 283.117 83.2769 284.188 83.3319L290.045 83.9609C290.514 83.2471 290.984 82.5334 291.453 81.8196L288.726 76.4322C288.029 75.2486 286.514 74.1868 285.443 74.1318L279.177 73.5638C277.854 73.3318 277.385 74.0456 278.082 75.2292ZM282.058 86.01C281.361 84.8263 279.846 83.7646 278.775 83.7096L272.509 83.1416C271.186 82.9096 270.56 83.8613 271.257 85.0449L274.081 90.8472C274.778 92.0309 276.293 93.0926 277.363 93.1476L283.882 93.8926C284.195 93.4167 284.664 92.703 284.977 92.2271L282.058 86.01ZM271.388 111.206L268.565 105.403C267.868 104.22 266.353 103.158 265.282 103.103L259.016 102.535C259.016 102.535 259.016 102.535 258.764 102.358L257.668 104.024C257.668 104.024 257.668 104.024 257.921 104.2L260.744 110.003C261.441 111.186 262.956 112.248 264.027 112.303L270.293 112.871C271.207 113.164 271.833 112.212 271.388 111.206ZM196.596 69.5652L197.642 71.3407C197.99 71.9325 198.844 72.8783 199.758 73.1712C201.323 70.792 203.044 68.1749 204.609 65.7957C203.851 65.2648 203.094 64.734 202.18 64.441L200.039 64.331C198.944 65.9964 197.848 67.6619 196.596 69.5652ZM278.217 94.0933C276.894 93.8613 276.268 94.813 276.965 95.9967L279.344 100.792C280.596 98.8889 281.848 96.9855 283.256 94.8443L278.217 94.0933ZM264.336 94.4457L267.16 100.248C267.857 101.432 269.372 102.493 270.443 102.548L276.709 103.116C276.961 103.293 277.118 103.055 277.37 103.232C277.683 102.757 277.84 102.519 278.153 102.043C278.153 102.043 278.057 101.628 277.804 101.451L274.98 95.6487C274.283 94.4651 272.768 93.4033 271.698 93.3483L265.432 92.7803C265.023 92.8413 264.77 92.6643 264.614 92.9022L263.988 93.8539C264.24 94.0309 264.084 94.2688 264.336 94.4457ZM198.037 75.7883C197.436 75.0196 196.173 74.1348 195.355 74.2567L193.78 73.8478C192.528 75.7512 191.276 77.6545 190.024 79.5579L190.565 80.9795C191.009 81.9862 192.019 82.694 192.933 82.9869C194.907 80.5467 196.472 78.1675 198.037 75.7883ZM265.553 91.4747L271.41 92.1037C272.733 92.3357 273.359 91.384 272.662 90.2004L269.934 84.8129L265.553 91.4747ZM298.249 105.699L301.965 106.218C303.288 106.45 303.914 105.499 303.217 104.315L301.379 100.941C300.283 102.606 299.345 104.034 298.249 105.699ZM247.811 69.6559L241.544 69.0879C240.221 68.8559 239.596 69.8076 240.293 70.9913L243.116 76.7936C243.717 77.5623 244.727 78.2701 245.894 78.74C247.458 76.3608 249.18 73.7437 250.745 71.3645C249.891 70.4188 248.725 69.9489 247.811 69.6559ZM283.789 86.181L286.073 90.5617C287.324 88.6583 288.42 86.9929 289.672 85.0895L285.137 84.6925C283.814 84.4605 283.345 85.1743 283.789 86.181ZM271.812 81.9579L277.922 82.7639C279.245 82.9958 279.87 82.0442 279.173 80.8605L276.193 75.2961L271.812 81.9579ZM194.658 73.0731C195.981 73.305 196.607 72.3534 195.91 71.1697L195.657 70.9928C195.345 71.4686 194.875 72.1824 194.658 73.0731ZM219.819 75.7601C221.142 75.9921 221.768 75.0404 221.071 73.8567L219.581 71.0745C218.642 72.5021 217.703 73.9296 216.764 75.3571L219.819 75.7601ZM220.52 69.647L222.803 74.0277C223.5 75.2114 225.015 76.2731 226.085 76.3281L232.351 76.8962C233.674 77.1281 234.3 76.1764 233.603 74.9928L230.779 69.1905C230.082 68.0069 228.568 66.9452 227.497 66.8901L222.71 66.3161C221.771 67.7437 221.146 68.6953 220.52 69.647ZM265.428 100.077L263.049 95.2814L259.137 101.229L264.333 101.742C265.656 101.974 266.125 101.261 265.428 100.077ZM232.28 99.4391L232.027 99.2621L225.509 98.5171C224.186 98.2852 223.56 99.2369 224.257 100.421L227.081 106.223L227.333 106.4C229.15 104.197 230.715 101.818 232.28 99.4391ZM207.169 93.3111L206.28 91.2978C205.498 92.4874 204.715 93.677 203.933 94.8666L206.074 94.9766C207.397 95.2086 207.866 94.4948 207.169 93.3111ZM205.515 105.36L211.781 105.928C213.104 106.16 213.73 105.209 213.033 104.025L210.21 98.2227C209.513 97.0391 207.998 95.9773 206.927 95.9223L203.463 95.5803C202.524 97.0078 201.586 98.4354 200.803 99.625L202.389 102.822C202.773 104.482 204.288 105.543 205.515 105.36ZM309.021 115.682L306.197 109.879C305.5 108.696 303.985 107.634 302.915 107.579L297.719 107.066C297.093 108.018 296.467 108.969 295.842 109.921L298.221 114.717C298.918 115.9 300.433 116.962 301.503 117.017L307.769 117.585C309.249 117.579 309.718 116.865 309.021 115.682ZM276.84 104.599L271.392 103.909C270.069 103.677 269.443 104.629 270.14 105.812L272.772 110.785C274.18 108.644 275.588 106.502 276.84 104.599ZM296.393 114.131L294.807 110.934C293.868 112.361 292.772 114.027 291.834 115.454L295.297 115.796C296.62 116.028 297.09 115.314 296.393 114.131Z" fill="url(#paint7_linear_2155_2)"/>
<path d="M314.131 117.521L316.345 114.683C316.839 115.722 316.786 116.392 316.459 116.878L314.118 119.955C314.445 119.469 314.351 118.376 314.131 117.521Z" fill="#4074E4"/>
<path d="M180.617 59.5487L182.522 56.6721C181.425 56.5128 180.162 56.5364 179.842 57.0269L177.764 60.1028C178.084 59.6123 179.778 59.6059 180.617 59.5487Z" fill="#4074E4"/>
<path d="M305.5 92.165L320.663 76.1093C322.319 73.9316 325.652 73.0451 329.471 73.5186C337.589 74.6691 346.1 81.4646 348.651 88.6043C349.987 92.3441 349.41 95.2691 347.754 97.4468L332.591 113.502L332.827 113.026C331.171 115.204 327.959 116.43 323.661 115.753C315.544 114.603 307.033 107.807 304.361 100.328C303.267 97.2676 303.723 94.0026 305.5 92.165ZM333.609 105C333.731 105.34 333.974 106.02 334.095 106.36C333.852 105.68 333.731 105.34 333.609 105Z" fill="url(#paint8_linear_2155_2)"/>
<path d="M309.241 78.4905C311.334 76.1745 314.967 74.7747 319.753 75.5743C329.212 76.8393 346.107 90.4332 348.926 98.7863C350.279 102.796 349.84 106.363 347.748 108.679L314.639 142.863C316.732 140.547 317.17 136.981 315.817 132.971C312.998 124.618 300.911 116.1 291.452 114.835C286.779 114.369 282.575 116.13 280.482 118.446L309.241 78.4905Z" fill="url(#paint9_linear_2155_2)"/>
<path d="M293.424 113.431C283.102 112.156 277.656 118.74 280.54 127.371C283.544 136.362 293.918 144.524 304.24 145.798C314.561 147.073 320.008 140.489 317.123 131.858C313.999 122.507 303.227 114.5 293.424 113.431Z" fill="#2B55B2"/>
<path d="M256.29 152.948L284.299 121.335C286.008 119.162 289.373 118.243 293.196 118.66C301.318 119.69 309.713 126.289 312.119 133.307C313.379 136.983 312.736 139.879 311.028 142.052L283.019 173.665L283.265 173.192C281.557 175.364 278.306 176.618 274.007 176.006C265.885 174.976 257.49 168.377 254.97 161.025C253.939 158.017 254.467 154.787 256.29 152.948ZM284.225 165.254C284.339 165.589 284.568 166.257 284.683 166.591C284.454 165.923 284.339 165.589 284.225 165.254Z" fill="url(#paint10_linear_2155_2)"/>
<path d="M277.612 122.869C279.743 120.586 283.398 119.244 288.17 120.121C297.607 121.538 308.62 131.129 311.301 139.529C312.588 143.562 312.09 147.122 309.96 149.406L278.527 183.661C280.657 181.378 281.154 177.817 279.868 173.785C277.187 165.384 269.494 157.846 260.058 156.429C255.393 155.888 251.63 156.894 249.5 159.177L277.612 122.869Z" fill="url(#paint11_linear_2155_2)"/>
<path d="M260.561 155.999C251.224 154.782 246.152 160.628 248.596 168.366C251.142 176.428 260.389 183.802 269.726 185.02C279.063 186.237 284.135 180.391 281.691 172.653C279.145 164.591 269.533 157.352 260.561 155.999Z" fill="#2B55B2"/>
<path d="M256.761 165.547C257.712 164.338 259.451 163.521 261.831 163.737C266.525 164.009 271.226 167.656 272.893 171.637C273.693 173.547 273.597 175.307 272.646 176.516L256.483 195.958C257.434 194.749 255.95 193.812 255.15 191.901C253.484 187.921 248.526 184.534 243.833 184.262C241.519 184.206 240.7 184.843 239.75 186.051L256.761 165.547Z" fill="url(#paint12_linear_2155_2)"/>
<path d="M245.578 183.22C240.785 182.967 239.294 185.478 240.911 189.346C242.596 193.374 247.644 196.785 252.437 197.038C257.23 197.291 258.721 194.78 257.103 190.913C255.419 186.884 250.192 183.557 245.578 183.22Z" fill="#1F469E"/>
<path d="M245.578 183.22C240.785 182.967 239.294 185.478 240.911 189.346C242.596 193.374 247.644 196.785 252.437 197.038C257.23 197.291 258.721 194.78 257.103 190.913C255.419 186.884 250.192 183.557 245.578 183.22Z" fill="url(#paint13_linear_2155_2)"/>
<path fill-rule="evenodd" clip-rule="evenodd" d="M243.901 181.074C244.212 178.331 246.558 177.005 250.855 177.864C255.931 178.977 260.902 183.184 261.724 187.497C262.234 190.176 261.439 192.068 259.38 192.784C260.296 191.724 260.308 190.072 259.444 188.036C257.747 184.034 252.509 180.695 247.891 180.322C246.105 180.213 244.778 180.488 243.901 181.074Z" fill="#1F469E"/>
<path fill-rule="evenodd" clip-rule="evenodd" d="M264.678 139.793C265.324 134.108 270.191 131.354 279.104 133.125C289.628 135.419 299.93 144.124 301.629 153.058C302.684 158.606 301.031 162.528 296.758 164.015C298.664 161.818 298.691 158.392 296.899 154.17C293.383 145.883 282.526 138.981 272.954 138.221C269.249 138.001 266.498 138.575 264.678 139.793Z" fill="#1F469E"/>
<path fill-rule="evenodd" clip-rule="evenodd" d="M294.239 98.9188C294.437 91.6985 300.048 88.1429 310.856 90.3792C322.995 93.1236 334.938 103.227 336.977 113.502C338.267 119.999 336.309 124.53 331.203 126.118C332.283 123.67 331.954 120.351 330.256 116.425C326.128 106.878 313.559 98.8438 302.528 97.8711C299.026 97.6318 296.268 98.0127 294.239 98.9188Z" fill="#1F469E"/>
<path d="M262.516 188.36C262.845 187.277 262.691 186.003 262.054 184.538C261.114 182.525 259.421 180.714 257.337 179.247C255.284 177.864 252.779 176.945 250.457 176.812C248.136 176.679 246.449 177.44 245.518 178.57L245.879 178.142C246.78 176.928 248.496 176.251 250.818 176.384C253.14 176.517 255.523 177.388 257.698 178.819C259.751 180.202 261.565 182.061 262.415 184.109C263.021 185.491 263.206 186.849 262.877 187.932C262.727 188.372 262.487 188.848 262.217 189.241L261.857 189.669C262.127 189.277 262.397 188.884 262.516 188.36Z" fill="#1C4296"/>
<path d="M266.044 183.958C266.374 182.877 266.221 181.606 265.585 180.145C264.647 178.137 262.957 176.332 260.875 174.871C258.823 173.493 256.32 172.578 253.999 172.448C251.678 172.317 249.992 173.078 249.06 174.206L249.421 173.779C250.323 172.567 252.039 171.89 254.36 172.02C256.681 172.151 259.063 173.018 261.235 174.443C263.287 175.821 265.099 177.674 265.946 179.717C266.551 181.095 266.735 182.449 266.405 183.53C266.255 183.97 266.015 184.445 265.744 184.837L265.384 185.264C265.654 184.872 265.925 184.48 266.044 183.958Z" fill="#1C4296"/>
<path d="M261.398 189.711C261.727 188.629 261.573 187.356 260.937 185.894C259.999 183.884 258.307 182.076 256.224 180.613C254.171 179.233 251.668 178.316 249.347 178.185C247.025 178.053 245.339 178.813 244.407 179.943L244.768 179.515C245.67 178.302 247.386 177.625 249.707 177.757C252.028 177.888 254.411 178.757 256.585 180.185C258.637 181.565 260.45 183.42 261.298 185.466C261.904 186.845 262.088 188.201 261.758 189.283C261.609 189.722 261.368 190.198 261.098 190.59L260.737 191.018C261.008 190.626 261.278 190.234 261.398 189.711Z" fill="#1C4296"/>
<path d="M264.938 185.342C265.266 184.257 265.111 182.98 264.472 181.511C263.531 179.493 261.836 177.676 259.75 176.205C257.694 174.817 255.188 173.894 252.866 173.758C250.543 173.623 248.857 174.384 247.926 175.516L248.287 175.087C249.187 173.871 250.904 173.194 253.226 173.329C255.549 173.465 257.934 174.34 260.11 175.776C262.166 177.164 263.981 179.028 264.833 181.082C265.441 182.468 265.626 183.828 265.298 184.914C265.149 185.355 264.91 185.832 264.64 186.225L264.279 186.654C264.549 186.261 264.819 185.867 264.938 185.342Z" fill="#1C4296"/>
<path d="M268.579 180.893C268.907 179.806 268.751 178.527 268.112 177.056C267.168 175.034 265.472 173.213 263.385 171.738C261.328 170.347 258.821 169.421 256.498 169.284C254.175 169.147 252.489 169.908 251.558 171.041L251.918 170.611C252.818 169.395 254.535 168.717 256.858 168.854C259.181 168.991 261.568 169.869 263.745 171.309C265.802 172.7 267.619 174.569 268.472 176.626C269.081 178.014 269.267 179.377 268.94 180.464C268.791 180.906 268.551 181.383 268.281 181.777L267.921 182.206C268.191 181.813 268.461 181.419 268.579 180.893Z" fill="#1C4296"/>
<path d="M260.261 191.012C260.59 189.928 260.435 188.654 259.798 187.188C258.858 185.174 257.165 183.362 255.08 181.895C253.026 180.511 250.522 179.591 248.2 179.458C245.878 179.324 244.192 180.085 243.26 181.216L243.621 180.787C244.522 179.573 246.239 178.896 248.56 179.029C250.882 179.163 253.266 180.035 255.441 181.466C257.495 182.85 259.309 184.71 260.159 186.759C260.766 188.142 260.95 189.5 260.622 190.583C260.472 191.024 260.232 191.5 259.962 191.893L259.601 192.321C259.872 191.928 260.142 191.536 260.261 191.012Z" fill="#1C4296"/>
<path d="M263.839 186.747C264.167 185.662 264.012 184.385 263.374 182.917C262.432 180.899 260.737 179.082 258.651 177.611C256.596 176.224 254.09 175.301 251.768 175.166C249.445 175.031 247.759 175.791 246.828 176.923L247.189 176.494C248.089 175.279 249.806 174.602 252.128 174.737C254.451 174.872 256.836 175.747 259.012 177.182C261.067 178.57 262.883 180.434 263.734 182.488C264.342 183.873 264.527 185.233 264.199 186.318C264.05 186.759 263.81 187.236 263.54 187.629L263.18 188.058C263.45 187.665 263.72 187.272 263.839 186.747Z" fill="#1C4296"/>
<path d="M267.272 182.548C267.6 181.462 267.444 180.184 266.805 178.713C265.862 176.693 264.167 174.874 262.08 173.4C260.024 172.011 257.517 171.086 255.194 170.949C252.871 170.813 251.185 171.574 250.255 172.707L250.615 172.277C251.515 171.061 253.232 170.384 255.555 170.52C257.877 170.656 260.263 171.533 262.44 172.971C264.496 174.361 266.313 176.228 267.165 178.284C267.774 179.671 267.96 181.033 267.632 182.119C267.483 182.561 267.244 183.038 266.974 183.432L266.613 183.861C266.883 183.467 267.153 183.074 267.272 182.548Z" fill="#1C4296"/>
<defs>
<filter id="filter0_b_2155_2" x="-49.7085" y="251.409" width="282.499" height="227.148" filterUnits="userSpaceOnUse" color-interpolation-filters="sRGB">
<feFlood flood-opacity="0" result="BackgroundImageFix"/>
<feGaussianBlur in="BackgroundImage" stdDeviation="25"/>
<feComposite in2="SourceAlpha" operator="in" result="effect1_backgroundBlur_2155_2"/>
<feBlend mode="normal" in="SourceGraphic" in2="effect1_backgroundBlur_2155_2" result="shape"/>
</filter>
<filter id="filter1_b_2155_2" x="69.9374" y="148.135" width="222.428" height="330.422" filterUnits="userSpaceOnUse" color-interpolation-filters="sRGB">
<feFlood flood-opacity="0" result="BackgroundImageFix"/>
<feGaussianBlur in="BackgroundImage" stdDeviation="25"/>
<feComposite in2="SourceAlpha" operator="in" result="effect1_backgroundBlur_2155_2"/>
<feBlend mode="normal" in="SourceGraphic" in2="effect1_backgroundBlur_2155_2" result="shape"/>
</filter>
<filter id="filter2_b_2155_2" x="-49.4171" y="150.585" width="340.221" height="263.419" filterUnits="userSpaceOnUse" color-interpolation-filters="sRGB">
<feFlood flood-opacity="0" result="BackgroundImageFix"/>
<feGaussianBlur in="BackgroundImage" stdDeviation="25"/>
<feComposite in2="SourceAlpha" operator="in" result="effect1_backgroundBlur_2155_2"/>
<feBlend mode="normal" in="SourceGraphic" in2="effect1_backgroundBlur_2155_2" result="shape"/>
</filter>
<filter id="filter3_b_2155_2" x="-48.9767" y="150.159" width="340.318" height="329.187" filterUnits="userSpaceOnUse" color-interpolation-filters="sRGB">
<feFlood flood-opacity="0" result="BackgroundImageFix"/>
<feGaussianBlur in="BackgroundImage" stdDeviation="25"/>
<feComposite in2="SourceAlpha" operator="in" result="effect1_backgroundBlur_2155_2"/>
<feBlend mode="normal" in="SourceGraphic" in2="effect1_backgroundBlur_2155_2" result="shape"/>
</filter>
<linearGradient id="paint0_linear_2155_2" x1="252.907" y1="203.865" x2="128.308" y2="433.106" gradientUnits="userSpaceOnUse">
<stop stop-color="white" stop-opacity="0"/>
<stop offset="0.630208" stop-color="white"/>
</linearGradient>
<linearGradient id="paint1_linear_2155_2" x1="286.247" y1="152.685" x2="71.7596" y2="403.351" gradientUnits="userSpaceOnUse">
<stop stop-color="white" stop-opacity="0"/>
<stop offset="0.70446" stop-color="white"/>
</linearGradient>
<linearGradient id="paint2_linear_2155_2" x1="349.9" y1="102.14" x2="349.538" y2="105.867" gradientUnits="userSpaceOnUse">
<stop stop-color="#2B55B2"/>
<stop offset="1" stop-color="#1C4296"/>
</linearGradient>
<linearGradient id="paint3_linear_2155_2" x1="298.9" y1="91.1404" x2="298.538" y2="94.8667" gradientUnits="userSpaceOnUse">
<stop stop-color="#2B55B2"/>
<stop offset="1" stop-color="#1C4296"/>
</linearGradient>
<linearGradient id="paint4_linear_2155_2" x1="459.449" y1="147.715" x2="360.613" y2="74.8776" gradientUnits="userSpaceOnUse">
<stop stop-color="#7AA4FF"/>
<stop offset="1" stop-color="#2958C1"/>
</linearGradient>
<linearGradient id="paint5_linear_2155_2" x1="462.614" y1="137.13" x2="319.619" y2="64.6715" gradientUnits="userSpaceOnUse">
<stop stop-color="#2B55B2"/>
<stop offset="1" stop-color="#152F68"/>
</linearGradient>
<linearGradient id="paint6_linear_2155_2" x1="301.338" y1="128.973" x2="187.878" y2="54.4502" gradientUnits="userSpaceOnUse">
<stop stop-color="#7AA4FF"/>
<stop offset="1" stop-color="#2958C1"/>
</linearGradient>
<linearGradient id="paint7_linear_2155_2" x1="303.594" y1="118.014" x2="140.916" y2="49.7299" gradientUnits="userSpaceOnUse">
<stop stop-color="#2B55B2"/>
<stop offset="1" stop-color="#152F68"/>
</linearGradient>
<linearGradient id="paint8_linear_2155_2" x1="306.208" y1="93.5657" x2="332.528" y2="116.261" gradientUnits="userSpaceOnUse">
<stop stop-color="#1C4296"/>
<stop offset="0.6756" stop-color="#2D5ABF"/>
<stop offset="1" stop-color="#1C4296"/>
</linearGradient>
<linearGradient id="paint9_linear_2155_2" x1="301.305" y1="94.6901" x2="330.606" y2="120.944" gradientUnits="userSpaceOnUse">
<stop stop-color="#4074E4"/>
<stop offset="0.6806" stop-color="#234DAB"/>
<stop offset="1" stop-color="#4074E4"/>
</linearGradient>
<linearGradient id="paint10_linear_2155_2" x1="270.173" y1="137.066" x2="295.625" y2="159.666" gradientUnits="userSpaceOnUse">
<stop stop-color="#1C4296"/>
<stop offset="0.6756" stop-color="#2D5ABF"/>
<stop offset="1" stop-color="#1C4296"/>
</linearGradient>
<linearGradient id="paint11_linear_2155_2" x1="268.767" y1="135.912" x2="297.64" y2="162.63" gradientUnits="userSpaceOnUse">
<stop stop-color="#4074E4"/>
<stop offset="0.6806" stop-color="#234DAB"/>
<stop offset="1" stop-color="#4074E4"/>
</linearGradient>
<linearGradient id="paint12_linear_2155_2" x1="245.731" y1="178.633" x2="260.94" y2="190.498" gradientUnits="userSpaceOnUse">
<stop stop-color="#4074E4"/>
<stop offset="0.6806" stop-color="#234DAB"/>
<stop offset="1" stop-color="#4074E4"/>
</linearGradient>
<linearGradient id="paint13_linear_2155_2" x1="245.205" y1="182.33" x2="252.71" y2="198.287" gradientUnits="userSpaceOnUse">
<stop stop-color="#1D4398"/>
<stop offset="0.494792" stop-color="#5586F2"/>
<stop offset="1" stop-color="#1D4398"/>
</linearGradient>
</defs>
</svg>
