<svg width="171" height="172" viewBox="0 0 171 172" fill="none" xmlns="http://www.w3.org/2000/svg">
<g filter="url(#filter0_d_66_837)">
<ellipse rx="60.5" ry="60.4252" transform="matrix(-1 0 0 1 85.5 86.1947)" fill="#1A3D8A"/>
<path d="M27.5 86.1947C27.5 118.183 53.4646 144.12 85.5 144.12C117.535 144.12 143.5 118.183 143.5 86.1947C143.5 54.2064 117.535 28.2695 85.5 28.2695C53.4646 28.2695 27.5 54.2064 27.5 86.1947Z" stroke="url(#paint0_linear_66_837)" stroke-width="5"/>
</g>
<path d="M65.3885 93.6975C65.1112 94.2208 64.7876 94.7748 64.4178 95.3288V93.6514H64.0326V95.929H64.464L64.4948 95.8982C64.7876 95.4673 65.1112 94.9441 65.4347 94.3747V95.929H65.82V93.6514H65.4193L65.3885 93.6975Z" fill="white"/>
<path d="M63.2 93.7899L63.3232 93.6514H62.8147L62.7839 93.6821C62.4758 94.0669 62.1522 94.39 61.9365 94.5901V93.6514H61.5513V95.929H61.9365V94.8979C62.2909 94.9287 62.4912 95.0826 62.8456 95.8828L62.861 95.929H63.3078L63.2462 95.8059C62.8456 94.9595 62.6298 94.744 62.3679 94.6517C62.5528 94.4978 62.8456 94.19 63.2 93.7899Z" fill="white"/>
<path d="M77.2837 93.7899L77.407 93.6514H76.8985L76.8677 93.6821C76.5595 94.0669 76.2359 94.39 76.0202 94.5901V93.6514H75.635V95.929H76.0202V94.8979C76.3746 94.9287 76.5749 95.0826 76.9293 95.8828L76.9447 95.929H77.3916L77.3299 95.8059C76.9293 94.9595 76.7136 94.744 76.4516 94.6517C76.652 94.4978 76.9447 94.19 77.2837 93.7899Z" fill="white"/>
<path d="M79.0548 93.605C78.2998 93.605 78.0071 93.9282 78.0071 94.7899C78.0071 95.6517 78.2844 95.9749 79.0548 95.9749C79.8098 95.9749 80.1026 95.6517 80.1026 94.7899C80.1026 93.9282 79.8098 93.605 79.0548 93.605ZM79.702 94.7899C79.702 95.4979 79.5325 95.621 79.0548 95.621C78.5772 95.621 78.4231 95.4979 78.4231 94.7899C78.4231 94.0205 78.5926 93.9589 79.0548 93.9589C79.5325 93.9435 79.702 94.0205 79.702 94.7899Z" fill="white"/>
<path d="M60.0269 93.9592C60.1964 93.9592 60.4121 93.99 60.52 94.0361L60.597 94.0669L60.7203 93.6976L60.6432 93.6668C60.4737 93.6206 60.2272 93.5898 60.0269 93.5898C59.2719 93.5898 58.9791 93.913 58.9791 94.7594C58.9791 95.6058 59.2873 95.9598 60.0269 95.9598C60.2272 95.9598 60.4737 95.929 60.6432 95.8674L60.7203 95.8367L60.597 95.4827L60.52 95.5135C60.4121 95.5597 60.1964 95.5904 60.0269 95.5904C59.5646 95.5904 59.3797 95.5135 59.3797 94.7594C59.3797 94.0207 59.5492 93.9592 60.0269 93.9592Z" fill="white"/>
<path d="M66.8671 95.929H68.4849V95.575H67.2523V94.8825H68.1305V94.5439H67.2523V93.9899H68.4849V93.6514H66.8671V95.929Z" fill="white"/>
<path d="M44.0324 93.6514H43V95.929H43.3852V95.1595H44.0478C44.4638 95.1595 44.7103 94.8825 44.7103 94.4208C44.7103 93.7745 44.3405 93.6514 44.0324 93.6514ZM44.2943 94.4208C44.2943 94.5901 44.2481 94.8056 44.0169 94.8056H43.3852V94.0053H44.0324C44.2481 93.9899 44.2943 94.2208 44.2943 94.4208Z" fill="white"/>
<path d="M46.5133 93.605C45.7583 93.605 45.4656 93.9282 45.4656 94.7899C45.4656 95.6517 45.7429 95.9749 46.5133 95.9749C47.2683 95.9749 47.5611 95.6517 47.5611 94.7899C47.5611 93.9282 47.2683 93.605 46.5133 93.605ZM47.1759 94.7899C47.1759 95.4979 47.0064 95.621 46.5287 95.621C46.0511 95.621 45.897 95.4979 45.897 94.7899C45.897 94.0205 46.0665 93.9589 46.5287 93.9589C46.991 93.9435 47.1759 94.0205 47.1759 94.7899Z" fill="white"/>
<path d="M57.1456 93.6672C57.5462 93.6672 57.6387 93.4207 57.6387 93.205V93.1279H57.3151V93.205C57.3151 93.2974 57.2997 93.3282 57.161 93.3282C57.0223 93.3282 57.0069 93.2974 57.0069 93.205V93.1279H56.6833V93.205C56.6679 93.5131 56.8374 93.6672 57.1456 93.6672Z" fill="white"/>
<path d="M51.9059 93.9592C52.0754 93.9592 52.2911 93.99 52.399 94.0361L52.476 94.0669L52.5993 93.6976L52.5222 93.6668C52.3528 93.6206 52.1062 93.5898 51.9059 93.5898C51.1509 93.5898 50.8582 93.913 50.8582 94.7594C50.8582 95.6058 51.1663 95.9598 51.9059 95.9598C52.1062 95.9598 52.3528 95.929 52.5222 95.8674L52.5993 95.8367L52.476 95.4827L52.399 95.5135C52.2911 95.5597 52.0754 95.5904 51.9059 95.5904C51.4437 95.5904 51.2588 95.5135 51.2588 94.7594C51.2588 94.0207 51.4283 93.9592 51.9059 93.9592Z" fill="white"/>
<path d="M54.7718 93.6975C54.4945 94.2208 54.1709 94.7594 53.8011 95.3288V93.6514H53.4159V95.929H53.8473L53.8781 95.8982C54.1709 95.4673 54.4945 94.9441 54.818 94.3747V95.929H55.2033V93.6514H54.818L54.7718 93.6975Z" fill="white"/>
<path d="M57.607 93.6975C57.3297 94.2208 57.0061 94.7748 56.6363 95.3288V93.6514H56.2511V95.929H56.6825L56.7133 95.8982C57.0061 95.4673 57.3297 94.9441 57.6533 94.3747V95.929H58.0385V93.6514H57.6378L57.607 93.6975Z" fill="white"/>
<path d="M49.456 93.9592C49.6255 93.9592 49.8412 93.99 49.949 94.0361L50.0261 94.0669L50.1493 93.6976L50.0723 93.6668C49.9028 93.6206 49.6563 93.5898 49.456 93.5898C48.701 93.5898 48.4082 93.913 48.4082 94.7594C48.4082 95.6058 48.7164 95.9598 49.456 95.9598C49.6563 95.9598 49.9028 95.929 50.0723 95.8674L50.1493 95.8367L50.0261 95.4827L49.949 95.5135C49.8412 95.5597 49.6255 95.5904 49.456 95.5904C48.9937 95.5904 48.8088 95.5135 48.8088 94.7594C48.8088 94.0207 48.9783 93.9592 49.456 93.9592Z" fill="white"/>
<path d="M95.4648 93.9592C95.6342 93.9592 95.85 93.99 95.9578 94.0361L96.0349 94.0669L96.1581 93.6976L96.0811 93.6668C95.9116 93.6206 95.6651 93.5898 95.4648 93.5898C94.7097 93.5898 94.417 93.913 94.417 94.7594C94.417 95.6058 94.7252 95.9598 95.4648 95.9598C95.6651 95.9598 95.9116 95.929 96.0811 95.8674L96.1581 95.8367L96.0349 95.4827L95.9578 95.5135C95.85 95.5597 95.6342 95.5904 95.4648 95.5904C95.0025 95.5904 94.8176 95.5135 94.8176 94.7594C94.8022 94.0207 94.9717 93.9592 95.4648 93.9592Z" fill="white"/>
<path d="M116.421 93.9592C116.59 93.9592 116.806 93.99 116.914 94.0361L116.991 94.0669L117.114 93.6976L117.037 93.6668C116.867 93.6206 116.621 93.5898 116.421 93.5898C115.666 93.5898 115.373 93.913 115.373 94.7594C115.373 95.6058 115.681 95.9598 116.421 95.9598C116.621 95.9598 116.867 95.929 117.037 95.8674L117.114 95.8367L116.991 95.4827L116.914 95.5135C116.806 95.5597 116.59 95.5904 116.421 95.5904C115.958 95.5904 115.773 95.5135 115.773 94.7594C115.773 94.0207 115.943 93.9592 116.421 93.9592Z" fill="white"/>
<path d="M117.639 93.9899H118.378V95.929H118.763V93.9899H119.503V93.6514H117.639V93.9899Z" fill="white"/>
<path d="M81.9986 93.9592C82.1681 93.9592 82.3838 93.99 82.4916 94.0361L82.5687 94.0669L82.6919 93.6976L82.6149 93.6668C82.4454 93.6206 82.1989 93.5898 81.9986 93.5898C81.2436 93.5898 80.9508 93.913 80.9508 94.7594C80.9508 95.6058 81.259 95.9598 81.9986 95.9598C82.1989 95.9598 82.4454 95.929 82.6149 95.8674L82.6919 95.8367L82.5687 95.4827L82.4916 95.5135C82.3838 95.5597 82.1681 95.5904 81.9986 95.5904C81.5363 95.5904 81.3514 95.5135 81.3514 94.7594C81.336 94.0207 81.5055 93.9592 81.9986 93.9592Z" fill="white"/>
<path d="M120.272 95.929H121.89V95.575H120.658V94.8825H121.536V94.5439H120.658V93.9899H121.89V93.6514H120.272V95.929Z" fill="white"/>
<path d="M111.136 93.9592C111.305 93.9592 111.521 93.99 111.629 94.0361L111.706 94.0669L111.829 93.6976L111.752 93.6668C111.582 93.6206 111.336 93.5898 111.136 93.5898C110.381 93.5898 110.088 93.913 110.088 94.7594C110.088 95.6058 110.396 95.9598 111.136 95.9598C111.336 95.9598 111.582 95.929 111.752 95.8674L111.829 95.8367L111.706 95.4827L111.629 95.5135C111.521 95.5597 111.305 95.5904 111.136 95.5904C110.673 95.5904 110.489 95.5135 110.489 94.7594C110.489 94.0207 110.658 93.9592 111.136 93.9592Z" fill="white"/>
<path d="M128.193 93.6514H127.808V95.929H128.193V93.6514Z" fill="white"/>
<path d="M124.725 93.5896L124.694 93.6358H124.494L124.478 93.6819C124.232 94.1744 124.031 94.6361 123.847 95.0824C123.662 94.6361 123.461 94.1744 123.23 93.6819L123.215 93.6358H122.984L122.953 93.5742V93.6358H122.737V95.9134H123.122V94.3437C123.292 94.7438 123.477 95.1593 123.677 95.621L123.692 95.6672H123.97L123.985 95.621C124.186 95.1593 124.37 94.7438 124.54 94.3283V95.898H124.925V93.6204H124.709V93.5896H124.725Z" fill="white"/>
<path d="M127.113 94.5439H126.404V93.6514H126.019V95.929H127.144C127.529 95.929 127.76 95.6827 127.76 95.2518C127.76 94.9441 127.683 94.5439 127.113 94.5439ZM127.36 95.2365C127.36 95.5288 127.252 95.575 127.144 95.575H126.404V94.8825H127.144C127.314 94.8825 127.36 95.0826 127.36 95.2365Z" fill="white"/>
<path d="M114.001 93.6975C113.724 94.2208 113.401 94.7594 113.031 95.3288V93.6514H112.646V95.929H113.077L113.108 95.8982C113.401 95.4673 113.724 94.9441 114.048 94.3747V95.929H114.433V93.6514H114.048L114.001 93.6975Z" fill="white"/>
<path d="M88.1152 93.6975C87.8379 94.2208 87.5143 94.7748 87.1445 95.3288V93.6514H86.7593V95.929H87.1907L87.2215 95.8982C87.5143 95.4673 87.8379 94.9441 88.1614 94.3747V95.929H88.5466V93.6514H88.146L88.1152 93.6975Z" fill="white"/>
<path d="M90.5956 94.8056C90.5956 94.8671 90.4261 94.9441 90.1641 94.9441C89.7943 94.9441 89.6865 94.8825 89.6865 94.4824V93.6514H89.3013V94.5286C89.3013 95.1903 89.6248 95.3134 90.1641 95.3134C90.3182 95.3134 90.4877 95.2826 90.5956 95.2365V95.929H90.9808V93.6514H90.5956V94.8056Z" fill="white"/>
<path d="M85.4808 93.5896L85.45 93.6358H85.2497L85.2343 93.6819C84.9878 94.1898 84.7875 94.6361 84.6026 95.0824C84.4177 94.6361 84.2174 94.1744 83.9862 93.6819L83.9708 93.6358H83.7397L83.7089 93.5742V93.6358H83.4932V95.9134H83.8784V94.3437C84.0479 94.7438 84.2328 95.1593 84.4331 95.621L84.4485 95.6672H84.7258L84.7412 95.621C84.9415 95.1593 85.1264 94.7438 85.2959 94.3283V95.898H85.6811V93.6204H85.4654V93.5896H85.4808Z" fill="white"/>
<path d="M92.0453 95.929H93.6632V95.575H92.4305V94.8825H93.3088V94.5439H92.4305V93.9899H93.6632V93.6514H92.0453V95.929Z" fill="white"/>
<path d="M100.812 93.6975C100.535 94.2208 100.211 94.7594 99.8415 95.3288V93.6514H99.4563V95.929H99.8877L99.9185 95.8982C100.211 95.4673 100.535 94.9441 100.858 94.3747V95.929H101.244V93.6514H100.843L100.812 93.6975Z" fill="white"/>
<path d="M102.306 95.929H103.908V95.575H102.691V94.8825H103.554V94.5439H102.691V93.9899H103.908V93.6514H102.306V95.929Z" fill="white"/>
<path d="M98.6233 93.7899L98.7466 93.6514H98.2381L98.2073 93.6821C97.8991 94.0669 97.5755 94.39 97.3598 94.5901V93.6514H96.9746V95.929H97.3598V94.8979C97.7142 94.9287 97.9145 95.0826 98.2689 95.8828L98.2843 95.929H98.7312L98.6695 95.8059C98.2689 94.9595 98.0532 94.744 97.7913 94.6517C97.9761 94.4978 98.2689 94.19 98.6233 93.7899Z" fill="white"/>
<path d="M64.1549 87.0186V77.5542H60.3336V75.7075H70.1333V77.5542H66.312V87.0186H64.1549Z" fill="white"/>
<path d="M75.6657 86.8031C74.8337 87.0801 73.6164 87.2494 72.769 87.2494C70.3807 87.2494 68.7474 86.2491 68.7474 82.8481C68.7474 79.5394 70.1958 78.5083 72.5995 78.5083C75.2189 78.5083 76.3591 79.4009 76.205 83.4175H70.8584C70.8738 85.1872 71.5517 85.5412 73.0001 85.5412C73.5856 85.5412 74.6796 85.4027 75.3268 85.2026L75.6657 86.8031ZM70.8892 81.8785H74.3715C74.3098 80.4166 73.8784 80.1088 72.7228 80.1088C71.4593 80.1088 71.0279 80.5089 70.8892 81.8785Z" fill="white"/>
<path d="M77.5597 79.1395C78.4534 78.7702 79.9788 78.5239 81.1807 78.5239C83.9079 78.5239 85.1406 79.5088 85.1406 82.8945C85.1406 86.2493 83.7538 87.265 81.5505 87.265C80.6106 87.265 80.025 87.0188 79.5628 86.7879V90.1428H77.5443V79.1395H77.5597ZM79.5782 84.7566C79.5782 85.249 80.3178 85.5568 81.2115 85.5568C82.629 85.5568 83.0913 84.9874 83.0913 82.9406C83.0913 80.663 82.6136 80.2629 81.1961 80.2629C80.6414 80.2629 80.0096 80.3399 79.5936 80.5091V84.7566H79.5782Z" fill="white"/>
<path d="M86.6503 79.1395C87.544 78.7702 89.0694 78.5239 90.2712 78.5239C92.9985 78.5239 94.2312 79.5088 94.2312 82.8945C94.2312 86.2493 92.8444 87.265 90.641 87.265C89.7011 87.265 89.1156 87.0188 88.6534 86.7879V90.1428H86.6349V79.1395H86.6503ZM88.6688 84.7566C88.6688 85.249 89.4084 85.5568 90.3021 85.5568C91.7196 85.5568 92.1819 84.9874 92.1819 82.9406C92.1819 80.663 91.7042 80.2629 90.2866 80.2629C89.7319 80.2629 89.1002 80.3399 88.6842 80.5091V84.7566H88.6688Z" fill="white"/>
<path d="M102.645 86.603C101.597 87.0031 100.056 87.2494 98.9005 87.2494C96.2811 87.2494 95.4028 86.6492 95.4028 84.4947C95.4028 82.1555 96.7125 81.7862 98.654 81.7862C99.3473 81.7862 100.01 81.8631 100.703 82.017C100.703 80.5705 100.364 80.2473 98.6386 80.2473C97.7295 80.2473 96.8204 80.3704 96.1424 80.6166L95.7726 78.9546C96.6355 78.7237 97.8836 78.5083 99.07 78.5083C101.52 78.5083 102.645 79.2624 102.645 81.7246V86.603ZM100.719 83.3713C100.256 83.279 99.6709 83.2328 99.07 83.2328C97.9298 83.2328 97.5292 83.3559 97.5292 84.4178C97.5292 85.5412 97.8373 85.7105 99.0546 85.7105C99.6401 85.7105 100.241 85.6027 100.719 85.4334V83.3713Z" fill="white"/>
<path d="M107.591 87.0186V77.5542H103.77V75.7075H113.57V77.5542H109.749V87.0186H107.591Z" fill="white"/>
<path d="M119.101 86.8031C118.269 87.0801 117.052 87.2494 116.204 87.2494C113.816 87.2494 112.183 86.2491 112.183 82.8481C112.183 79.5394 113.631 78.5083 116.035 78.5083C118.654 78.5083 119.795 79.4009 119.64 83.4175H114.294C114.309 85.1872 114.987 85.5412 116.436 85.5412C117.021 85.5412 118.115 85.4027 118.762 85.2026L119.101 86.8031ZM114.325 81.8785H117.807C117.745 80.4166 117.314 80.1088 116.158 80.1088C114.895 80.1088 114.463 80.5089 114.325 81.8785Z" fill="white"/>
<path d="M125.99 87.0184C125.527 86.2489 124.911 85.341 124.248 84.4022C123.524 85.3871 122.815 86.2797 122.215 87.0184H119.965C120.843 86.0027 122.045 84.433 123.185 82.8941C122.06 81.3398 120.874 79.8009 119.98 78.7544H122.384C122.939 79.4315 123.617 80.3395 124.279 81.2936C124.973 80.3395 125.543 79.4469 125.99 78.7544H128.239C127.484 79.8778 126.452 81.3706 125.389 82.8325C126.436 84.2945 127.469 85.818 128.255 87.0184H125.99Z" fill="white"/>
<path d="M57.5301 75.7075H43.0618V77.1541C50.2112 77.2618 55.9893 83.0174 56.1126 90.158H57.5301V75.7075Z" fill="white"/>
<path d="M52.6148 90.1577C52.4916 84.9408 48.3005 80.7395 43.0618 80.6626V90.1577H52.6148Z" fill="white"/>
<defs>
<filter id="filter0_d_66_837" x="0" y="0.769531" width="171" height="170.851" filterUnits="userSpaceOnUse" color-interpolation-filters="sRGB">
<feFlood flood-opacity="0" result="BackgroundImageFix"/>
<feColorMatrix in="SourceAlpha" type="matrix" values="0 0 0 0 0 0 0 0 0 0 0 0 0 0 0 0 0 0 127 0" result="hardAlpha"/>
<feOffset/>
<feGaussianBlur stdDeviation="12.5"/>
<feColorMatrix type="matrix" values="0 0 0 0 0 0 0 0 0 0.74902 0 0 0 0 0.588235 0 0 0 0.25 0"/>
<feBlend mode="normal" in2="BackgroundImageFix" result="effect1_dropShadow_66_837"/>
<feBlend mode="normal" in="SourceGraphic" in2="effect1_dropShadow_66_837" result="shape"/>
</filter>
<linearGradient id="paint0_linear_66_837" x1="85.5" y1="25.7695" x2="85.5" y2="146.62" gradientUnits="userSpaceOnUse">
<stop stop-color="#1A3D8A"/>
<stop offset="1" stop-color="#00BF96"/>
</linearGradient>
</defs>
</svg>
