<svg width="133" height="132" viewBox="0 0 133 132" fill="none" xmlns="http://www.w3.org/2000/svg">
<g filter="url(#filter0_d_66_794)">
<ellipse rx="40.5" ry="40.4499" transform="matrix(-1 0 0 1 65.5 66.2859)" fill="#1A3D8A"/>
<path d="M27.5 66.2859C27.5 87.2421 44.5103 104.236 65.5 104.236C86.4897 104.236 103.5 87.2421 103.5 66.2859C103.5 45.3296 86.4897 28.3359 65.5 28.3359C44.5103 28.3359 27.5 45.3296 27.5 66.2859Z" stroke="url(#paint0_linear_66_794)" stroke-width="5"/>
</g>
<g filter="url(#filter1_d_66_794)">
<path d="M54.327 56.7969H40.0002V58.2293C47.0797 58.336 52.8013 64.0352 52.9233 71.1059H54.327V56.7969Z" fill="url(#paint1_linear_66_794)"/>
<path d="M49.4778 70.996C49.357 65.8556 45.2474 61.716 40.1104 61.6401V70.996H49.4778Z" fill="url(#paint2_radial_66_794)"/>
<path d="M40 75.7347V73.999H40.7123C41.0685 73.999 41.1753 74.269 41.1753 74.5776C41.1753 74.8476 41.0685 75.1176 40.7479 75.1176H40.1781V75.7732H40V75.7347ZM40.7123 74.9247C40.8904 74.9247 40.9972 74.7704 40.9972 74.539C40.9972 74.269 40.8904 74.1147 40.7479 74.1147H40.1781V74.8861H40.7123V74.9247Z" fill="white"/>
<path d="M42.422 75.7732C41.9234 75.7732 41.7097 75.5804 41.7097 74.8476C41.7097 74.1533 41.9234 73.9604 42.422 73.9604C42.9206 73.9604 43.1343 74.1533 43.1343 74.8476C43.1343 75.5804 42.9206 75.7732 42.422 75.7732ZM42.422 74.1147C42.0303 74.1147 41.8878 74.2304 41.8878 74.8861C41.8878 75.5033 42.0303 75.619 42.422 75.619C42.8494 75.619 42.9919 75.4647 42.9919 74.8861C42.9563 74.2304 42.8138 74.1147 42.422 74.1147Z" fill="white"/>
<path d="M44.4521 73.9604C44.5946 73.9604 44.7727 73.999 44.9151 74.0376L44.8439 74.1919C44.737 74.1533 44.559 74.1147 44.4521 74.1147C44.0603 74.1147 43.8823 74.1919 43.8823 74.8476C43.8823 75.4647 44.0247 75.619 44.4521 75.619C44.559 75.619 44.737 75.5804 44.8439 75.5418L44.8795 75.6961C44.7727 75.7347 44.559 75.7732 44.4165 75.7732C43.9179 75.7732 43.6686 75.5804 43.6686 74.8476C43.7042 74.1533 43.9535 73.9604 44.4521 73.9604Z" fill="white"/>
<path d="M46.1262 73.9604C46.2687 73.9604 46.4468 73.999 46.5892 74.0376L46.5536 74.1919C46.4468 74.1533 46.2687 74.1147 46.1618 74.1147C45.7701 74.1147 45.592 74.1919 45.592 74.8476C45.592 75.4647 45.7344 75.619 46.1618 75.619C46.2687 75.619 46.4468 75.5804 46.5536 75.5418L46.5892 75.6961C46.4824 75.7347 46.2687 75.7732 46.1262 75.7732C45.6276 75.7732 45.3783 75.5804 45.3783 74.8476C45.3783 74.1533 45.6276 73.9604 46.1262 73.9604Z" fill="white"/>
<path d="M47.3362 75.5418C47.6567 75.0404 47.9416 74.5004 48.191 73.999H48.4046V75.7347H48.2266V74.269C47.9773 74.7704 47.6923 75.2718 47.4074 75.7347H47.1937V73.999H47.3362V75.5418Z" fill="white"/>
<path d="M49.2954 75.5418C49.6159 75.0404 49.9008 74.5004 50.1502 73.999H50.3638V75.7346H50.1858V74.269C49.9365 74.7704 49.6515 75.2718 49.3666 75.7346H49.1173V73.999H49.2954V75.5418ZM49.4378 73.5747C49.4378 73.8061 49.5447 73.8833 49.7584 73.8833C49.9721 73.8833 50.0789 73.7676 50.0789 73.5747H49.9721C49.9721 73.729 49.9008 73.729 49.794 73.729C49.6872 73.729 49.6159 73.6904 49.6159 73.5747H49.4378Z" fill="white"/>
<path d="M51.7528 73.9604C51.8953 73.9604 52.0733 73.999 52.2158 74.0376L52.1802 74.1919C52.0733 74.1533 51.8953 74.1147 51.7884 74.1147C51.3967 74.1147 51.2186 74.1919 51.2186 74.8476C51.2186 75.4647 51.361 75.619 51.7884 75.619C51.8953 75.619 52.0733 75.5804 52.1802 75.5418L52.2158 75.6961C52.109 75.7347 51.8953 75.7732 51.7528 75.7732C51.2542 75.7732 51.0049 75.5804 51.0049 74.8476C51.0049 74.1533 51.2542 73.9604 51.7528 73.9604Z" fill="white"/>
<path d="M53.7478 75.7347C53.4629 75.0018 53.2848 74.9247 52.9287 74.8861V75.7347H52.7506V73.999H52.9287V74.8476C53.0711 74.7319 53.3917 74.4233 53.6766 73.999H53.8903C53.5341 74.4619 53.2848 74.6933 53.178 74.7704C53.3917 74.8476 53.5698 74.9247 53.9259 75.7347H53.7478Z" fill="white"/>
<path d="M54.6372 75.5418C54.9578 75.0404 55.2427 74.5004 55.492 73.999H55.7057V75.7347H55.5276V74.269C55.2783 74.7704 54.9934 75.2718 54.7084 75.7347H54.4948V73.999H54.6728V75.5418H54.6372Z" fill="white"/>
<path d="M57.5585 73.999V74.1533H56.5969V74.7319H57.2736V74.8861H56.5969V75.5804H57.5585V75.7347H56.4545V73.999H57.5585Z" fill="white"/>
<path d="M60.0515 75.7347C59.7665 75.0018 59.5885 74.9247 59.2323 74.8861V75.7347H59.0898V73.999H59.2679V74.8476C59.4104 74.7319 59.7309 74.4233 60.0158 73.999H60.2295C59.8734 74.4619 59.6241 74.6933 59.5172 74.7704C59.7309 74.8476 59.909 74.9247 60.2651 75.7347H60.0515Z" fill="white"/>
<path d="M61.4407 75.7732C60.9421 75.7732 60.7284 75.5804 60.7284 74.8476C60.7284 74.1533 60.9421 73.9604 61.4407 73.9604C61.9393 73.9604 62.153 74.1533 62.153 74.8476C62.153 75.5804 61.9393 75.7732 61.4407 75.7732ZM61.4407 74.1147C61.0489 74.1147 60.9065 74.2304 60.9065 74.8861C60.9065 75.5033 61.0489 75.619 61.4407 75.619C61.8681 75.619 62.0105 75.4647 62.0105 74.8861C62.0105 74.2304 61.8681 74.1147 61.4407 74.1147Z" fill="white"/>
<path d="M63.4703 73.9604C63.6128 73.9604 63.7909 73.999 63.9333 74.0376L63.8977 74.1919C63.7909 74.1533 63.6128 74.1147 63.506 74.1147C63.1142 74.1147 62.9361 74.1919 62.9361 74.8476C62.9361 75.4647 63.0786 75.619 63.506 75.619C63.6128 75.619 63.7909 75.5804 63.8977 75.5418L63.9333 75.6961C63.8265 75.7347 63.6128 75.7732 63.4703 75.7732C62.9717 75.7732 62.7224 75.5804 62.7224 74.8476C62.758 74.1533 62.9717 73.9604 63.4703 73.9604Z" fill="white"/>
<path d="M65.8207 73.999H66.07V75.7347H65.892V74.1919C65.7139 74.6547 65.5002 75.1176 65.3577 75.5418H65.2509C65.0728 75.079 64.8947 74.6547 64.7167 74.1919V75.7347H64.5386V73.999H64.7879C64.966 74.4233 65.144 74.8861 65.3221 75.3104C65.429 74.8861 65.607 74.4233 65.8207 73.999Z" fill="white"/>
<path d="M66.9611 75.5418C67.2816 75.0404 67.5665 74.5004 67.8158 73.999H68.0295V75.7347H67.8514V74.269C67.6021 74.7704 67.3172 75.2718 67.0323 75.7347H66.8186V73.999H66.9967V75.5418H66.9611Z" fill="white"/>
<path d="M68.5283 74.6547V73.999H68.7064V74.6161C68.7064 75.0018 68.8489 75.079 69.1338 75.079C69.3475 75.079 69.5255 75.0018 69.5255 74.8861V73.999H69.7036V75.7347H69.5255V75.1176C69.4543 75.1561 69.3119 75.2333 69.1338 75.2333C68.742 75.2333 68.5283 75.1561 68.5283 74.6547Z" fill="white"/>
<path d="M71.5544 73.999V74.1533H70.5928V74.7319H71.2695V74.8861H70.5928V75.5804H71.5544V75.7347H70.4503V73.999H71.5544Z" fill="white"/>
<path d="M72.8014 73.9604C72.9438 73.9604 73.1219 73.999 73.2644 74.0376L73.2288 74.1919C73.1219 74.1533 72.9438 74.1147 72.837 74.1147C72.4452 74.1147 72.2672 74.1919 72.2672 74.8476C72.2672 75.4647 72.4096 75.619 72.837 75.619C72.9438 75.619 73.1219 75.5804 73.2288 75.5418L73.2644 75.6961C73.1575 75.7347 72.9438 75.7732 72.8014 75.7732C72.3028 75.7732 72.0535 75.5804 72.0535 74.8476C72.0535 74.1533 72.3028 73.9604 72.8014 73.9604Z" fill="white"/>
<path d="M74.7967 75.7347C74.5117 75.0018 74.3337 74.9247 73.9775 74.8861V75.7347H73.7994V73.999H73.9775V74.8476C74.12 74.7319 74.4405 74.4233 74.7254 73.999H74.9391C74.583 74.4619 74.3337 74.6933 74.2268 74.7704C74.4405 74.8476 74.6186 74.9247 74.9747 75.7347H74.7967Z" fill="white"/>
<path d="M75.6868 75.5418C76.0073 75.0404 76.2922 74.5004 76.5415 73.999H76.7552V75.7347H76.5772V74.269C76.3278 74.7704 76.0429 75.2718 75.758 75.7347H75.5443V73.999H75.7224V75.5418H75.6868Z" fill="white"/>
<path d="M78.6072 73.999V74.1533H77.6456V74.7319H78.3223V74.8861H77.6456V75.5804H78.6072V75.7347H77.5032V73.999H78.6072Z" fill="white"/>
<path d="M80.7792 73.9604C80.9216 73.9604 81.0997 73.999 81.2422 74.0376L81.2066 74.1919C81.0997 74.1533 80.9216 74.1147 80.8148 74.1147C80.423 74.1147 80.2449 74.1919 80.2449 74.8476C80.2449 75.4647 80.3874 75.619 80.8148 75.619C80.9216 75.619 81.0997 75.5804 81.2066 75.5418L81.2422 75.6961C81.1353 75.7347 80.9216 75.7732 80.7792 75.7732C80.2806 75.7732 80.0312 75.5804 80.0312 74.8476C80.0312 74.1533 80.2806 73.9604 80.7792 73.9604Z" fill="white"/>
<path d="M81.9899 75.5418C82.3104 75.0404 82.5953 74.5004 82.8446 73.999H83.0583V75.7347H82.8803V74.269C82.631 74.7704 82.346 75.2718 82.0611 75.7347H81.8474V73.999H82.0255V75.5418H81.9899Z" fill="white"/>
<path d="M84.4126 73.9604C84.5551 73.9604 84.7331 73.999 84.8756 74.0376L84.84 74.1919C84.7331 74.1533 84.5551 74.1147 84.4482 74.1147C84.0564 74.1147 83.8784 74.1919 83.8784 74.8476C83.8784 75.4647 84.0208 75.619 84.4482 75.619C84.5551 75.619 84.7331 75.5804 84.84 75.5418L84.8756 75.6961C84.7687 75.7347 84.5551 75.7732 84.4126 75.7732C83.914 75.7732 83.6647 75.5804 83.6647 74.8476C83.7003 74.1533 83.914 73.9604 84.4126 73.9604Z" fill="white"/>
<path d="M85.9789 75.7347H85.8008V74.1533H85.231V73.999H86.5131V74.1533H85.9789V75.7347Z" fill="white"/>
<path d="M88.1522 73.999V74.1533H87.2262V74.7319H87.8672V74.8861H87.2262V75.5804H88.1522V75.7347H87.0481V73.999H88.1522Z" fill="white"/>
<path d="M90.04 73.999H90.2893V75.7347H90.1112V74.1919C89.9331 74.6547 89.7194 75.1176 89.577 75.5418H89.4701C89.292 75.079 89.114 74.6547 88.9359 74.1919V75.7347H88.7578V73.999H89.0071C89.1852 74.4233 89.3633 74.8861 89.5413 75.3104C89.6838 74.8861 89.8619 74.4233 90.04 73.999Z" fill="white"/>
<path d="M91.2146 73.999V74.7319H91.8201C92.1762 74.7319 92.2474 74.9247 92.2474 75.2333C92.2474 75.5418 92.105 75.7347 91.8557 75.7347H91.0721V73.999H91.2146ZM91.8201 75.5804C91.9981 75.5804 92.0338 75.4261 92.0338 75.2333C92.0338 75.0404 91.9625 74.8861 91.7844 74.8861H91.179V75.5804H91.8201ZM92.568 73.999V75.7347H92.3899V73.999H92.568Z" fill="white"/>
<path d="M57.4867 71.0678V56.7969H64.3248C67.1028 56.7969 67.9932 58.9182 67.9932 61.6953C67.9932 64.1638 66.9247 66.3623 64.3961 66.3623H59.9798V71.0678H57.4867ZM63.6125 64.0866C64.6454 64.0866 65.2508 63.2766 65.2508 61.6567C65.2508 59.9211 64.7166 59.0725 63.6838 59.0725H59.9798V64.0866H63.6125Z" fill="white"/>
<path d="M88.864 56.7969C90.0037 56.7969 91.4996 57.0283 92.4612 57.2983L91.927 59.5739C91.2859 59.3039 90.1106 59.1496 89.2558 59.1496C86.5134 59.1496 85.4806 59.6511 85.4806 63.8552C85.4806 68.0593 86.5134 68.6765 89.2558 68.6765C90.1106 68.6765 91.2859 68.4836 91.927 68.2522L92.4612 70.5664C91.4996 70.875 90.0037 71.0678 88.864 71.0678C84.8751 71.0678 82.9519 69.4093 82.9519 63.8552C82.9519 58.2625 84.8395 56.7969 88.864 56.7969Z" fill="white"/>
<path d="M70.6658 71.0678H73.1232V56.7969H70.6658V71.0678Z" fill="white"/>
<path d="M78.2513 56.7969L73.1227 63.6623L78.6074 71.0678H81.7416L76.3281 63.4695L81.3142 56.7969H78.2513Z" fill="white"/>
</g>
<defs>
<filter id="filter0_d_66_794" x="0" y="0.835938" width="131" height="130.9" filterUnits="userSpaceOnUse" color-interpolation-filters="sRGB">
<feFlood flood-opacity="0" result="BackgroundImageFix"/>
<feColorMatrix in="SourceAlpha" type="matrix" values="0 0 0 0 0 0 0 0 0 0 0 0 0 0 0 0 0 0 127 0" result="hardAlpha"/>
<feOffset/>
<feGaussianBlur stdDeviation="12.5"/>
<feColorMatrix type="matrix" values="0 0 0 0 0 0 0 0 0 0.74902 0 0 0 0 0.588235 0 0 0 0.25 0"/>
<feBlend mode="normal" in2="BackgroundImageFix" result="effect1_dropShadow_66_794"/>
<feBlend mode="normal" in="SourceGraphic" in2="effect1_dropShadow_66_794" result="shape"/>
</filter>
<filter id="filter1_d_66_794" x="0" y="16.7969" width="132.568" height="98.9766" filterUnits="userSpaceOnUse" color-interpolation-filters="sRGB">
<feFlood flood-opacity="0" result="BackgroundImageFix"/>
<feColorMatrix in="SourceAlpha" type="matrix" values="0 0 0 0 0 0 0 0 0 0 0 0 0 0 0 0 0 0 127 0" result="hardAlpha"/>
<feOffset/>
<feGaussianBlur stdDeviation="20"/>
<feColorMatrix type="matrix" values="0 0 0 0 0.101961 0 0 0 0 0.239216 0 0 0 0 0.541176 0 0 0 0.2 0"/>
<feBlend mode="normal" in2="BackgroundImageFix" result="effect1_dropShadow_66_794"/>
<feBlend mode="normal" in="SourceGraphic" in2="effect1_dropShadow_66_794" result="shape"/>
</filter>
<linearGradient id="paint0_linear_66_794" x1="65.5" y1="25.8359" x2="65.5" y2="106.736" gradientUnits="userSpaceOnUse">
<stop stop-color="#00BF96"/>
<stop offset="1" stop-color="#1A3D8A"/>
</linearGradient>
<linearGradient id="paint1_linear_66_794" x1="40.0011" y1="63.9507" x2="54.3329" y2="63.9507" gradientUnits="userSpaceOnUse">
<stop stop-color="white"/>
</linearGradient>
<radialGradient id="paint2_radial_66_794" cx="0" cy="0" r="1" gradientUnits="userSpaceOnUse" gradientTransform="translate(40.109 70.948) scale(9.27193 9.30549)">
<stop stop-color="white"/>
</radialGradient>
</defs>
</svg>
