<svg width="200" height="201" viewBox="0 0 200 201" fill="none" xmlns="http://www.w3.org/2000/svg">
<g filter="url(#filter0_d_66_883)">
<ellipse rx="75" ry="74.9073" transform="matrix(-1 0 0 1 100 100.534)" fill="#1A3D8A"/>
<path d="M30 100.534C30 139.137 61.3342 170.441 100 170.441C138.666 170.441 170 139.137 170 100.534C170 61.9313 138.666 30.627 100 30.627C61.3342 30.627 30 61.9313 30 100.534Z" stroke="url(#paint0_linear_66_883)" stroke-width="10"/>
</g>
<path d="M74.291 108.513V103.556H75.5151V97.3768L79.2236 93.6768H85.3804V103.556H86.6405V108.513H84.1562V106.034H76.7753V108.513H74.291ZM82.9321 103.556V96.1554H80.4477L77.9634 98.6341V103.591H82.9321V103.556Z" fill="white"/>
<path d="M89.0887 106.034L87.8645 104.813V94.9341L89.0887 93.6768H97.7658L98.9899 94.9341V104.813L97.7658 106.034H89.0887ZM96.5416 103.556V96.1554H90.3848V103.556H96.5416Z" fill="white"/>
<path d="M100.755 106.034V93.6768H103.239V98.6341H106.947L109.432 96.1554V93.6768H111.88V97.4127L109.432 99.8914L111.88 102.37V106.07H109.432V103.591L106.947 101.149H103.239V106.07H100.755V106.034Z" fill="white"/>
<path d="M113.284 106.034V97.4127L116.956 93.6768H124.373V106.034H121.925V102.334H115.768V106.034H113.284ZM121.925 99.8914V96.1554H118.216L115.768 98.6341V99.8555H121.925V99.8914Z" fill="white"/>
<path d="M125.958 106.034V102.334L128.442 99.8555L125.958 97.3768V93.6768H128.442V96.1914L130.89 98.67H132.114V93.6768H134.599V98.6341H135.823L138.307 96.1554V93.6768H140.756V97.4127L138.307 99.8914L140.756 102.37V106.07H138.307V103.591L135.823 101.149H134.599V106.07H132.114V101.113H130.926L128.478 103.556V106.034H125.958Z" fill="white"/>
<path d="M142.376 106.034V93.6768H144.86V101.903L151.017 93.6768H153.465V106.034H151.017V97.8079L144.86 106.034H142.376Z" fill="white"/>
<path d="M66.2259 89.1514C66.9417 89.1514 67.522 88.5724 67.522 87.8582C67.522 87.1439 66.9417 86.5649 66.2259 86.5649C65.51 86.5649 64.9297 87.1439 64.9297 87.8582C64.9297 88.5724 65.51 89.1514 66.2259 89.1514Z" fill="url(#paint1_linear_66_883)"/>
<path d="M58.7375 100.538C58.8095 100.538 58.9175 100.538 58.9895 100.503C59.0255 100.503 59.0616 100.467 59.0976 100.467C59.1336 100.467 59.2056 100.431 59.2416 100.431C59.2776 100.431 59.3136 100.395 59.3496 100.359C59.3856 100.359 59.4216 100.323 59.4216 100.323C59.4576 100.287 59.4936 100.251 59.5656 100.215L59.6016 100.179C59.6376 100.143 59.7096 100.071 59.7456 100.036C59.7456 100.036 59.7456 100.036 59.7816 99.9996C59.8177 99.9277 59.8537 99.8918 59.8897 99.82C59.9617 99.6763 59.9977 99.5326 60.0337 99.3889C60.2857 96.084 61.7979 93.1383 64.0662 91.0189C64.3902 90.7674 64.6063 90.3722 64.6063 89.9412C64.6063 89.2227 64.0302 88.6479 63.3101 88.6479C62.9861 88.6479 62.698 88.7557 62.482 88.9713C59.6376 91.5218 57.7654 95.1141 57.4413 99.1734C57.4413 99.2093 57.4413 99.2093 57.4413 99.2452C57.4413 99.9277 58.0174 100.538 58.7375 100.538Z" fill="url(#paint2_linear_66_883)"/>
<path d="M90.4578 107.544C89.9537 107.544 89.5216 107.831 89.3056 108.226H89.2696C86.3532 114.333 80.1244 118.536 72.8875 118.536C62.8782 118.536 54.7412 110.417 54.7412 100.431C54.7412 90.4443 62.8782 82.3257 72.8875 82.3257C79.6204 82.3257 85.5251 85.9898 88.6575 91.4501C88.8736 91.8812 89.3056 92.1327 89.8097 92.1327C90.5298 92.1327 91.1059 91.5579 91.1059 90.8394C91.1059 90.588 91.0338 90.3365 90.8898 90.1569L90.4578 89.4384C90.3137 89.2229 90.1697 89.0074 90.0257 88.7559C86.2812 83.2956 80.0164 79.7393 72.8875 79.7393C61.4381 79.7393 52.1489 89.0074 52.1489 100.431C52.1489 111.854 61.4381 121.122 72.8875 121.122C80.9165 121.122 87.8654 116.56 91.3219 109.915C91.3939 109.807 91.4299 109.699 91.5019 109.591C91.5019 109.555 91.5379 109.555 91.5379 109.519C91.5019 109.627 91.5379 109.519 91.5739 109.412C91.5739 109.376 91.6099 109.34 91.6099 109.34C91.6459 109.232 91.6819 109.16 91.6099 109.304C91.6459 109.16 91.6819 109.016 91.6819 108.873C91.7539 108.118 91.1779 107.544 90.4578 107.544Z" fill="url(#paint3_linear_66_883)"/>
<path d="M97.3705 108.837C97.3705 108.118 96.7944 107.544 96.0743 107.544C95.5702 107.544 95.1382 107.831 94.9221 108.226L94.8861 108.298C91.6457 117.279 83.0406 123.673 72.9233 123.673C60.0337 123.673 49.5923 113.255 49.5923 100.395C49.5923 87.5346 60.0697 77.1529 72.9233 77.1529C82.5366 77.1529 90.7816 82.9364 94.3461 91.2346C94.4901 91.7735 94.9942 92.1686 95.5702 92.1686C96.2903 92.1686 96.8664 91.5939 96.8664 90.8754C96.8664 90.7317 96.8304 90.588 96.7944 90.4443C96.5424 89.7618 96.6864 90.121 96.3983 89.4744C96.2903 89.2948 96.2183 89.0793 96.1103 88.8996C91.8978 80.3859 83.1126 74.5664 72.9233 74.5664C58.5935 74.5664 47 86.1336 47 100.431C47 114.728 58.5935 126.295 72.9233 126.295C83.6167 126.295 92.7979 119.829 96.7584 110.597C97.0824 109.843 97.0464 110.058 97.2985 109.268C97.3345 109.124 97.3705 108.981 97.3705 108.837Z" fill="url(#paint4_linear_66_883)"/>
<defs>
<filter id="filter0_d_66_883" x="0" y="0.626953" width="200" height="199.814" filterUnits="userSpaceOnUse" color-interpolation-filters="sRGB">
<feFlood flood-opacity="0" result="BackgroundImageFix"/>
<feColorMatrix in="SourceAlpha" type="matrix" values="0 0 0 0 0 0 0 0 0 0 0 0 0 0 0 0 0 0 127 0" result="hardAlpha"/>
<feOffset/>
<feGaussianBlur stdDeviation="12.5"/>
<feColorMatrix type="matrix" values="0 0 0 0 1 0 0 0 0 1 0 0 0 0 1 0 0 0 0.25 0"/>
<feBlend mode="normal" in2="BackgroundImageFix" result="effect1_dropShadow_66_883"/>
<feBlend mode="normal" in="SourceGraphic" in2="effect1_dropShadow_66_883" result="shape"/>
</filter>
<linearGradient id="paint0_linear_66_883" x1="100" y1="25.627" x2="100" y2="175.441" gradientUnits="userSpaceOnUse">
<stop stop-color="#1A3D8A"/>
<stop offset="1" stop-color="#00BF96"/>
</linearGradient>
<linearGradient id="paint1_linear_66_883" x1="46.8001" y1="110.879" x2="78.5815" y2="73.027" gradientUnits="userSpaceOnUse">
<stop stop-color="#00C095"/>
<stop offset="1" stop-color="#00FEE4"/>
</linearGradient>
<linearGradient id="paint2_linear_66_883" x1="46.9123" y1="111.216" x2="78.6937" y2="73.3639" gradientUnits="userSpaceOnUse">
<stop stop-color="#00C095"/>
<stop offset="1" stop-color="#00FEE4"/>
</linearGradient>
<linearGradient id="paint3_linear_66_883" x1="56.8218" y1="119.536" x2="88.6032" y2="81.6842" gradientUnits="userSpaceOnUse">
<stop stop-color="#00BF96"/>
<stop offset="1" stop-color="#00FEE4"/>
</linearGradient>
<linearGradient id="paint4_linear_66_883" x1="56.8223" y1="119.537" x2="88.6037" y2="81.6848" gradientUnits="userSpaceOnUse">
<stop stop-color="#00BF96"/>
<stop offset="1" stop-color="#00FEE4"/>
</linearGradient>
</defs>
</svg>
